<?xml version="1.0" encoding="utf-8"?>
<!-- Generator: Adobe Illustrator 23.0.5, SVG Export Plug-In . SVG Version: 6.00 Build 0)  -->
<svg version="1.1" id="Layer_1" xmlns="http://www.w3.org/2000/svg" xmlns:xlink="http://www.w3.org/1999/xlink" x="0px" y="0px"
	 viewBox="0 0 1200 675" style="enable-background:new 0 0 1200 675;" xml:space="preserve">
<style type="text/css">
	.st0{fill:#D5E7F7;}
	.st1{fill:#C4D9ED;}
	.st2{fill:#ADC9E0;}
	.st3{fill:#1C2948;}
	.st4{fill:#163560;}
	.st5{fill:#739AF0;}
	.st6{fill:url(#SVGID_1_);}
	.st7{fill:url(#SVGID_2_);}
	.st8{fill:#4A82D3;}
	.st9{fill:#2D3A62;}
	.st10{fill:#98BDF4;}
	.st11{fill:#2B478B;}
	.st12{fill:#233862;}
	.st13{fill:#AB7041;}
	.st14{fill:#9C5F33;}
	.st15{fill:url(#SVGID_3_);}
	.st16{fill:url(#SVGID_4_);}
	.st17{fill:url(#SVGID_5_);}
	.st18{fill:#6793E7;}
	.st19{fill:url(#SVGID_6_);}
	.st20{fill:#1F3341;}
	.st21{fill:#2D4454;}
	.st22{fill:#122633;}
	.st23{fill:#FFFFFF;}
	.st24{fill:#85878A;}
	.st25{fill:#555658;}
	.st26{fill:#808184;}
	.st27{fill:url(#SVGID_7_);}
	.st28{fill:#1A2E35;}
	.st29{fill:url(#SVGID_8_);}
	.st30{fill:url(#SVGID_9_);}
	.st31{fill:url(#SVGID_10_);}
	.st32{fill:#FFB27D;}
	.st33{fill:url(#SVGID_11_);}
	.st34{fill:#ED975D;}
	.st35{fill:url(#SVGID_12_);}
	.st36{fill:url(#SVGID_13_);}
	.st37{fill:url(#SVGID_14_);}
	.st38{fill:#466591;}
	.st39{fill:#5574A5;}
	.st40{fill:#66DB8E;}
	.st41{fill:#E9F4FF;}
	.st42{opacity:0.5;}
	.st43{fill:#A8CCFF;}
	.st44{fill:#FF912B;}
	.st45{fill:#1B294B;}
	.st46{fill:#145DEF;}
	.st47{fill:#2A3967;}
	.st48{fill:#D1E4FC;}
	.st49{fill:#25468F;}
	.st50{fill:#CDE3FF;}
	.st51{fill:#A5D2FF;}
	.st52{fill:#214D9A;}
	.st53{fill:#C8DFFD;}
	.st54{fill:#7798F8;}
	.st55{fill:#DAE6FF;}
	.st56{fill:#FFAE73;}
	.st57{fill:#1E3865;}
	.st58{fill:url(#SVGID_15_);}
	.st59{fill:url(#SVGID_16_);}
	.st60{fill:url(#SVGID_17_);}
	.st61{fill:#F9924F;}
	.st62{fill:url(#SVGID_18_);}
	.st63{fill:url(#SVGID_19_);}
	.st64{fill:url(#SVGID_20_);}
	.st65{fill:#2D3554;}
	.st66{opacity:0.4;}
	.st67{fill-rule:evenodd;clip-rule:evenodd;fill:#DEECFC;}
	.st68{fill-rule:evenodd;clip-rule:evenodd;fill:#455563;}
	.st69{fill-rule:evenodd;clip-rule:evenodd;fill:#566578;}
	.st70{fill-rule:evenodd;clip-rule:evenodd;fill:#AEC6CE;}
	.st71{fill-rule:evenodd;clip-rule:evenodd;fill:#91B1BD;}
	.st72{fill-rule:evenodd;clip-rule:evenodd;fill:#EAEEF0;}
	.st73{fill-rule:evenodd;clip-rule:evenodd;fill:#D3E1E7;}
	.st74{fill-rule:evenodd;clip-rule:evenodd;fill:#1483EF;}
	.st75{fill-rule:evenodd;clip-rule:evenodd;fill:#145DEF;}
	.st76{fill-rule:evenodd;clip-rule:evenodd;fill:#47A4AD;}
	.st77{fill-rule:evenodd;clip-rule:evenodd;fill:#EDE5D4;}
	.st78{fill-rule:evenodd;clip-rule:evenodd;fill:#FFFFFF;}
	.st79{fill-rule:evenodd;clip-rule:evenodd;fill:#C8DBE3;}
	.st80{fill-rule:evenodd;clip-rule:evenodd;fill:#145DC3;}
	.st81{fill-rule:evenodd;clip-rule:evenodd;fill:#D9D8D4;}
	.st82{fill-rule:evenodd;clip-rule:evenodd;fill:#E4EBED;}
	.st83{fill-rule:evenodd;clip-rule:evenodd;fill:#6EB7BF;}
	.st84{fill:#1483EF;}
	.st85{fill:#BACFE2;}
	.st86{fill-rule:evenodd;clip-rule:evenodd;fill:#EE9C94;}
	.st87{fill-rule:evenodd;clip-rule:evenodd;fill:#F9BCAF;}
	.st88{fill-rule:evenodd;clip-rule:evenodd;fill:#F6A399;}
	.st89{fill-rule:evenodd;clip-rule:evenodd;fill:#2F1210;}
	.st90{fill-rule:evenodd;clip-rule:evenodd;fill:#ED7660;}
	.st91{fill-rule:evenodd;clip-rule:evenodd;fill:#D33727;}
	.st92{fill-rule:evenodd;clip-rule:evenodd;fill:#A72423;}
	.st93{fill-rule:evenodd;clip-rule:evenodd;fill:#EEB51D;}
	.st94{fill-rule:evenodd;clip-rule:evenodd;fill:#E9938B;}
	.st95{fill-rule:evenodd;clip-rule:evenodd;fill:#2C6F9A;}
	.st96{fill-rule:evenodd;clip-rule:evenodd;fill:#3E7FA9;}
	.st97{fill-rule:evenodd;clip-rule:evenodd;fill:#59C6DB;}
	.st98{fill-rule:evenodd;clip-rule:evenodd;fill:#609DD4;}
	.st99{fill-rule:evenodd;clip-rule:evenodd;fill:#4685B9;}
	.st100{fill-rule:evenodd;clip-rule:evenodd;fill:#CCA440;}
	.st101{fill-rule:evenodd;clip-rule:evenodd;fill:#CC4B27;}
	.st102{fill-rule:evenodd;clip-rule:evenodd;fill:#F3763E;}
	.st103{fill-rule:evenodd;clip-rule:evenodd;fill:#E08077;}
	.st104{fill-rule:evenodd;clip-rule:evenodd;fill:#4F96D1;}
	.st105{fill-rule:evenodd;clip-rule:evenodd;fill:#DFB847;}
	.st106{fill-rule:evenodd;clip-rule:evenodd;fill:#CA2E27;}
	.st107{fill-rule:evenodd;clip-rule:evenodd;fill:#0B0E10;}
	.st108{fill-rule:evenodd;clip-rule:evenodd;fill:#5E5E5E;}
	.st109{fill-rule:evenodd;clip-rule:evenodd;fill:#1B2729;}
	.st110{fill-rule:evenodd;clip-rule:evenodd;fill:#232E30;}
	.st111{fill-rule:evenodd;clip-rule:evenodd;fill:#D4D2D1;}
	.st112{fill-rule:evenodd;clip-rule:evenodd;fill:#F3E8E7;}
	.st113{fill-rule:evenodd;clip-rule:evenodd;fill:#2B3A3A;}
	.st114{fill-rule:evenodd;clip-rule:evenodd;fill:#A29899;}
	.st115{fill:#331410;}
	.st116{fill:#ED7660;}
	.st117{fill-rule:evenodd;clip-rule:evenodd;fill:#3B150E;}
	.st118{fill-rule:evenodd;clip-rule:evenodd;fill:#543119;}
	.st119{fill-rule:evenodd;clip-rule:evenodd;fill:#2A2B2B;}
	.st120{opacity:0.1;}
	.st121{fill:#DFEDFF;}
	.st122{fill:#F6FBFF;}
	.st123{fill:#161616;}
	.st124{fill:#3F4040;}
	.st125{fill:#383838;}
	.st126{fill:#DAD9DA;}
	.st127{fill:#333333;}
	.st128{fill:#C7D5FD;}
	.st129{fill:#A2C1F4;}
	.st130{fill:#7B2718;}
	.st131{fill:#E5E5E4;}
	.st132{fill:#712418;}
	.st133{fill:url(#SVGID_21_);}
	.st134{fill:url(#SVGID_22_);}
	.st135{fill:url(#SVGID_23_);}
	.st136{fill:#FABFA4;}
	.st137{fill:#F4E5CD;}
	.st138{fill:#C78976;}
	.st139{fill:#2A2B2A;}
	.st140{fill:url(#SVGID_24_);}
	.st141{fill:url(#SVGID_25_);}
	.st142{fill:url(#SVGID_26_);}
	.st143{fill:url(#SVGID_27_);}
	.st144{fill:url(#SVGID_28_);}
	.st145{fill:url(#SVGID_29_);}
	.st146{fill:url(#SVGID_30_);}
	.st147{fill:url(#SVGID_31_);}
	.st148{fill:url(#SVGID_32_);}
	.st149{fill:url(#SVGID_33_);}
	.st150{fill:url(#SVGID_34_);}
	.st151{fill:url(#SVGID_35_);}
	.st152{fill:url(#SVGID_36_);}
	.st153{fill:#D4DEFD;}
	.st154{fill:#BCCEFD;}
	.st155{fill:#E1E8FD;}
	.st156{fill:url(#SVGID_37_);}
	.st157{fill:url(#SVGID_38_);}
	.st158{fill:url(#SVGID_39_);}
	.st159{opacity:0.25;fill:url(#SVGID_40_);}
	.st160{opacity:0.25;fill:url(#SVGID_41_);}
	.st161{fill:url(#SVGID_42_);}
	.st162{fill:url(#SVGID_43_);}
	.st163{fill:url(#SVGID_44_);}
	.st164{opacity:0.61;fill:url(#SVGID_45_);}
	.st165{fill:url(#SVGID_46_);}
	.st166{fill:url(#SVGID_47_);}
	.st167{opacity:0.61;fill:url(#SVGID_48_);}
	.st168{fill:url(#SVGID_49_);}
	.st169{fill:url(#SVGID_50_);}
	.st170{fill:url(#SVGID_51_);}
	.st171{fill:url(#SVGID_52_);}
	.st172{fill:url(#SVGID_53_);}
	.st173{fill:url(#SVGID_54_);}
	.st174{fill:url(#SVGID_55_);}
	.st175{fill:url(#SVGID_56_);}
	.st176{fill:#0C1D6D;}
	.st177{fill:url(#SVGID_57_);}
	.st178{fill:url(#SVGID_58_);}
	.st179{fill:url(#SVGID_59_);}
	.st180{fill:url(#SVGID_60_);}
	.st181{fill:url(#SVGID_61_);}
	.st182{fill:url(#SVGID_62_);}
	.st183{fill:url(#SVGID_63_);}
	.st184{fill:url(#SVGID_64_);}
	.st185{fill:url(#SVGID_65_);}
	.st186{fill:url(#SVGID_66_);}
	.st187{fill:url(#SVGID_67_);}
	.st188{fill:url(#SVGID_68_);}
	.st189{fill:url(#SVGID_69_);}
	.st190{fill:url(#SVGID_70_);}
	.st191{fill:url(#SVGID_71_);}
</style>
<g>
	<ellipse class="st48" cx="485.6" cy="600.1" rx="318.7" ry="11.9"/>
	<g>
		<rect x="356.5" y="219.3" class="st153" width="156.9" height="316.3"/>
		<g>
			<rect x="263.7" y="176" class="st128" width="173.5" height="359.6"/>
			<rect x="284.8" y="155.7" class="st128" width="131.4" height="21.5"/>
			<rect x="311.2" y="134.3" class="st128" width="78.5" height="21.5"/>
		</g>
		<rect x="183.5" y="168.4" class="st153" width="85.8" height="367.1"/>
		<rect x="98.4" y="245.1" class="st128" width="85.8" height="290.5"/>
		<rect x="0" y="318.9" class="st153" width="99.2" height="216.7"/>
		<g>
			<rect x="710.3" y="141" class="st153" width="207.8" height="375.9"/>
			<rect x="1086.1" y="337.1" class="st153" width="68" height="202.4"/>
			<rect x="1154" y="249.1" class="st128" width="46" height="290.4"/>
			<rect x="643.7" y="195.7" class="st128" width="186.9" height="343.8"/>
			<rect x="824.9" y="115.3" class="st128" width="261.5" height="424.1"/>
			<g>
				<g>
					<rect x="669.7" y="221.4" class="st154" width="39" height="28.9"/>
					<rect x="729.2" y="221.4" class="st154" width="39" height="28.9"/>
					<rect x="788.7" y="221.4" class="st154" width="39" height="28.9"/>
				</g>
				<g>
					<rect x="669.7" y="264.8" class="st154" width="39" height="28.9"/>
					<rect x="729.2" y="264.8" class="st154" width="39" height="28.9"/>
					<rect x="788.7" y="264.8" class="st154" width="39" height="28.9"/>
				</g>
				<g>
					<rect x="669.7" y="308.1" class="st154" width="39" height="28.9"/>
					<rect x="729.2" y="308.1" class="st154" width="39" height="28.9"/>
					<rect x="788.7" y="308.1" class="st154" width="39" height="28.9"/>
				</g>
				<g>
					<rect x="669.7" y="351.5" class="st154" width="39" height="28.9"/>
					<rect x="729.2" y="351.5" class="st154" width="39" height="28.9"/>
					<rect x="788.7" y="351.5" class="st154" width="39" height="28.9"/>
				</g>
				<g>
					<rect x="669.7" y="394.9" class="st154" width="39" height="28.9"/>
					<rect x="729.2" y="394.9" class="st154" width="39" height="28.9"/>
					<rect x="788.7" y="394.9" class="st154" width="39" height="28.9"/>
				</g>
			</g>
			<g>
				<g>
					<rect x="867.1" y="221.4" class="st154" width="39" height="28.9"/>
					<rect x="936.2" y="221.4" class="st154" width="39" height="28.9"/>
					<rect x="1004.1" y="221.4" class="st154" width="39" height="28.9"/>
				</g>
				<g>
					<rect x="867.1" y="174.8" class="st154" width="39" height="28.9"/>
					<rect x="936.2" y="174.8" class="st154" width="39" height="28.9"/>
					<rect x="1004.1" y="174.8" class="st154" width="39" height="28.9"/>
				</g>
				<g>
					<rect x="867.1" y="130.6" class="st154" width="39" height="28.9"/>
					<rect x="936.2" y="130.6" class="st154" width="39" height="28.9"/>
					<rect x="1004.1" y="130.6" class="st154" width="39" height="28.9"/>
				</g>
				<g>
					<rect x="867.1" y="264.8" class="st154" width="39" height="28.9"/>
					<rect x="936.2" y="264.8" class="st154" width="39" height="28.9"/>
					<rect x="1004.1" y="264.8" class="st154" width="39" height="28.9"/>
				</g>
				<g>
					<rect x="867.1" y="308.1" class="st154" width="39" height="28.9"/>
					<rect x="936.2" y="308.1" class="st154" width="39" height="28.9"/>
					<rect x="1004.1" y="308.1" class="st154" width="39" height="28.9"/>
				</g>
				<g>
					<rect x="867.1" y="351.5" class="st154" width="39" height="28.9"/>
					<rect x="936.2" y="351.5" class="st154" width="39" height="28.9"/>
					<rect x="1004.1" y="351.5" class="st154" width="39" height="28.9"/>
				</g>
				<g>
					<rect x="867.1" y="394.9" class="st154" width="39" height="28.9"/>
					<rect x="936.2" y="394.9" class="st154" width="39" height="28.9"/>
					<rect x="1004.1" y="394.9" class="st154" width="39" height="28.9"/>
				</g>
			</g>
			<rect x="1154" y="227.6" class="st153" width="46" height="21.5"/>
			<rect x="867.1" y="92.1" class="st128" width="177.2" height="23.3"/>
		</g>
		<path class="st155" d="M434.9,107.9c1.8-20.4,35.9-36.7,77.5-36.7c14.1,0,27.3,1.9,38.7,5.1l0,0c1.4-10,18.3-18,39-18
			c18.5,0,34,6.4,38,14.9l0,0c4.9-0.6,10.1-0.9,15.4-0.9c27.9,0,51.8,8.6,61.2,20.8c5.6-1.1,11.6-1.7,18-1.7
			c15.3,0,28.9,3.5,37.9,8.9c5,3,0.5,7.5-7.3,7.5H434.9z"/>
		<path class="st155" d="M364.6,63.8c0,0.3,0,0.6,0,0.8H171.4c5.5-9.3,22.9-16.1,43.5-16.1c4.7,0,9.3,0.4,13.5,1
			c11.1-12.3,36-20.9,65-20.9C332.8,28.5,364.6,44.3,364.6,63.8z"/>
		<path class="st155" d="M196.7,128.8c0,0.1,0,0.3,0,0.4H70.4c0-0.1,0-0.3,0-0.4c0-6.1,10-11.1,22.3-11.1c2.3,0,4.6,0.2,6.7,0.5
			c5.5-6.1,17.8-10.3,32.1-10.3c14.9,0,27.6,4.6,32.7,11c3.1-0.8,6.5-1.2,10.2-1.2C186.7,117.7,196.7,122.7,196.7,128.8z"/>
		<path class="st155" d="M961.4,41.8c0,0.3,0,0.6,0,0.8H708.7c0-0.3,0-0.6,0-0.8c0-12.2,20-22.1,44.7-22.1c4.7,0,9.2,0.4,13.4,1
			C777.7,8.5,802.3,0,831,0c29.7,0,55.2,9.1,65.4,22.1c6.1-1.5,13-2.4,20.3-2.4C941.4,19.6,961.4,29.6,961.4,41.8z"/>
	</g>
	<g>
		<g>
			<g>
				<linearGradient id="SVGID_1_" gradientUnits="userSpaceOnUse" x1="485.3492" y1="326.3857" x2="494.7719" y2="699.5165">
					<stop  offset="0" style="stop-color:#53D8FF"/>
					<stop  offset="1" style="stop-color:#3840F7"/>
				</linearGradient>
				<path class="st6" d="M537.1,305.8c88.4,22.1,140.2,81.2,165.8,87.1c25.6,6,128,11.4,144.7,27c16.7,15.5,0.7,26.5,22.2,46.5
					c23.8,67-49.8,87.1-49.8,87.1L151.4,548c0,0-45.1,4.1-46.1-28.2c-1-32.2-1.7-46.7,0.7-75.7c2.4-29,14.1-32.3,20.6-47.3
					c6.5-15,69.2-16.7,81.4-33.4c12.2-16.7,26.8-43.4,78.6-52.5C358.1,298.3,485.9,293,537.1,305.8z"/>
				<linearGradient id="SVGID_2_" gradientUnits="userSpaceOnUse" x1="190.1531" y1="-137.4238" x2="126.3311" y2="746.5136">
					<stop  offset="0" style="stop-color:#53D8FF"/>
					<stop  offset="1" style="stop-color:#3840F7"/>
				</linearGradient>
				<path class="st7" d="M101.7,518c1.1,37,63.9,30.5,64.2,30.5c0,0,49.9-38.2-18.8-36.8c-20.6-0.5-41.6-11.5-41.6-11.5L101.7,518z"
					/>
				<linearGradient id="SVGID_3_" gradientUnits="userSpaceOnUse" x1="805.7335" y1="222.5922" x2="818.4534" y2="560.3718">
					<stop  offset="0" style="stop-color:#53D8FF"/>
					<stop  offset="1" style="stop-color:#3840F7"/>
				</linearGradient>
				<path class="st15" d="M873.9,482.9c0,0,0.7,9.4-17,19.1c-21.9,12-106.8-1.3-106.8-1.3v49.2l71.8,3.7
					C820.2,554,916.1,548.4,873.9,482.9z"/>
				<path class="st128" d="M219.3,411.9c0,0-2.2-16.8,15.5-37.4c17.7-20.6,28-34.2,41.6-37.7c13.6-3.5,113-17.3,119.6-6.7
					c6.5,10.6,14.9,75.6,14.9,75.6L219.3,411.9z"/>
				
					<linearGradient id="SVGID_4_" gradientUnits="userSpaceOnUse" x1="-3911.7095" y1="-1276.9032" x2="-4068.05" y2="-814.2626" gradientTransform="matrix(0.9993 -3.670000e-02 3.670000e-02 0.9993 4618.0933 325.6789)">
					<stop  offset="0" style="stop-color:#5AB6FF"/>
					<stop  offset="1" style="stop-color:#2F68E3"/>
				</linearGradient>
				<path style="opacity:0.25;fill:url(#SVGID_4_);" d="M278.2,335c11.1-1.7,95.7-11.5,117.6-8.7l5.7,21.7l-182.2,63.9
					c0,0-0.9-13.8,8.2-27.5C242.7,361.5,266.5,336.4,278.2,335z"/>
				<path class="st128" d="M425.7,330.1c2.8,12.6,12.9,73.8,12.9,73.8l215-1c0,0-67.8-62.3-119.9-72.1
					C481.6,320.8,423.9,323.4,425.7,330.1z"/>
				
					<linearGradient id="SVGID_5_" gradientUnits="userSpaceOnUse" x1="-3760.6863" y1="-1225.8674" x2="-3917.0259" y2="-763.2291" gradientTransform="matrix(0.9993 -3.670000e-02 3.670000e-02 0.9993 4618.0933 325.6789)">
					<stop  offset="0" style="stop-color:#5AB6FF"/>
					<stop  offset="1" style="stop-color:#2F68E3"/>
				</linearGradient>
				<path style="opacity:0.25;fill:url(#SVGID_5_);" d="M526.4,326.1c-42.4-5.9-58-4.8-102.5-0.9l4.3,17.8c0,0,66.2-13,127.9-5.5
					C556.1,337.5,540.2,328,526.4,326.1z"/>
				<linearGradient id="SVGID_6_" gradientUnits="userSpaceOnUse" x1="835.3486" y1="445.0334" x2="759.0301" y2="874.6775">
					<stop  offset="0" style="stop-color:#53D8FF"/>
					<stop  offset="1" style="stop-color:#3840F7"/>
				</linearGradient>
				<path class="st19" d="M842.7,416.7c0,0-34.8-11.2-43.3,16.4c-8.1,26.3,70.5,33.3,70.5,33.3S864,427.4,842.7,416.7z"/>
				<path class="st23" d="M207.4,382.2c0.2,0,0.4,0,0.6-0.1c8.2-2.5,15.1-11.1,23.1-21.1c11.7-14.6,24.9-31.1,46.4-35.2
					c41.3-7.9,103.9-13.3,104.5-13.4c1.1-0.1,1.9-1.1,1.8-2.2c-0.1-1.1-1-1.9-2.2-1.8c-0.6,0.1-63.5,5.5-105,13.5
					c-23,4.4-37.3,22.3-48.8,36.6c-7.6,9.5-14.1,17.6-21.1,19.7c-1.1,0.3-1.7,1.5-1.4,2.5C205.7,381.6,206.5,382.2,207.4,382.2z"/>
				<path class="st23" d="M143.4,405.1c0.7,0,1.5-0.4,1.8-1.1c3.4-6.8,18.4-9.9,32.9-12.9c5.2-1.1,10.6-2.2,15.5-3.5
					c1.1-0.3,1.7-1.4,1.4-2.5c-0.3-1.1-1.4-1.7-2.5-1.4c-4.8,1.3-10.2,2.4-15.3,3.4c-16.2,3.3-31.5,6.5-35.8,15.1
					c-0.5,1-0.1,2.2,0.9,2.7C142.7,405,143.1,405.1,143.4,405.1z"/>
				<g>
					<path class="st23" d="M438.8,544.1c0.1,0,0.1,0,0.2,0c1.2,0,2.1-1,2.1-2.2c0-0.9-0.5-1.6-1.2-1.9c-4.2-6.7-9.6-79.6-12.1-124.5
						c-0.1-1.2-1.1-2.1-2.2-2c-1.2,0.1-2.1,1.1-2,2.2c0,0.3,1.8,32,4.3,63.3C432.9,542.6,436,544.1,438.8,544.1z"/>
				</g>
				<linearGradient id="SVGID_7_" gradientUnits="userSpaceOnUse" x1="286.4867" y1="309.2607" x2="287.2097" y2="624.5541">
					<stop  offset="0" style="stop-color:#53D8FF"/>
					<stop  offset="1" style="stop-color:#3840F7"/>
				</linearGradient>
				<path class="st27" d="M366.1,547.9c0.5-2.8,0.8-6.9,0.8-10.6c0-44.1-35.8-79.7-79.9-79.7s-79.9,35.5-79.9,79.7
					c0,3.7,0.3,7.8,0.8,10.6H366.1z"/>
				<g>
					<linearGradient id="SVGID_8_" gradientUnits="userSpaceOnUse" x1="221.3002" y1="535.3525" x2="351.4802" y2="535.3525">
						<stop  offset="0" style="stop-color:#2B3582"/>
						<stop  offset="1" style="stop-color:#150E42"/>
					</linearGradient>
					<circle class="st29" cx="286.4" cy="535.4" r="65.1"/>
					<linearGradient id="SVGID_9_" gradientUnits="userSpaceOnUse" x1="286.3903" y1="97.364" x2="286.3903" y2="555.3431">
						<stop  offset="0" style="stop-color:#53D8FF"/>
						<stop  offset="1" style="stop-color:#3840F7"/>
					</linearGradient>
					<circle style="opacity:0.61;fill:url(#SVGID_9_);" cx="286.4" cy="535.4" r="52.9"/>
				</g>
				<linearGradient id="SVGID_10_" gradientUnits="userSpaceOnUse" x1="724.8969" y1="275.2252" x2="677.7842" y2="578.6299">
					<stop  offset="0" style="stop-color:#53D8FF"/>
					<stop  offset="1" style="stop-color:#3840F7"/>
				</linearGradient>
				<path class="st31" d="M762.8,551.6c0.5-2.8,0.8-6.7,0.8-10.4c0-44.1-35.8-79.6-79.9-79.6s-79.9,35.4-79.9,79.5
					c0,3.7,0.3,7.7,0.8,10.5H762.8z"/>
				<g>
					<linearGradient id="SVGID_11_" gradientUnits="userSpaceOnUse" x1="617.9428" y1="539.4855" x2="748.1229" y2="539.4855">
						<stop  offset="0" style="stop-color:#2B3582"/>
						<stop  offset="1" style="stop-color:#150E42"/>
					</linearGradient>
					<circle class="st33" cx="683" cy="539.5" r="65.1"/>
					<linearGradient id="SVGID_12_" gradientUnits="userSpaceOnUse" x1="670.8142" y1="177.5078" x2="685.8902" y2="624.1338">
						<stop  offset="0" style="stop-color:#53D8FF"/>
						<stop  offset="1" style="stop-color:#3840F7"/>
					</linearGradient>
					<circle style="opacity:0.61;fill:url(#SVGID_12_);" cx="683" cy="539.5" r="52.9"/>
				</g>
			</g>
			<linearGradient id="SVGID_13_" gradientUnits="userSpaceOnUse" x1="571.9951" y1="399.3421" x2="601.6744" y2="208.5462">
				<stop  offset="0" style="stop-color:#53D8FF"/>
				<stop  offset="1" style="stop-color:#3840F7"/>
			</linearGradient>
			<path class="st36" d="M618.4,398.3l-16.3-17.1c-6.8-7.1-15.4-12-24.7-14l-32.3-7c-8.9-1.9-17.3,4.8-18.3,14.5l-0.2,2.3
				c-1,9.9,6.2,18.5,15.4,18.3l41.6-0.5c5.8-0.1,11.1,3.6,13.4,9.4l0.8,1.9c1,2.6,3.3,4.2,5.9,4.2h10.2
				C619.7,410.2,622.5,402.7,618.4,398.3z"/>
			<linearGradient id="SVGID_14_" gradientUnits="userSpaceOnUse" x1="486.3439" y1="364.4518" x2="516.0233" y2="173.656">
				<stop  offset="0" style="stop-color:#53D8FF"/>
				<stop  offset="1" style="stop-color:#3840F7"/>
			</linearGradient>
			<path class="st37" d="M450,417.8H504c4.2,0,7.2,4.5,5.7,8.8c-2.5,7.2-8.3,16.4-22.3,17.5c-12.6,1-28.4-6.7-40.3-14
				C441.6,426.8,443.8,417.8,450,417.8z"/>
			<linearGradient id="SVGID_15_" gradientUnits="userSpaceOnUse" x1="197.7201" y1="262.3963" x2="52.6136" y2="601.6057">
				<stop  offset="0" style="stop-color:#53D8FF"/>
				<stop  offset="1" style="stop-color:#3840F7"/>
			</linearGradient>
			<path class="st58" d="M105.8,444.1l9.4,1.7c3.1,0.6,5.4,3.3,5.4,6.5v22.3c0,3.6-2.9,6.6-6.6,6.6h-9.4L105.8,444.1z"/>
		</g>
		<g>
			<g>
				<path class="st128" d="M287,588.2c-29.1,0-52.8-23.7-52.8-52.8c0-29.1,23.7-52.8,52.8-52.8c29.1,0,52.8,23.7,52.8,52.8
					C339.9,564.5,316.1,588.2,287,588.2z M287,487.4c-26.4,0-48,21.5-48,48c0,26.4,21.5,48,48,48c26.4,0,48-21.5,48-48
					C335,508.9,313.5,487.4,287,487.4z"/>
			</g>
			<g>
				<g>
					<polygon class="st128" points="296,585.8 277.1,585.8 283.2,533.9 276.2,484.6 297.9,486 290.7,533.9 					"/>
				</g>
				<g>
					<polygon class="st128" points="247.7,568.3 238.3,551.9 286.2,531.2 325.5,500.6 335.1,520 290,537.7 					"/>
				</g>
				<g>
					<polygon class="st128" points="240.1,515.8 250.5,500 290.6,533.6 335.5,554.8 322.5,572.2 286.4,539.8 					"/>
				</g>
				<path class="st128" d="M269.3,535.3c0-9.7,7.9-17.6,17.6-17.6c9.7,0,17.6,7.9,17.6,17.6s-7.9,17.6-17.6,17.6
					C277.2,552.9,269.3,545,269.3,535.3z"/>
			</g>
		</g>
		<g>
			<g>
				<path class="st128" d="M683,592.3c-29.1,0-52.8-23.7-52.8-52.8c0-29.1,23.7-52.8,52.8-52.8c29.1,0,52.8,23.7,52.8,52.8
					C735.9,568.6,712.2,592.3,683,592.3z M683,491.5c-26.4,0-48,21.5-48,48c0,26.4,21.5,48,48,48c26.4,0,48-21.5,48-48
					C731,513,709.5,491.5,683,491.5z"/>
			</g>
			<g>
				<g>
					<polygon class="st128" points="692.1,589.9 673.1,589.9 679.2,538 672.3,488.8 693.9,490.1 686.7,538 					"/>
				</g>
				<g>
					<polygon class="st128" points="643.8,572.4 634.3,556 682.3,535.3 721.5,504.7 731.1,524.1 686,541.8 					"/>
				</g>
				<g>
					<polygon class="st128" points="636.2,519.9 646.6,504.1 686.6,537.7 731.6,559 718.6,576.3 682.5,543.9 					"/>
				</g>
				<path class="st128" d="M665.3,539.4c0-9.7,7.9-17.6,17.6-17.6c9.7,0,17.6,7.9,17.6,17.6s-7.9,17.6-17.6,17.6
					C673.2,557,665.3,549.1,665.3,539.4z"/>
			</g>
		</g>
	</g>
	<g>
		<ellipse class="st48" cx="515.9" cy="648" rx="144.8" ry="27"/>
		<g>
			<g>
				<path class="st32" d="M738,319.1c0,0,3.8-10,8.3-9.1c4.4,0.9,9.3,4.3,9.3,4.3l7.1,9.7c0,0-20,7.9-27.1,3.4
					c0,0-20.5,3.5-46.3-0.7c3.7-7.9,6-15.8,7.3-22C709.7,312.1,723.8,317.6,738,319.1z"/>
				
					<linearGradient id="SVGID_16_" gradientUnits="userSpaceOnUse" x1="-1789.8383" y1="339.1945" x2="-1628.9578" y2="-1.762" gradientTransform="matrix(-1 0 0 1 -1109.8923 0)">
					<stop  offset="0" style="stop-color:#FF4F93"/>
					<stop  offset="1" style="stop-color:#EA99B8"/>
				</linearGradient>
				<path class="st59" d="M629.6,246.4c0,0,29.3,36.9,67,58.3c-1.3,6.1-3.5,14.1-7.3,22c-19.6-3.2-42.2-10.9-61.4-27.9L629.6,246.4z
					"/>
			</g>
			
				<linearGradient id="SVGID_17_" gradientUnits="userSpaceOnUse" x1="-1693.6425" y1="290.6628" x2="-1554.7006" y2="592.3126" gradientTransform="matrix(-1 0 0 1 -1109.8923 0)">
				<stop  offset="0" style="stop-color:#FF4F93"/>
				<stop  offset="1" style="stop-color:#EA99B8"/>
			</linearGradient>
			<path class="st60" d="M593,410.1c5.7-27.2,11.5-43,30.7-94.6c6-16.2,11.5-32.7,8.9-49.8l-3-19.2c0,0-37.3-12.6-78.7-0.5
				c0,0-56.4,24.5-18.1,145.6C550.1,410.8,570.3,416.3,593,410.1z"/>
			<path class="st32" d="M623.2,221.9l-9.7,23.2c-0.6,1.5-1.9,2.5-3.5,2.8c-5.6,1-19.1,2.5-27.9-3.4c-1.1-0.7-1.3-2.1-0.6-3.2
				l17.9-25.7L623.2,221.9z"/>
			<g>
				<path class="st32" d="M613.2,186.3c0.4,0.4,17.1,33.3,17.1,33.3l-19,9.2l-20.5-28.8C590.9,199.9,606.4,179.9,613.2,186.3z"/>
				
					<linearGradient id="SVGID_18_" gradientUnits="userSpaceOnUse" x1="3569.0461" y1="5413.5991" x2="3619.6023" y2="5413.5991" gradientTransform="matrix(0.6854 -0.7281 0.7281 0.6854 -5792.5195 -886.5778)">
					<stop  offset="0" style="stop-color:#2B3582"/>
					<stop  offset="1" style="stop-color:#150E42"/>
				</linearGradient>
				<path class="st62" d="M599.5,203.4l9.5,15.8c0.1,0.2,0.3,0.5,0.5,0.6c1.1,1,5,4.1,8-0.1c2.5-3.5,4.9-6.8,7.5-8.1
					c1.5-0.8,3.3-0.2,4.1,1.3c1.6,3.1,4.6,9.4,6.5,15.4c0.5,1.5-0.3,3.1-1.8,3.7c-3.8,1.6-11.4,4.4-18.2,5.3
					c-1.1,0.2-2.2-0.3-2.9-1.2c-2.9-4-11.1-15.1-13.9-17.8c-2.6-2.6-7.4-1.6-9.5-1c-0.8,0.2-1.7,0.1-2.4-0.3
					c-2.2-1.3-6-4.6-2.5-10.1c0.9-1.4,0.4-3.2-0.9-4.1c-2.4-1.6-5.1-4.6-2.6-9.5c2.6-4.9,7.1-5.4,10.2-5c1.4,0.2,2.8-0.6,3.3-1.8
					c0.2-0.6,0.7-1.1,1.6-1.2c1.6-0.3,2.7-1.8,2.4-3.4c-0.5-2.8-0.1-6.4,4.3-8.9c8.2-4.5,15.4,2.8,17.2,9
					c1.8,6.2-7.3,10.6-13.1,11.3c-4.2,0.5-6.5,5.2-7.5,7.6C599,201.6,599,202.6,599.5,203.4z"/>
				
					<linearGradient id="SVGID_19_" gradientUnits="userSpaceOnUse" x1="3539.3821" y1="5444.4932" x2="3573.3289" y2="5409.6646" gradientTransform="matrix(0.6854 -0.7281 0.7281 0.6854 -5792.5195 -886.5778)">
					<stop  offset="0" style="stop-color:#F9B776"/>
					<stop  offset="1" style="stop-color:#F47960"/>
				</linearGradient>
				<path class="st63" d="M602.4,224.1c0,0-3.6-10.7-8.3-10.3c-4.7,0.4-8.3,5-2.6,10.3C598.7,230.6,602.4,224.1,602.4,224.1z"/>
			</g>
			<g>
				
					<linearGradient id="SVGID_20_" gradientUnits="userSpaceOnUse" x1="1713.1893" y1="652.6323" x2="1765.7861" y2="652.6323" gradientTransform="matrix(1 0 0 1 -1167.6094 0)">
					<stop  offset="0" style="stop-color:#53D8FF"/>
					<stop  offset="1" style="stop-color:#3840F7"/>
				</linearGradient>
				<path class="st64" d="M596.7,650.1c-9,0.8-24.6,2-37,2.6c-7.4,0.3-11.7-0.4-14.1-1.4c0,0.3,0,0.5,0,0.8c0.1,1.3,1.1,2.3,2.4,2.4
					c23.3,1.3,41.8,0.4,48.4,0c1.4-0.1,2.2-1.6,1.5-2.7C597.6,651.2,597.2,650.7,596.7,650.1z"/>
				<path class="st176" d="M559.7,652.7c12.3-0.5,28-1.8,37-2.6c-8.9-10.9-37-18.2-37-18.2h-7.9c-5.5,7.9-6.3,15.4-6.2,19.4
					C548,652.3,552.3,653,559.7,652.7z"/>
				
					<linearGradient id="SVGID_21_" gradientUnits="userSpaceOnUse" x1="1718.0452" y1="627.9323" x2="1732.8608" y2="627.9323" gradientTransform="matrix(1 0 0 1 -1167.6094 0)">
					<stop  offset="0" style="stop-color:#F9B776"/>
					<stop  offset="1" style="stop-color:#F47960"/>
				</linearGradient>
				<path class="st133" d="M550.4,618.9l0.7,14.7c0.1,1.6,1.3,2.9,2.9,3.2c1.6,0.2,3.7,0.3,6-0.5c1.4-0.5,2.4-1.6,2.7-3.1l2.6-14.3
					H550.4z"/>
			</g>
			<g>
				<g>
					
						<linearGradient id="SVGID_22_" gradientUnits="userSpaceOnUse" x1="1608.3331" y1="651.498" x2="1628.489" y2="651.498" gradientTransform="matrix(1 0 0 1 -1167.6094 0)">
						<stop  offset="0" style="stop-color:#53D8FF"/>
						<stop  offset="1" style="stop-color:#3840F7"/>
					</linearGradient>
					<path class="st134" d="M447.3,652.6c-3.9-0.5-5.7-2.6-6.4-4.7c0,0,0,0,0,0.1c-0.6,2.3,0.8,4.7,3.4,5.8c3.2,1.4,6.7,1.6,9.5,1.5
						c2.9-0.1,5.6-1.3,7.1-3.3l0,0C457.9,653.3,453.8,653.5,447.3,652.6z"/>
					<path class="st176" d="M465.7,618.8h-6.5c-10-0.2-16.2,20.8-18.3,29c0.7,2.2,2.5,4.2,6.4,4.7c6.5,0.9,10.6,0.7,13.6-0.7
						c5.4-7.1,8.1-17.5,9.3-23.5C471.7,621.4,465.7,618.8,465.7,618.8z"/>
				</g>
				
					<linearGradient id="SVGID_23_" gradientUnits="userSpaceOnUse" x1="1623.8575" y1="615.5817" x2="1641.5635" y2="615.5817" gradientTransform="matrix(1 0 0 1 -1167.6094 0)">
					<stop  offset="0" style="stop-color:#F9B776"/>
					<stop  offset="1" style="stop-color:#F47960"/>
				</linearGradient>
				<path class="st135" d="M460,605.2l-3.6,14.5c-0.4,1.8,0.4,3.6,2,4.4c2,1,4.9,2.1,7.5,1.8c1.2-0.1,2.3-1,2.7-2.2l5.3-15.2
					L460,605.2z"/>
			</g>
			
				<linearGradient id="SVGID_24_" gradientUnits="userSpaceOnUse" x1="-702.8932" y1="629.4868" x2="-432.7161" y2="255.9541" gradientTransform="matrix(1 0 0 1 1165.3906 0)">
				<stop  offset="0" style="stop-color:#2B3582"/>
				<stop  offset="1" style="stop-color:#150E42"/>
			</linearGradient>
			<path class="st140" d="M455.7,609.4c4.5,4,19.2,4.5,19.2,4.5c53-127.2,75.1-162.3,75.1-162.3c-7.7,48-1.6,171.3-1.6,171.3
				c8.7,3.9,20,0,20,0c0.7-78.6,11.8-163.1,26.1-217.2c-35.8-0.8-55.3-8.6-61.5-13.5C503.1,440.4,455.7,609.4,455.7,609.4z"/>
			
				<linearGradient id="SVGID_25_" gradientUnits="userSpaceOnUse" x1="-3699.3464" y1="-537.7593" x2="-3776.5535" y2="-499.3532" gradientTransform="matrix(-0.4463 -0.8949 -0.8949 0.4463 -1577.2467 -2701.1455)">
				<stop  offset="0" style="stop-color:#53D8FF"/>
				<stop  offset="1" style="stop-color:#3840F7"/>
			</linearGradient>
			<path class="st141" d="M568.2,373c1.2,0.3,2.2,1,2.6,2l6.4,14.4c0.9,1.9-0.2,4.3-2.3,5.3l-32.6,16.1c-1.1,0.6-2.4,0.7-3.5,0.3
				c-1.1-0.4-1.9-1.2-2.3-2.2l-3.8-10.8c-0.6-1.7,0.2-3.6,1.9-4.7l30-19.6C565.7,373,567,372.8,568.2,373z"/>
			
				<linearGradient id="SVGID_26_" gradientUnits="userSpaceOnUse" x1="-1659.7789" y1="275.0652" x2="-1520.8369" y2="576.7153" gradientTransform="matrix(-1 0 0 1 -1109.8923 0)">
				<stop  offset="0" style="stop-color:#FF4F93"/>
				<stop  offset="1" style="stop-color:#EA99B8"/>
			</linearGradient>
			<path class="st142" d="M512.8,343.7c-7-52.7,33.6-93.2,33.6-93.2l24.2,28.2c-18.3,22.9-27.1,43.8-31,60.3
				C534.2,337.4,521.5,335,512.8,343.7z"/>
			
				<linearGradient id="SVGID_27_" gradientUnits="userSpaceOnUse" x1="-1600.4525" y1="96.9613" x2="-1707.2168" y2="447.7586" gradientTransform="matrix(-1 0 0 1 -1109.8923 0)">
				<stop  offset="0" style="stop-color:#FF4F93"/>
				<stop  offset="1" style="stop-color:#EA99B8"/>
			</linearGradient>
			<path class="st143" d="M539.5,340.4c0.7,0,1.3-0.5,1.5-1.1c4.9-20.3,15.3-40.4,30.8-59.7c0.5-0.6,0.4-1.6-0.2-2.1
				c-0.6-0.5-1.6-0.4-2.1,0.2c-15.8,19.7-26.3,40.1-31.3,60.9c-0.2,0.8,0.3,1.6,1.1,1.8C539.3,340.4,539.4,340.4,539.5,340.4z"/>
			<path class="st32" d="M539.2,340.4c-3.7,15.3-3,27.2-2.4,32.7c0.2,2.1,1.9,3.7,3.9,3.8c2.3,0.2,5.5,0.4,8.4,0.5
				c3.1,0.2,6.6-1.8,8.9-3.4c1.2-0.8,2.7,0.5,2.1,1.8c-1.7,3.4-6.1,6.4-9.2,8.2c-1.1,0.6-0.9,2.3,0.3,2.6l8.3,2.4
				c0.9,0.3,1.6,1,1.8,2c0.2,1-0.2,1.9-1,2.5c-19.1,14.2-31.5-5.6-31.5-5.6c-9.4-14.5-14.3-30.7-16-44.1
				C521.6,333,533.9,338.8,539.2,340.4z"/>
		</g>
	</g>
	<g>
		<ellipse class="st48" cx="995.1" cy="651.5" rx="123.6" ry="23.5"/>
		<g>
			<g>
				<g>
					<g>
						<path class="st11" d="M824.4,294.3l-8.2,5.9c-0.7,0.5-0.8,1.4-0.3,2l2.1,3c0.5,0.7,1.4,0.8,2,0.3l8.2-5.9
							c0.7-0.5,0.8-1.4,0.3-2l-2.1-3C826,294,825.1,293.9,824.4,294.3z M825.7,295.1c0.1-0.1,0.3-0.1,0.4,0.1l1.9,2.6
							c0.1,0.1,0.1,0.3-0.1,0.4s-0.3,0.1-0.4-0.1l-1.9-2.6C825.5,295.4,825.5,295.2,825.7,295.1z"/>
						
							<ellipse transform="matrix(0.8127 -0.5827 0.5827 0.8127 -21.3239 534.903)" class="st21" cx="821.3" cy="300.6" rx="4.1" ry="2.1"/>
						<g>
							<g>
								<path class="st11" d="M820.5,299.1c-0.1-0.1,0-0.2,0-0.2c1.5-1,3.1-1.1,3.6-0.4c0.6,0.8-0.1,2.2-1.5,3.3
									c-0.1,0.1-0.2,0-0.2,0L820.5,299.1z"/>
								<path class="st11" d="M822.1,302.1c0.1,0.1,0,0.2,0,0.2c-1.5,1-3.1,1.1-3.6,0.4c-0.6-0.8,0.1-2.2,1.5-3.3
									c0.1-0.1,0.2,0,0.2,0L822.1,302.1z"/>
							</g>
						</g>
						<path class="st23" d="M819.7,301.1l-0.7,0.5l0.6,0.8l0.7-0.5l0-0.1l0.2-0.1c0.2-0.1,0.2-0.4,0.1-0.6c-0.1-0.2-0.4-0.2-0.6-0.1
							L819.7,301.1L819.7,301.1z M820.2,301.8l-0.4-0.6l0.2-0.1c0.2-0.1,0.4-0.1,0.5,0.1c0.1,0.2,0.1,0.4-0.1,0.5L820.2,301.8z"/>
						<path class="st23" d="M823.1,298.8c0.1,0.2,0.1,0.5-0.1,0.6l-0.2,0.1l-0.1,0l0,0l0.5,0.7l-0.7,0.5l-0.6-0.8l0.7-0.5l0.1,0.1
							l0,0l0.1,0l0.2-0.1C823.1,299.2,823.2,299,823.1,298.8c-0.2-0.1-0.4-0.1-0.6,0l-0.3,0.2l-0.1-0.1l0.3-0.2
							C822.7,298.5,823,298.6,823.1,298.8z"/>
					</g>
					<g>
						<g>
							<polygon class="st24" points="827.7,305.3 828.5,305.6 829.4,305.8 827.5,311.9 826.4,312.6 825.8,311.4 825.9,311.2 
								826.2,311 826.1,310.6 826.1,310.4 826.5,310.2 826.3,309.9 826.3,309.7 826.7,309.5 826.5,309.2 826.8,308.3 827.1,308.1 
								827.4,307.2 827.3,307 827.5,306.9 827.5,306.9 827.4,306.7 827.6,306.6 827.4,306.3 							"/>
							<polygon class="st25" points="827.5,305.7 828.4,306 826.4,312.6 825.8,311.4 825.9,311.2 826.2,311 826.1,310.6 
								826.1,310.4 826.5,310.2 826.3,309.9 826.3,309.7 826.7,309.5 826.5,309.2 826.8,308.3 827.1,308.1 827.4,307.2 827.3,307 
								827.5,306.9 827.5,306.9 827.4,306.7 827.6,306.6 827.4,306.3 							"/>
						</g>
						<path class="st11" d="M825.7,300.4c-0.1,1.2-0.1,3,1.3,4.5c0.3,0.3,0.7,0.6,1.2,0.7l0.3,0.1l0.3,0.1c0.4,0.1,0.9,0.2,1.4,0.1
							c2-0.5,3-1.9,3.6-3c0.6-1.1-0.5-2-1.4-2.6c-1.2-0.8-2.7-1.2-4.2-1.2c-0.3,0-0.6,0-0.9,0.1
							C826.5,299.2,825.8,299.6,825.7,300.4z M828.2,299.4c0.5,0,1.2,0,2.1,0.3c0.9,0.3,1.5,0.7,1.9,1c0.1,0.1,0,0.3-0.1,0.3l-2-0.6
							l-2-0.6C828,299.6,828,299.4,828.2,299.4z"/>
					</g>
					<path class="st26" d="M827.5,294.5c1.2-1.4,3.3-1.6,4.6-0.4c1.4,1.2,1.6,3.3,0.4,4.6c-1.2,1.4-3.3,1.6-4.6,0.4
						C826.5,298,826.3,295.9,827.5,294.5z M827.8,294.8c-1,1.2-0.9,3,0.3,4.1s3,0.9,4.1-0.3c1-1.2,0.9-3-0.3-4.1
						S828.8,293.6,827.8,294.8z"/>
					<path class="st11" d="M831.6,299.8c0,0-0.6-0.3-1.1-0.5l-0.8,0.2c0,0,0.8,0.2,1.3,0.4C831.4,300.1,831.6,299.8,831.6,299.8z"/>
					<path class="st11" d="M827.4,296l-0.7-1l-0.4,0.5c0,0,1.1,1.5,1,1.4C827.3,296.9,827.4,296,827.4,296z"/>
				</g>
				
					<linearGradient id="SVGID_28_" gradientUnits="userSpaceOnUse" x1="-1899.4421" y1="288.6829" x2="-1885.1801" y2="288.6829" gradientTransform="matrix(-1 0 0 1 -1055.8505 0)">
					<stop  offset="0" style="stop-color:#53D8FF"/>
					<stop  offset="1" style="stop-color:#3840F7"/>
				</linearGradient>
				<path class="st144" d="M836.9,280.9c2.2-1.3,7.1,4.6,6.7,6.9c-0.4,2.4-7.2,2.2-8.8,4c-0.7,0.7,0.2,3.1-0.4,3.9
					c-0.7,0.8-3.3,1.5-4.5,0.1c-0.8-0.9-1.1-3.2,1.5-4.4c0.3-0.2,1.2,0.1,1.3-0.2C834.2,286.6,836,283.5,836.9,280.9"/>
			</g>
			<g>
				<path class="st28" d="M1027.9,658l19.8,0c0,0,0,0,0.1,0c1.7-0.9,3.3-2.2,4.3-3.9c3.1-4.8,11.5-8.2,12.9-12.6
					c1.5-5.2-6.4-12.5-6.4-12.5l-1.3-1.7l-3.6-9.3l-13.1,3.1c0,0-0.3,3.1-0.5,7.1c-0.1,2.9-0.2,6.2,0,9.1c0.4,6.9-1.9,14.4-8.1,15.7
					C1027.3,653.9,1027.5,656.6,1027.9,658z"/>
				<path class="st28" d="M913.2,658.1l45.2-0.1c2.2-2.6,1.4-12.4,1-15.6c-0.1-0.6-0.1-1-0.1-1s-15.4-12.3-17.6-2.9
					c-0.1,0.3-0.1,0.6-0.2,0.9c-2.7,8.8-14.6,12.8-21.5,14C915.5,654.2,913.8,656.5,913.2,658.1z"/>
				
					<linearGradient id="SVGID_29_" gradientUnits="userSpaceOnUse" x1="-2042.7869" y1="522.7968" x2="-1977.3395" y2="522.7968" gradientTransform="matrix(-1 0 0 1 -1055.8505 0)">
					<stop  offset="0" style="stop-color:#231C62"/>
					<stop  offset="1" style="stop-color:#0E0D21"/>
				</linearGradient>
				<path class="st145" d="M921.5,406.8c0,0,2.4,29.1,5.2,64.1c3.8,47.6,8.4,106,8.9,117c0.8,19.2,3.9,50,3.9,50s7.3,7.3,22,4.2
					c0,0,13-43.9,16.7-90.3c0.1-0.8,0.1-1.5,0.2-2.3c3.4-47.3,8.7-146.8,8.7-146.8L921.5,406.8z"/>
				
					<linearGradient id="SVGID_30_" gradientUnits="userSpaceOnUse" x1="-2042.7869" y1="477.2455" x2="-1977.3395" y2="477.2455" gradientTransform="matrix(-1 0 0 1 -1055.8505 0)">
					<stop  offset="0" style="stop-color:#231C62"/>
					<stop  offset="1" style="stop-color:#0E0D21"/>
				</linearGradient>
				<path class="st146" d="M921.5,406.8c0,0,2.4,29.1,5.2,64.1l51.4,80.8c0.1-0.8,0.1-1.5,0.2-2.3c3.4-47.3,8.7-146.8,8.7-146.8
					L921.5,406.8z"/>
				
					<linearGradient id="SVGID_31_" gradientUnits="userSpaceOnUse" x1="-2113.8936" y1="513.6465" x2="-1988.0417" y2="513.6465" gradientTransform="matrix(-1 0 0 1 -1055.8505 0)">
					<stop  offset="0" style="stop-color:#231C62"/>
					<stop  offset="1" style="stop-color:#0E0D21"/>
				</linearGradient>
				<path class="st147" d="M932.2,410.3c0,0,42.4,105.4,70.2,155c27.8,49.5,40.1,70.9,40.1,70.9s14.1-2.3,15.5-6.6
					c0,0-12.5-107.3-31.2-130.6c-10.5-13.2-22.9-52.7-23.5-66.5c-0.6-13.8-3.8-41.2-3.8-41.2L932.2,410.3z"/>
			</g>
			<g>
				<path class="st32" d="M856.7,291.1c0.2-0.5-9-11.1-16.4-14.8c-2.4-1.2-5.4,0.1-6.7,1.3c-2.7,2.5-5.5,14.4-3.6,14.5
					c0.5,0,3.7-5.6,5.2-7.3c0.7-0.8,2.4-2.1,3.4-2.1c1.8,0,4.2,3.2,4.1,5c-0.2,2.3-7.4,3.2-6.7,5.2c0.6,1.8,4.9,0.4,6.7,0.7
					c2.1,0.3,7.2,5.6,7.2,5.6L856.7,291.1z"/>
				<linearGradient id="SVGID_32_" gradientUnits="userSpaceOnUse" x1="848.4431" y1="305.7653" x2="968.6024" y2="305.7653">
					<stop  offset="0" style="stop-color:#FFFFFF"/>
					<stop  offset="1" style="stop-color:#CCCCCC"/>
				</linearGradient>
				<path class="st148" d="M949.9,253.9c0,0-34.1,59.5-46.5,70.4l-45.5-33.7c0,0-6.6,2-9.5,8.6c0,0,27.7,56,54.9,58.4
					c27.2,2.3,65.3-67.3,65.3-67.3L949.9,253.9z"/>
			</g>
			<path class="st32" d="M942.5,256.5c16.5,5.2,45-8.9,45-8.9s-15.2-11.4-14.5-35l-12.7,10.3l-8.7,7c0,0,0,4.1,1,11.3
				c0.3,1.9,0.6,4,1,6.3C946.5,251.3,942.5,256.5,942.5,256.5z"/>
			<path class="st34" d="M951.7,229.8c0,0,0,4.1,1,11.3c9.6-1.7,20.5-17.1,20.5-17.1c-4.9-1.4-9.2-1.6-12.8-1.1L951.7,229.8z"/>
			<path class="st32" d="M946.6,229.4c0,0,27.3,4.5,29.8-12.5c2.5-17,7.8-27.8-9.5-31.4c-17.3-3.6-21.7,2.4-23.9,7.9
				C940.8,198.9,939.6,227.8,946.6,229.4z"/>
			
				<linearGradient id="SVGID_33_" gradientUnits="userSpaceOnUse" x1="-2058.6262" y1="326.5589" x2="-1974.9402" y2="326.5589" gradientTransform="matrix(-1 0 0 1 -1055.8505 0)">
				<stop  offset="0" style="stop-color:#FFFFFF"/>
				<stop  offset="1" style="stop-color:#CCCCCC"/>
			</linearGradient>
			<path class="st149" d="M919.7,409.2c0.5,0.4,1.1,0.7,1.7,0.7c6.2-0.1,24.3,3.3,39.6,1.7c12.9-1.3,24.3-5.1,36.5-10.6
				c1.6-0.7,5.4-2.7,5.3-4.5c-0.1-2-0.3-4.9-0.5-8.5c-0.9-12.6-2.4-34.3-1-59.3c0.3-4.7,0.4-9.3,0.4-13.8
				c0.1-33.9-6.7-63.7-20.3-73.8c-1.2-0.8-8.3,2.6-14.8,5.9c-6,3-12.1,3.3-17.8,2.2l-5.7,5c-6.9,6.4-14.5,15.2-17.8,28.4
				c-2.8,11.3-4.4,31.6-5.3,52.7c-0.4,9.6-0.7,19.2-0.8,28.3l0,0.3c-0.1,0.9-0.1,1.9-0.1,2.8C918.9,390.3,919.3,408.9,919.7,409.2z"
				/>
			<linearGradient id="SVGID_34_" gradientUnits="userSpaceOnUse" x1="975.7565" y1="339.7317" x2="1002.2623" y2="339.7317">
				<stop  offset="0" style="stop-color:#FFFFFF"/>
				<stop  offset="1" style="stop-color:#CCCCCC"/>
			</linearGradient>
			<path class="st150" d="M1002.3,388c-0.9-12.6-2.4-34.3-1-59.3c0.3-4.7,0.4-9.3,0.4-13.8c-5.7-13.6-10.3-23.5-10.3-23.5l-14.2,0
				C977.2,291.4,966.8,362.5,1002.3,388z"/>
			<path class="st12" d="M976.4,215.3c0,0-2.8-0.5-2.4-4.3c0.4-3.8,0.4-8.9-2.7-7.9c-3.1,0.9-3.3,3.4-4.6,2c-1.3-1.5-1.3-7.6-10.6-8
				c-9.3-0.4-13.1,2.8-17.4,0.9c-4.3-1.9-4.6-8.4-4.6-8.4s1.2,2.3,3.1,3.1c0,0-7.2-9.8,1.1-16.6c8.4-6.8,16.9-2.4,21.7-2.1
				c10.7,0.6,17.6,1.3,21.1,8.2C984.7,189.2,983.3,208.6,976.4,215.3z"/>
			<g>
				
					<linearGradient id="SVGID_35_" gradientUnits="userSpaceOnUse" x1="-2037.0209" y1="349.0245" x2="-2091.3489" y2="294.6965" gradientTransform="matrix(-1 0 0 1 -1055.8505 0)">
					<stop  offset="0" style="stop-color:#FFFFFF"/>
					<stop  offset="1" style="stop-color:#CCCCCC"/>
				</linearGradient>
				<path class="st151" d="M1037.1,393.7c-5.1,1-10.7,0.6-10.7,0.6s-15.3-46.8-17.2-51.1c-2-4.3-45.3-54.8-45.3-54.8l19.1-45.8
					c4.5,0.6,46.3,77.7,50.5,89.6c6.6,18.6,10.6,58.6,10.6,58.6S1041.1,392.9,1037.1,393.7z"/>
				<path class="st32" d="M1032.1,408c3-0.2,1.9,1.6,1.9,1.6s-7.3,1.9-2,2.8c6.7,1.1,9.9-1.8,9.9-1.8c2.7-7.8-0.2-18.6-0.2-18.6
					l-12.5,2.3c2.3,2.1,5.2,10.5,2.4,10.9C1028.6,405.6,1026.3,408.4,1032.1,408z"/>
			</g>
			<g>
				<g>
					<path class="st38" d="M1021.6,476.5L1082,466c7.8-1.4,13.1-8.9,11.8-16.7l-4.5-26c-1.4-7.9-8.9-13.2-16.8-11.8l-60.4,10.5
						c-7.8,1.4-13.1,8.9-11.8,16.7l4.5,26C1006.2,472.6,1013.7,477.9,1021.6,476.5z"/>
					<path class="st39" d="M1078.2,417.8L1078.2,417.8c-2.9-3.5-7.5-5.6-12.3-5.2l0,0c0,0,0,0,0,0c-0.5,0-0.9,0.1-1.4,0.2l-12,2.1
						l-1-5.6c-0.2-1.3-0.9-2.4-2-3.1c-1-0.7-2.3-1-3.6-0.8l-3.1,0.5l-12.6,2.2l-2.3,0.4c-2.6,0.5-4.4,2.9-3.9,5.5l1,5.6l-20.8,3.6
						c-7.9,1.4-13.2,8.9-11.9,16.8l4.6,26.4c1.4,7.9,8.9,13.2,16.8,11.8l60.3-10.5c1.1-0.2,2.1-0.5,3-0.9l0,0c0,0,0,0,0,0
						c1.5-0.6,2.9-1.5,4.1-2.6c3.6-3.2,5.6-8.2,4.7-13.3l-4.6-26.4C1080.8,421.9,1079.7,419.6,1078.2,417.8z M1026.9,413.5
						c-0.1-0.8,0.3-1.5,1-1.9c0.2-0.1,0.3-0.1,0.5-0.2l2.7-0.5l9.9-1.7l5.4-0.9c1-0.2,1.9,0.5,2.1,1.5l1,5.6l-21.6,3.8L1026.9,413.5
						z"/>
				</g>
				<g>
					<polygon class="st40" points="1046.2,431.7 1046.9,435.7 1043.1,441.8 1036.9,442.9 1040.4,437.3 1027.5,439.6 1026.7,435.2 
											"/>
					<polygon points="1049.6,450.4 1050.3,454.8 1030.5,458.4 1029.8,454.4 1033.5,448.3 1039.7,447.2 1036.2,452.8 					"/>
				</g>
			</g>
			<g>
				<path class="st40" d="M951.3,288.1c0,1.1,0,2.3,0,3.4c-1.4,1.5-2.8,3-4.2,4.6c-1.8,0.1-3.6,0.3-5.4,0.4c1.3-1.5,2.6-3,3.9-4.5
					c-3.7,0.3-7.5,0.7-11.2,0.6c0-1.2,0.1-2.5,0.1-3.7C940.1,289,945.7,288,951.3,288.1z"/>
				<path d="M951.1,304.2c0,1.2,0,2.5,0,3.7c-5.8,0-11.6,1-17.5,0.9c0-1.1,0.1-2.3,0.1-3.4c1.4-1.5,2.8-3,4.2-4.5
					c1.8-0.1,3.6-0.2,5.4-0.4c-1.3,1.5-2.6,3-3.9,4.5C943.3,304.6,947.2,304.1,951.1,304.2z"/>
			</g>
		</g>
	</g>
</g>
</svg>
