<?xml version="1.0" encoding="utf-8"?>
<!-- Generator: Adobe Illustrator 23.0.5, SVG Export Plug-In . SVG Version: 6.00 Build 0)  -->
<svg version="1.1" id="Layer_1" xmlns="http://www.w3.org/2000/svg" xmlns:xlink="http://www.w3.org/1999/xlink" x="0px" y="0px"
	 viewBox="0 0 1199.8 674.9" style="enable-background:new 0 0 1199.8 674.9;" xml:space="preserve">
<style type="text/css">
	.st0{fill:#D5E7F7;}
	.st1{fill:#C4D9ED;}
	.st2{fill:#ADC9E0;}
	.st3{fill:#1C2948;}
	.st4{fill:#163560;}
	.st5{fill:#739AF0;}
	.st6{fill:url(#SVGID_1_);}
	.st7{fill:url(#SVGID_2_);}
	.st8{fill:#4A82D3;}
	.st9{fill:#2D3A62;}
	.st10{fill:#98BDF4;}
	.st11{fill:#2B478B;}
	.st12{fill:#233862;}
	.st13{fill:#AB7041;}
	.st14{fill:#9C5F33;}
	.st15{fill:url(#SVGID_3_);}
	.st16{fill:url(#SVGID_4_);}
	.st17{fill:url(#SVGID_5_);}
	.st18{fill:#6793E7;}
	.st19{fill:url(#SVGID_6_);}
	.st20{fill:#1F3341;}
	.st21{fill:#2D4454;}
	.st22{fill:#122633;}
	.st23{fill:#FFFFFF;}
	.st24{fill:#85878A;}
	.st25{fill:#555658;}
	.st26{fill:#808184;}
	.st27{fill:url(#SVGID_7_);}
	.st28{fill:#1A2E35;}
	.st29{fill:url(#SVGID_8_);}
	.st30{fill:url(#SVGID_9_);}
	.st31{fill:url(#SVGID_10_);}
	.st32{fill:#FFB27D;}
	.st33{fill:url(#SVGID_11_);}
	.st34{fill:#ED975D;}
	.st35{fill:url(#SVGID_12_);}
	.st36{fill:url(#SVGID_13_);}
	.st37{fill:url(#SVGID_14_);}
	.st38{fill:#466591;}
	.st39{fill:#5574A5;}
	.st40{fill:#66DB8E;}
	.st41{fill:#E9F4FF;}
	.st42{opacity:0.5;}
	.st43{fill:#A8CCFF;}
	.st44{fill:#FF912B;}
	.st45{fill:#1B294B;}
	.st46{fill:#145DEF;}
	.st47{fill:#2A3967;}
	.st48{fill:#D1E4FC;}
	.st49{fill:#25468F;}
	.st50{fill:#CDE3FF;}
	.st51{fill:#A5D2FF;}
	.st52{fill:#214D9A;}
	.st53{fill:#C8DFFD;}
	.st54{fill:#7798F8;}
	.st55{fill:#DAE6FF;}
	.st56{fill:#FFAE73;}
	.st57{fill:#1E3865;}
	.st58{fill:url(#SVGID_15_);}
	.st59{fill:url(#SVGID_16_);}
	.st60{fill:url(#SVGID_17_);}
	.st61{fill:#F9924F;}
	.st62{fill:url(#SVGID_18_);}
	.st63{fill:url(#SVGID_19_);}
	.st64{fill:url(#SVGID_20_);}
	.st65{fill:#2D3554;}
	.st66{opacity:0.4;}
	.st67{fill-rule:evenodd;clip-rule:evenodd;fill:#DEECFC;}
	.st68{fill-rule:evenodd;clip-rule:evenodd;fill:#455563;}
	.st69{fill-rule:evenodd;clip-rule:evenodd;fill:#566578;}
	.st70{fill-rule:evenodd;clip-rule:evenodd;fill:#AEC6CE;}
	.st71{fill-rule:evenodd;clip-rule:evenodd;fill:#91B1BD;}
	.st72{fill-rule:evenodd;clip-rule:evenodd;fill:#EAEEF0;}
	.st73{fill-rule:evenodd;clip-rule:evenodd;fill:#D3E1E7;}
	.st74{fill-rule:evenodd;clip-rule:evenodd;fill:#1483EF;}
	.st75{fill-rule:evenodd;clip-rule:evenodd;fill:#145DEF;}
	.st76{fill-rule:evenodd;clip-rule:evenodd;fill:#47A4AD;}
	.st77{fill-rule:evenodd;clip-rule:evenodd;fill:#EDE5D4;}
	.st78{fill-rule:evenodd;clip-rule:evenodd;fill:#FFFFFF;}
	.st79{fill-rule:evenodd;clip-rule:evenodd;fill:#C8DBE3;}
	.st80{fill-rule:evenodd;clip-rule:evenodd;fill:#145DC3;}
	.st81{fill-rule:evenodd;clip-rule:evenodd;fill:#D9D8D4;}
	.st82{fill-rule:evenodd;clip-rule:evenodd;fill:#E4EBED;}
	.st83{fill-rule:evenodd;clip-rule:evenodd;fill:#6EB7BF;}
	.st84{fill:#1483EF;}
	.st85{fill:#BACFE2;}
	.st86{fill-rule:evenodd;clip-rule:evenodd;fill:#EE9C94;}
	.st87{fill-rule:evenodd;clip-rule:evenodd;fill:#F9BCAF;}
	.st88{fill-rule:evenodd;clip-rule:evenodd;fill:#F6A399;}
	.st89{fill-rule:evenodd;clip-rule:evenodd;fill:#2F1210;}
	.st90{fill-rule:evenodd;clip-rule:evenodd;fill:#ED7660;}
	.st91{fill-rule:evenodd;clip-rule:evenodd;fill:#D33727;}
	.st92{fill-rule:evenodd;clip-rule:evenodd;fill:#A72423;}
	.st93{fill-rule:evenodd;clip-rule:evenodd;fill:#EEB51D;}
	.st94{fill-rule:evenodd;clip-rule:evenodd;fill:#E9938B;}
	.st95{fill-rule:evenodd;clip-rule:evenodd;fill:#2C6F9A;}
	.st96{fill-rule:evenodd;clip-rule:evenodd;fill:#3E7FA9;}
	.st97{fill-rule:evenodd;clip-rule:evenodd;fill:#59C6DB;}
	.st98{fill-rule:evenodd;clip-rule:evenodd;fill:#609DD4;}
	.st99{fill-rule:evenodd;clip-rule:evenodd;fill:#4685B9;}
	.st100{fill-rule:evenodd;clip-rule:evenodd;fill:#CCA440;}
	.st101{fill-rule:evenodd;clip-rule:evenodd;fill:#CC4B27;}
	.st102{fill-rule:evenodd;clip-rule:evenodd;fill:#F3763E;}
	.st103{fill-rule:evenodd;clip-rule:evenodd;fill:#E08077;}
	.st104{fill-rule:evenodd;clip-rule:evenodd;fill:#4F96D1;}
	.st105{fill-rule:evenodd;clip-rule:evenodd;fill:#DFB847;}
	.st106{fill-rule:evenodd;clip-rule:evenodd;fill:#CA2E27;}
	.st107{fill-rule:evenodd;clip-rule:evenodd;fill:#0B0E10;}
	.st108{fill-rule:evenodd;clip-rule:evenodd;fill:#5E5E5E;}
	.st109{fill-rule:evenodd;clip-rule:evenodd;fill:#1B2729;}
	.st110{fill-rule:evenodd;clip-rule:evenodd;fill:#232E30;}
	.st111{fill-rule:evenodd;clip-rule:evenodd;fill:#D4D2D1;}
	.st112{fill-rule:evenodd;clip-rule:evenodd;fill:#F3E8E7;}
	.st113{fill-rule:evenodd;clip-rule:evenodd;fill:#2B3A3A;}
	.st114{fill-rule:evenodd;clip-rule:evenodd;fill:#A29899;}
	.st115{fill:#331410;}
	.st116{fill:#ED7660;}
	.st117{fill-rule:evenodd;clip-rule:evenodd;fill:#3B150E;}
	.st118{fill-rule:evenodd;clip-rule:evenodd;fill:#543119;}
	.st119{fill-rule:evenodd;clip-rule:evenodd;fill:#2A2B2B;}
	.st120{opacity:0.1;}
	.st121{fill:#DFEDFF;}
	.st122{fill:#F6FBFF;}
	.st123{fill:#161616;}
	.st124{fill:#3F4040;}
	.st125{fill:#383838;}
	.st126{fill:#DAD9DA;}
	.st127{fill:#333333;}
	.st128{fill:#C7D5FD;}
	.st129{fill:#A2C1F4;}
	.st130{fill:#7B2718;}
	.st131{fill:#E5E5E4;}
	.st132{fill:#712418;}
	.st133{fill:url(#SVGID_21_);}
	.st134{fill:url(#SVGID_22_);}
	.st135{fill:url(#SVGID_23_);}
	.st136{fill:#FABFA4;}
	.st137{fill:#F4E5CD;}
	.st138{fill:#C78976;}
	.st139{fill:#2A2B2A;}
	.st140{fill:url(#SVGID_24_);}
	.st141{fill:url(#SVGID_25_);}
	.st142{fill:url(#SVGID_26_);}
	.st143{fill:url(#SVGID_27_);}
	.st144{fill:url(#SVGID_28_);}
	.st145{fill:url(#SVGID_29_);}
	.st146{fill:url(#SVGID_30_);}
	.st147{fill:url(#SVGID_31_);}
	.st148{fill:url(#SVGID_32_);}
	.st149{fill:url(#SVGID_33_);}
	.st150{fill:url(#SVGID_34_);}
	.st151{fill:url(#SVGID_35_);}
	.st152{fill:url(#SVGID_36_);}
	.st153{fill:#D4DEFD;}
	.st154{fill:#BCCEFD;}
	.st155{fill:#E1E8FD;}
	.st156{fill:url(#SVGID_37_);}
	.st157{fill:url(#SVGID_38_);}
	.st158{fill:url(#SVGID_39_);}
	.st159{opacity:0.25;fill:url(#SVGID_40_);}
	.st160{opacity:0.25;fill:url(#SVGID_41_);}
	.st161{fill:url(#SVGID_42_);}
	.st162{fill:url(#SVGID_43_);}
	.st163{fill:url(#SVGID_44_);}
	.st164{opacity:0.61;fill:url(#SVGID_45_);}
	.st165{fill:url(#SVGID_46_);}
	.st166{fill:url(#SVGID_47_);}
	.st167{opacity:0.61;fill:url(#SVGID_48_);}
	.st168{fill:url(#SVGID_49_);}
	.st169{fill:url(#SVGID_50_);}
	.st170{fill:url(#SVGID_51_);}
	.st171{fill:url(#SVGID_52_);}
	.st172{fill:url(#SVGID_53_);}
	.st173{fill:url(#SVGID_54_);}
	.st174{fill:url(#SVGID_55_);}
	.st175{fill:url(#SVGID_56_);}
	.st176{fill:#0C1D6D;}
	.st177{fill:url(#SVGID_57_);}
	.st178{fill:url(#SVGID_58_);}
	.st179{fill:url(#SVGID_59_);}
	.st180{fill:url(#SVGID_60_);}
	.st181{fill:url(#SVGID_61_);}
	.st182{fill:url(#SVGID_62_);}
	.st183{fill:url(#SVGID_63_);}
	.st184{fill:url(#SVGID_64_);}
	.st185{fill:url(#SVGID_65_);}
	.st186{fill:url(#SVGID_66_);}
	.st187{fill:url(#SVGID_67_);}
	.st188{fill:url(#SVGID_68_);}
	.st189{fill:url(#SVGID_69_);}
	.st190{fill:url(#SVGID_70_);}
	.st191{fill:url(#SVGID_71_);}
</style>
<g>
	<ellipse class="st67" cx="599.9" cy="597.6" rx="599.9" ry="77.3"/>
	<g>
		<g>
			<path class="st68" d="M333.7,387.5c53.5-1.6,77,37.3,77.1,102.6c0.1,65.4-43.4,106.8-88.6,102.6c-45.1-4.2-80.3-46-77.1-102.6
				C248.3,433.5,280.3,389.1,333.7,387.5L333.7,387.5z"/>
		</g>
		<g>
			<path class="st69" d="M356.8,400c27.7,0,49.6,32.3,53.6,75.5c0.3,4.7,0.4,9.7,0.5,14.7c0.1,56.2-32.3,100.1-69.8,101.8
				c-28.1-6.3-48.4-46.7-46.3-95.6C296.9,443.1,324.7,400,356.8,400L356.8,400z"/>
		</g>
		<g>
			<path class="st70" d="M357.2,411.9c26.2,0,50.7,35.2,45.1,86.8c-5.7,51.6-29.9,73.2-52.8,76.1c-22.9,3-46-35.1-44.2-78.4
				C307.1,453.1,331,411.9,357.2,411.9L357.2,411.9z"/>
		</g>
		<g>
			<path class="st71" d="M356.8,423.4c22.5,0,43.6,30.2,38.7,74.5c-4.9,44.3-25.7,62.8-45.3,65.4c-19.7,2.5-39.5-30.1-37.9-67.3
				C313.8,458.8,334.3,423.4,356.8,423.4L356.8,423.4z"/>
		</g>
		<g>
			<path class="st68" d="M809.9,387.5c53.5-1.6,77,37.3,77.1,102.6c0.1,65.4-43.4,106.8-88.6,102.6c-45.1-4.2-80.3-46-77.1-102.6
				C724.5,433.5,756.4,389.1,809.9,387.5L809.9,387.5z"/>
		</g>
		<g>
			<path class="st69" d="M833,400c27.7,0,49.6,32.3,53.6,75.5c0.3,4.7,0.4,9.7,0.5,14.7c0.1,56.2-32.3,100.1-69.8,101.8
				c-28.1-6.3-48.4-46.7-46.3-95.6C773.1,443.1,800.9,400,833,400L833,400z"/>
		</g>
		<g>
			<path class="st70" d="M833.4,411.9c26.2,0,50.7,35.2,45.1,86.8c-5.7,51.6-29.9,73.2-52.8,76.1c-22.9,3-46-35.1-44.2-78.4
				C783.3,453.1,807.2,411.9,833.4,411.9L833.4,411.9z"/>
		</g>
		<g>
			<path class="st71" d="M833,423.4c22.5,0,43.6,30.2,38.7,74.5c-4.9,44.3-25.7,62.8-45.3,65.4c-19.7,2.5-39.5-30.1-37.9-67.3
				C790,458.8,810.5,423.4,833,423.4L833,423.4z"/>
		</g>
		<g>
			<path class="st69" d="M413.6,545.6h609.3c27.5-4.1,107.7-8.3,135.2-12.4c33.3-131.2-55.7-166.9-118.3-200.7H384.1L214.6,533.3
				C263.3,543.5,347.1,545.6,413.6,545.6L413.6,545.6z"/>
		</g>
		<g>
			<path class="st68" d="M583.5,387.5c53.5-1.6,77,37.3,77.1,102.6c0.1,65.4-43.4,106.8-88.6,102.6c-45.1-4.2-80.3-46-77.1-102.6
				C498.1,433.5,530,389.1,583.5,387.5L583.5,387.5z"/>
		</g>
		<g>
			<path class="st69" d="M606.6,400c27.7,0,49.6,32.3,53.6,75.5c0.3,4.7,0.4,9.7,0.5,14.7c0.1,56.2-32.3,100.1-69.8,101.8
				c-28.1-6.3-48.4-46.7-46.3-95.6C546.7,443.1,574.5,400,606.6,400L606.6,400z"/>
		</g>
		<g>
			<path class="st72" d="M607,411.9c26.2,0,50.7,35.2,45.1,86.8c-5.7,51.6-29.9,73.2-52.8,76.1c-22.9,3-46-35.1-44.2-78.4
				C556.9,453.1,580.8,411.9,607,411.9L607,411.9z"/>
		</g>
		<g>
			<path class="st73" d="M607,411.9c15,0,29.5,11.3,38,30.6c2.5,11.2,3.3,24,1.7,38.1c-5.7,50.5-29.9,71.7-52.8,74.6
				c-13.8,1.7-27.6-11.1-36.1-30.8c-2.2-9.3-3.2-19.3-2.8-29.7C556.9,452.3,580.8,411.9,607,411.9L607,411.9z"/>
		</g>
		<g>
			<path class="st70" d="M595.8,529.3c-0.9,9.8-1,21.7-2.1,30.8c6.3-0.1,12.4-2.7,17.8-7.6c-0.3-8.2-6.1-17.5-12.6-24.4
				c-0.5-0.5-1.2-0.7-1.9-0.4C596.3,528,595.9,528.6,595.8,529.3L595.8,529.3z"/>
		</g>
		<g>
			<path class="st70" d="M610,509.8c0.3,3.2,8.2,17,12.4,21.3c0.4,0.5,1,0.6,1.6,0.5c0.6-0.1,1.1-0.5,1.3-1.2
				c2.2-5.8,4-12.3,5.4-19.7c0.2-0.9-0.3-1.8-1.1-2.2c-7.2-3.1-13.7-3.1-18.5-0.7C610.4,508.3,610,509,610,509.8L610,509.8z"/>
		</g>
		<g>
			<path class="st70" d="M613.2,487.1c6.7,1,13.5,1.8,19.9,3.5c0.4-9.2-0.3-17.6-1.9-25.2C621.5,473.8,614,481.5,613.2,487.1
				L613.2,487.1z"/>
		</g>
		<g>
			<path class="st70" d="M606.7,431.2l-3,26.3c-0.1,0.7,0.2,1.3,0.7,1.8c0.5,0.4,1.1,0.5,1.7,0.3c5.9-2.4,11.3-7.5,16.4-14.2
				c0.5-0.7,0.5-1.6,0.1-2.3c-3.8-6-8.3-10.6-13.2-13.3c-0.5-0.3-1.1-0.3-1.7,0C607.1,430,606.8,430.5,606.7,431.2L606.7,431.2z"/>
		</g>
		<g>
			<path class="st70" d="M571.3,448.8l14.4,13.6c5.7-0.9,11.1-31.9,4.9-33.2c-10.4-2.2-15.4,8.5-19.7,17.2
				C570.5,447.2,570.7,448.2,571.3,448.8L571.3,448.8z"/>
		</g>
		<g>
			<path class="st70" d="M565.6,467.5c4.3,5.7,8.2,12.5,7.9,19.5c-0.4,7.8-7.7,11.4-13,15.1c-0.5,0.4-1.2,0.4-1.7,0.1
				c-0.6-0.3-0.9-0.8-1-1.5c-1.2-9.4,2.6-24.8,4.7-32.6c0.2-0.7,0.7-1.2,1.4-1.3C564.5,466.7,565.2,466.9,565.6,467.5L565.6,467.5z"
				/>
		</g>
		<g>
			<path class="st70" d="M572.5,548.5c7.7-11.2,9.6-18.9,6.4-33.5c-2.5-3.6-10.7,5.3-17,9.1c-0.7,0.4-1.1,1.3-0.8,2.2
				c2,8.2,4.9,15.6,8.5,22c0.3,0.6,0.8,0.9,1.5,0.9C571.5,549.3,572.1,549,572.5,548.5L572.5,548.5z"/>
		</g>
		<g>
			<path class="st71" d="M595.5,532.9c-0.6,9-0.8,19.3-1.8,27.2c1.1,0,2.2-0.1,3.3-0.3c2.9-1.3,5.8-3.1,8.4-5.6
				C605.2,547.2,600.9,539.4,595.5,532.9L595.5,532.9z"/>
		</g>
		<g>
			<path class="st71" d="M610,509.8c0.2,2.8,6.2,13.4,10.5,19.1c1.7-4.9,3.1-10.4,4.2-16.4c0.2-0.9-0.3-1.8-1.1-2.2
				c-4.6-2-8.9-2.7-12.7-2.3C610.3,508.4,610,509.1,610,509.8L610,509.8z"/>
		</g>
		<g>
			<path class="st71" d="M613.2,487.1c4.7,0.7,9.4,1.3,14,2.2c0.1-6.8-0.4-13.1-1.4-19C618.8,476.8,613.8,482.6,613.2,487.1
				L613.2,487.1z"/>
		</g>
		<g>
			<path class="st71" d="M606.5,433.5l-2.8,24c-0.1,0.6,0.1,1.2,0.5,1.6c4.3-2.8,8.4-6.9,12.2-12.1c0.5-0.7,0.5-1.6,0.1-2.3
				C613.6,440,610.2,436.2,606.5,433.5L606.5,433.5z"/>
		</g>
		<g>
			<path class="st71" d="M571.3,448.8l11.9,11.2c4-8.6,6.3-28.1,1.4-29.1c-0.9-0.2-1.8-0.3-2.6-0.3c-5,3.1-8.2,9.9-11.1,15.7
				C570.5,447.2,570.7,448.2,571.3,448.8L571.3,448.8z"/>
		</g>
		<g>
			<path class="st71" d="M558,501.5c-0.1-0.2-0.2-0.5-0.3-0.8c-1-8.1,1.6-20.6,3.8-28.9c3.5,5.1,6.3,11,6,16.9
				C567.2,494.9,562.5,498.5,558,501.5L558,501.5z"/>
		</g>
		<g>
			<path class="st71" d="M572.4,516.3c-3.3,2.3-7.2,5.8-10.6,7.8c-0.7,0.4-1.1,1.3-0.8,2.2c1.9,7.5,4.5,14.5,7.7,20.5
				c5.8-9.5,7.1-17,4.2-30.1C572.7,516.6,572.6,516.4,572.4,516.3L572.4,516.3z"/>
		</g>
		<g>
			<path class="st70" d="M591.1,479.8l0.2,0c-2.6,1.8-4.4,6.4-4.4,11.9c0,6.9,2.9,12.5,6.6,12.7c-0.7,0.5-1.5,0.8-2.3,0.8
				c-3.7,0-6.7-5.7-6.7-12.7C584.4,485.5,587.4,479.8,591.1,479.8L591.1,479.8z"/>
		</g>
		<g>
			<path class="st70" d="M594.4,483.4c2.5,0,4.5,3.8,4.5,8.5c0,4.7-2,8.6-4.5,8.6s-4.5-3.8-4.5-8.6
				C589.9,487.2,591.9,483.4,594.4,483.4L594.4,483.4z"/>
		</g>
		<g>
			<path class="st68" d="M1063.4,387.5c53.5-1.6,77,37.3,77.1,102.6c0.1,65.4-43.4,106.8-88.6,102.6c-45.1-4.2-80.3-46-77.1-102.6
				C978,433.5,1010,389.1,1063.4,387.5L1063.4,387.5z"/>
		</g>
		<g>
			<path class="st69" d="M1086.5,400c27.7,0,49.6,32.3,53.6,75.5c0.3,4.7,0.4,9.7,0.5,14.7c0.1,56.2-32.3,100.1-69.8,101.8
				c-28.1-6.3-48.4-46.7-46.3-95.6C1026.6,443.1,1054.4,400,1086.5,400L1086.5,400z"/>
		</g>
		<g>
			<path class="st72" d="M1086.9,411.9c26.2,0,50.7,35.2,45.1,86.8c-5.7,51.6-29.9,73.2-52.8,76.1c-22.9,3-46-35.1-44.2-78.4
				C1036.8,453.1,1060.8,411.9,1086.9,411.9L1086.9,411.9z"/>
		</g>
		<g>
			<path class="st73" d="M1086.9,411.9c15,0,29.5,11.3,38,30.6c2.5,11.2,3.3,24,1.7,38.1c-5.7,50.5-29.9,71.7-52.8,74.6
				c-13.8,1.7-27.6-11.1-36.1-30.8c-2.2-9.3-3.2-19.3-2.8-29.7C1036.8,452.3,1060.8,411.9,1086.9,411.9L1086.9,411.9z"/>
		</g>
		<g>
			<path class="st70" d="M1075.7,529.3c-0.9,9.8-1,21.7-2.1,30.8c6.3-0.1,12.4-2.7,17.8-7.6c-0.3-8.2-6.1-17.5-12.6-24.4
				c-0.5-0.5-1.2-0.7-1.9-0.4C1076.2,528,1075.8,528.6,1075.7,529.3L1075.7,529.3z"/>
		</g>
		<g>
			<path class="st70" d="M1090,509.8c0.3,3.2,8.2,17,12.4,21.3c0.4,0.5,1,0.6,1.6,0.5c0.6-0.1,1.1-0.5,1.3-1.2
				c2.2-5.8,4-12.3,5.4-19.7c0.2-0.9-0.3-1.8-1.1-2.2c-7.2-3.1-13.7-3.1-18.5-0.7C1090.3,508.3,1089.9,509,1090,509.8L1090,509.8z"
				/>
		</g>
		<g>
			<path class="st70" d="M1093.1,487.1c6.7,1,13.5,1.8,19.9,3.5c0.4-9.2-0.3-17.6-1.9-25.2C1101.5,473.8,1093.9,481.5,1093.1,487.1
				L1093.1,487.1z"/>
		</g>
		<g>
			<path class="st70" d="M1086.6,431.2l-3,26.3c-0.1,0.7,0.2,1.3,0.7,1.8c0.5,0.4,1.1,0.5,1.7,0.3c5.9-2.4,11.3-7.5,16.4-14.2
				c0.5-0.7,0.5-1.6,0.1-2.3c-3.8-6-8.3-10.6-13.2-13.3c-0.5-0.3-1.1-0.3-1.7,0C1087.1,430,1086.7,430.5,1086.6,431.2L1086.6,431.2z
				"/>
		</g>
		<g>
			<path class="st70" d="M1051.3,448.8l14.4,13.6c5.7-0.9,11.1-31.9,4.9-33.2c-10.4-2.2-15.4,8.5-19.7,17.2
				C1050.4,447.2,1050.6,448.2,1051.3,448.8L1051.3,448.8z"/>
		</g>
		<g>
			<path class="st70" d="M1045.5,467.5c4.3,5.7,8.2,12.5,7.9,19.5c-0.4,7.8-7.7,11.4-13,15.1c-0.5,0.4-1.2,0.4-1.7,0.1
				c-0.6-0.3-0.9-0.8-1-1.5c-1.2-9.4,2.6-24.8,4.7-32.6c0.2-0.7,0.7-1.2,1.4-1.3C1044.4,466.7,1045.1,466.9,1045.5,467.5
				L1045.5,467.5z"/>
		</g>
		<g>
			<path class="st70" d="M1052.4,548.5c7.7-11.2,9.6-18.9,6.4-33.5c-2.5-3.6-10.7,5.3-17,9.1c-0.7,0.4-1.1,1.3-0.8,2.2
				c2,8.2,4.9,15.6,8.5,22c0.3,0.6,0.8,0.9,1.5,0.9C1051.5,549.3,1052,549,1052.4,548.5L1052.4,548.5z"/>
		</g>
		<g>
			<path class="st71" d="M1075.4,532.9c-0.6,9-0.8,19.3-1.8,27.2c1.1,0,2.2-0.1,3.3-0.3c2.9-1.3,5.8-3.1,8.4-5.6
				C1085.2,547.2,1080.8,539.4,1075.4,532.9L1075.4,532.9z"/>
		</g>
		<g>
			<path class="st71" d="M1090,509.8c0.2,2.8,6.2,13.4,10.5,19.1c1.7-4.9,3.1-10.4,4.2-16.4c0.2-0.9-0.3-1.8-1.1-2.2
				c-4.6-2-8.9-2.7-12.7-2.3C1090.2,508.4,1089.9,509.1,1090,509.8L1090,509.8z"/>
		</g>
		<g>
			<path class="st71" d="M1093.1,487.1c4.7,0.7,9.4,1.3,14,2.2c0.1-6.8-0.4-13.1-1.4-19C1098.8,476.8,1093.7,482.6,1093.1,487.1
				L1093.1,487.1z"/>
		</g>
		<g>
			<path class="st71" d="M1086.4,433.5l-2.8,24c-0.1,0.6,0.1,1.2,0.5,1.6c4.3-2.8,8.4-6.9,12.2-12.1c0.5-0.7,0.5-1.6,0.1-2.3
				C1093.5,440,1090.1,436.2,1086.4,433.5L1086.4,433.5z"/>
		</g>
		<g>
			<path class="st71" d="M1051.3,448.8l11.9,11.2c4-8.6,6.3-28.1,1.4-29.1c-0.9-0.2-1.8-0.3-2.6-0.3c-5,3.1-8.2,9.9-11.1,15.7
				C1050.4,447.2,1050.6,448.2,1051.3,448.8L1051.3,448.8z"/>
		</g>
		<g>
			<path class="st71" d="M1037.9,501.5c-0.1-0.2-0.2-0.5-0.3-0.8c-1-8.1,1.6-20.6,3.8-28.9c3.5,5.1,6.3,11,6,16.9
				C1047.1,494.9,1042.5,498.5,1037.9,501.5L1037.9,501.5z"/>
		</g>
		<g>
			<path class="st71" d="M1052.4,516.3c-3.3,2.3-7.2,5.8-10.6,7.8c-0.7,0.4-1.1,1.3-0.9,2.2c1.9,7.5,4.5,14.5,7.7,20.5
				c5.8-9.5,7.1-17,4.2-30.1C1052.6,516.6,1052.5,516.4,1052.4,516.3L1052.4,516.3z"/>
		</g>
		<g>
			<path class="st70" d="M1071,479.8l0.2,0c-2.6,1.8-4.4,6.4-4.4,11.9c0,6.9,2.9,12.5,6.6,12.7c-0.7,0.5-1.5,0.8-2.3,0.8
				c-3.7,0-6.7-5.7-6.7-12.7C1064.3,485.5,1067.3,479.8,1071,479.8L1071,479.8z"/>
		</g>
		<g>
			<path class="st70" d="M1074.3,483.4c2.5,0,4.5,3.8,4.5,8.5c0,4.7-2,8.6-4.5,8.6c-2.5,0-4.5-3.8-4.5-8.6
				C1069.8,487.2,1071.8,483.4,1074.3,483.4L1074.3,483.4z"/>
		</g>
		<g>
			<path class="st74" d="M166.7,407c14-53.3,58.4-72,126.9-91c46.6-12.9,99.8-21.2,171.3-25.4c99.6-5.8,205-4,275.8,10.9
				c-48.9,56.5-132.8-8.5-209.4,68.5c44.3,35.7-114.7,133.1-133.5,163.2H192.7C181.1,500.9,150.9,444.3,166.7,407L166.7,407z"/>
		</g>
		<g>
			<path class="st75" d="M310.4,422.1c91.4-122.7,306.3-102.2,395.2-107.9c-17.5-26.7-146.5-26.9-247.8-22.5
				c36.5-26.7,88.3-47.7,155.7-68.5c43.1-13.3,123.9-12.3,177.8-10.2c83.1,3.4,144,10,195.4,26.9c29.2,9.6,61.1,39.7,73.8,60.4
				c11.4,18.7,49.4,10.1,70.9,25.1c30.8,21.5,64.5,65.2,60.4,118.3c20.8,27.2-2.9,60.8-28.1,89.5c-7.6,0-3.8,0-11.4,0
				c21.8-233.4-164.4-178-153.9,0c-88.8,0-240.4,0-329.1,0c36.7-220.7-150.8-240.5-162.3,0l-117.5,0.1
				c-22.4-44.2,55.8-84.9,17.2-105.1c-12.3-6.5-34.8-10.9-78-12.7C328.6,415.5,319.5,418.5,310.4,422.1L310.4,422.1z"/>
		</g>
		<g>
			<path class="st76" d="M163.3,423.7c11.5-5.4,20.6-6.4,32.8-3.8c2-21.2-2.7-35.5-9.2-49.5C175.8,384.5,167.6,405.6,163.3,423.7
				L163.3,423.7z"/>
		</g>
		<g>
			<path class="st68" d="M199.3,428.3c19,5.7,49.8,5.9,86.1,0c15.2-15,41.2-38.9,67.7-54.4l-157.7-0.1
				C201,385.7,204.8,407.4,199.3,428.3L199.3,428.3z"/>
		</g>
		<g>
			<path class="st75" d="M190.8,363.1h201.4c50.1,0,88.3,7.4,91.2,12.6l-91.2-9.1H187.7C188.7,365.4,189.8,364.3,190.8,363.1
				L190.8,363.1z"/>
		</g>
		<g>
			<path class="st69" d="M359.1,491.1c-10.3,10-14.7,21.2-16.7,31.1h-154c-3.6-9.1-8-19.3-12.1-30.1L359.1,491.1L359.1,491.1z"/>
		</g>
		<g>
			<path class="st74" d="M180.4,521.7h210.8c4.3,0,7.9,2.6,7.9,5.8l0,0c0,3.2-3.6,5.8-7.9,5.8H180.4c-4.3,0-7.9-2.6-7.9-5.8l0,0
				C172.5,524.3,176.1,521.7,180.4,521.7L180.4,521.7z"/>
		</g>
		<g>
			<path class="st68" d="M322.6,494.6c5.2,0,10.2,5.7,11.4,12.6c1.1,7-2.1,12.6-7.3,12.6s-10.2-5.7-11.4-12.6
				C314.2,500.2,317.5,494.6,322.6,494.6L322.6,494.6z"/>
		</g>
		<g>
			<path class="st77" d="M331.8,517.4c-3.8-1.5-7-5.5-7.8-10.2c-0.8-4.7,1.2-8.6,4.5-10.2c2.7,2.3,4.8,6,5.4,10.2
				C334.6,511.4,333.7,515.1,331.8,517.4L331.8,517.4z"/>
		</g>
		<g>
			<path class="st74" d="M164.2,432.9h186.5c4.6,0,8.4,4.1,8.4,9V472c0,5-3.8,9-8.4,9H164.2c-4.6,0-8.4-4.1-8.4-9v-30.1
				C155.8,436.9,159.6,432.9,164.2,432.9L164.2,432.9z"/>
		</g>
		<g>
			<path class="st72" d="M198.5,440.9h106.7c4.1,0,7.4,3.6,7.4,8V473c0,4.4-3.3,8-7.4,8H198.5c-4.1,0-7.4-3.6-7.4-8v-24.1
				C191.1,444.5,194.4,440.9,198.5,440.9L198.5,440.9z"/>
		</g>
		<g>
			<path class="st78" d="M481.1,288.3c20.9-22.8,87.1-50.2,149.3-62.5c65.8-9.3,117.3-6.6,168.5,0c-31,23.8-61.9,47.5-92.9,71.3
				C631.8,280.6,541,281.9,481.1,288.3L481.1,288.3z"/>
		</g>
		<g>
			<path class="st79" d="M782.3,238.5L706,297.1c-73.3-16.2-162.8-15.2-222.7-9c35.7-18,93.8-35.9,149.2-45.2
				C689.3,236,737,235.6,782.3,238.5L782.3,238.5z"/>
		</g>
		<g>
			<path class="st80" d="M742.1,314.9c0.5-13.8,28.3-43.2,64.7-72.6c6-4.9,18.9-11.5,37.5-10.6c64.8,3.1,134.4,17.2,166.7,51.9
				c6.9,7.4,9.5,32,2.3,32.2C937.9,317.2,817.5,314.9,742.1,314.9L742.1,314.9z"/>
		</g>
		<g>
			<path class="st79" d="M742.1,314.9c0.5-13.7,27.9-43,64.1-72.1c4.7-3.8,13.5-8.7,26-10.2c2.3-0.1,4.8-0.2,7.4,0
				c64.1,3.1,132.9,17.1,164.9,51.5c6.4,6.9,9.1,28.9,3.5,31.7C933.2,317.1,815.8,314.9,742.1,314.9L742.1,314.9z"/>
		</g>
		<g>
			<polygon class="st80" points="322.5,439.9 510.2,439.9 510.2,443.3 322.5,443.3 322.5,439.9 			"/>
		</g>
		<g>
			<path class="st80" d="M318.8,476.6h181l-4.8,13.8c-71.2-10.9-115.3-7.6-176.2-10.4V476.6L318.8,476.6z"/>
		</g>
		<g>
			<path class="st74" d="M394.3,443.3H436c3.6,0,5.6,3.2,4.5,7l-5.4,19.2c-1.1,3.9-4.9,7-8.5,7H385c-3.6,0-5.6-3.2-4.5-7l5.4-19.2
				C386.9,446.5,390.7,443.3,394.3,443.3L394.3,443.3z"/>
		</g>
		<g>
			<path class="st69" d="M764.1,281l7,34c-9.7,0-19.4-0.1-29.1-0.1C742.4,307.4,750.7,295.2,764.1,281L764.1,281z"/>
		</g>
		<g>
			<path class="st69" d="M321.1,376.8c-23.3,17.6-42.6,34-52.3,50.5c-1.5,0.2-3,0.3-4.4,0.4c8.8-16.5,26.6-34,44.7-50.9L321.1,376.8
				L321.1,376.8z M203.4,426.2c1.3,0.3,2.7,0.5,4.1,0.8c3.8-22.3,3.8-33.8,1.8-50.2l-8.1,0C205.9,390.9,207.2,405.7,203.4,426.2
				L203.4,426.2z M213.2,427.8c1.4,0.2,2.9,0.3,4.4,0.5c5-22.1,8.3-34.6,10.5-51.5l-9.1,0C219.8,391.8,217.9,407.4,213.2,427.8
				L213.2,427.8z M223.1,428.7c1.5,0.1,3,0.2,4.6,0.2c6-21.5,12.6-34.9,19.1-52.1l-9.9,0C233.7,392.4,228.4,408.7,223.1,428.7
				L223.1,428.7z M233,429.1c1.5,0,3.1,0,4.7,0c7-20.6,16.8-34.8,27.6-52.3l-10.6,0C247.7,393,239.1,409.8,233,429.1L233,429.1z
				 M243.2,429c1.5,0,3.1-0.1,4.7-0.2c7.8-19.3,20.9-34.4,36.1-52l-11.2,0C261.8,393.4,250,410.6,243.2,429L243.2,429z M253.6,428.6
				c1.5-0.1,3.1-0.2,4.6-0.3c8.7-18,24.9-33.8,44.3-51.4l-11.7,0C276.2,393.7,261.3,411.1,253.6,428.6L253.6,428.6z M275.7,426.5
				c1.4-0.2,2.7-0.3,4.1-0.5c10.9-15.1,32.9-31.9,59.8-49.2l-12.3,0C306.3,393.6,285.9,411,275.7,426.5L275.7,426.5z"/>
		</g>
		<g>
			<path class="st77" d="M163.3,418c11.5-4.8,23.7-3.2,36-0.8c2-18.9-5.9-34.3-12.4-46.7C175.8,383,167.6,401.8,163.3,418L163.3,418
				z"/>
		</g>
		<g>
			<path class="st78" d="M195.4,391.3c1.2,6.7,1.7,14.3,1.1,22.1c-1.4,1.4-2.9,2.4-4.6,2.7c-1.5-0.2-2.9-0.4-4.4-0.6
				c-4.7-2.3-8.2-9.7-8.2-18.6c0-10.2,4.6-18.5,10.4-19.2C191.8,381.9,193.8,386.5,195.4,391.3L195.4,391.3z"/>
		</g>
		<g>
			<path class="st81" d="M190.6,383.3c0.6,0,1.3,0.1,1.9,0.4c1.1,2.5,2.1,5,2.9,7.7c0.8,4.5,1.3,9.4,1.3,14.4
				c-1.5,3-3.7,4.8-6.1,4.8c-4.4,0-8-6.1-8-13.7C182.6,389.4,186.2,383.3,190.6,383.3L190.6,383.3z"/>
		</g>
		<g>
			<path class="st75" d="M767.6,274.3c14.5,0,29,0,43.5,0c9.3,0,13.7,26.2,8.5,32.7c-1.2,1.5-2.9,1.7-4.8,2.1
				c-12.6,2.6-37.2,6.2-48.5,3.1c-16.2-4.5-12-20.8-3.8-34.9C763.8,275.3,765.6,274.3,767.6,274.3L767.6,274.3z"/>
		</g>
		<g>
			<path class="st74" d="M767.6,274.3c14.5,0,29,0,43.5,0c7.5,0,11.8,17,10.5,27c-17.1,2-38.5,3.5-49.8,1.1
				c-10.4-2.2-14.5-7.1-14.8-13.2c1.3-4,3.3-8.1,5.6-12C763.8,275.3,765.6,274.3,767.6,274.3L767.6,274.3z"/>
		</g>
		<g>
			<path class="st82" d="M873.9,238l19.4,75.1c-21.9-0.2-44.1-0.4-65.3-0.6l-17.2-66.6l1-0.8c4.4-3.5,12.6-8.1,24.2-9.5
				c2.2-0.1,4.5-0.2,6.9,0C853,236,863.5,236.8,873.9,238L873.9,238z"/>
		</g>
		<g>
			<path class="st82" d="M942.8,252.3l15.8,60.9c-15.6,0-32.1,0-48.9-0.1l-18.9-72.9C909.1,242.9,926.8,246.9,942.8,252.3
				L942.8,252.3z"/>
		</g>
		<g>
			<path class="st80" d="M956.2,253.9l15.4,62.3l-2.9,0l-15.7-63.5C954,253.1,955.1,253.5,956.2,253.9L956.2,253.9z"/>
		</g>
		<g>
			<path class="st77" d="M380.2,366.5c33.3,0.1,121.7,2.2,106.9,17.5c-18.1,18.7-36.2,37.8-58.1,39.3c-33.5,2.3-58.9-15-102.5-7.4
				C342.5,399.3,364.1,383.1,380.2,366.5L380.2,366.5z"/>
		</g>
		<g>
			<path class="st78" d="M397.9,377.6c6.2,0,11.3,8.6,11.3,19.3c0,10.7-5.1,19.3-11.3,19.3c-6.2,0-11.3-8.6-11.3-19.3
				C386.6,386.3,391.6,377.6,397.9,377.6L397.9,377.6z"/>
		</g>
		<g>
			<path class="st81" d="M397.9,383.3c4.4,0,8,6.1,8,13.7c0,7.5-3.6,13.7-8,13.7c-4.4,0-8-6.1-8-13.7
				C389.9,389.4,393.4,383.3,397.9,383.3L397.9,383.3z"/>
		</g>
		<g>
			<path class="st78" d="M429.5,374.4c7.1,0,12.9,9.9,12.9,22.1c0,12.2-5.8,22.1-12.9,22.1s-12.9-9.9-12.9-22.1
				C416.5,384.3,422.3,374.4,429.5,374.4L429.5,374.4z"/>
		</g>
		<g>
			<path class="st81" d="M429.5,385c3.7,0,6.8,5.2,6.8,11.5c0,6.4-3,11.5-6.8,11.5c-3.7,0-6.8-5.2-6.8-11.5
				C422.7,390.1,425.7,385,429.5,385L429.5,385z"/>
		</g>
		<g>
			<path class="st74" d="M398.9,359.8c39.3,0,70.8,3.5,94.4,10.6c60.4-25.9,139.2-28.3,216.2-33h431c-12.1-5.3-13.9-15-36.2-16
				c-146.1-1.1-285-2.1-431.1-3.2C551.9,322.9,458.6,336.1,398.9,359.8L398.9,359.8z"/>
		</g>
		<g>
			<polygon class="st74" points="315.3,443.3 503,443.3 503,446.8 321.2,459.2 315.3,443.3 			"/>
		</g>
		<g>
			<path class="st74" d="M1154,444.1h38.1c2.7,3.7,4.7,7.5,5.9,11.4l-40.4,4.5L1154,444.1L1154,444.1z"/>
		</g>
		<g>
			<polygon class="st83" points="988.7,524 682.3,523.4 682.3,519.9 977.7,493.3 988.7,524 			"/>
		</g>
		<g>
			<path class="st80" d="M742.1,314.9c3.2,16.3,9.8,44.2,7.4,66.6c-3.5,5.7,0.3-0.4-3.2,5.2c11.1,60,3.4,111.1-5.4,146.4
				c55.2,0,161.8,0,217.1,0c22.9-40.8,41.8-87.4,45.5-151.6c2.3-28.4-15.5-51.9-32.9-66L742.1,314.9L742.1,314.9z"/>
		</g>
		<g>
			<path class="st75" d="M744.9,315.5c3.1,16,9.6,43.4,7.2,65.4c-3.4,5.6,0.3-0.4-3.1,5.1c10.8,58.9,1.5,112.4-7,147.1
				c53.6,0,158.3,0,211.9,0c22.3-40,42.3-89.1,45.9-152.2c2.2-27.9-15.1-51-31.9-64.8L744.9,315.5L744.9,315.5z"/>
		</g>
		<g>
			<path class="st80" d="M660.6,380.5h382.6c-2.2,2.7-4.3,5.7-6.4,8.9c-138.7-3.6-318.7-3.4-376.2-5.4V380.5L660.6,380.5z"/>
		</g>
		<g>
			<path class="st80" d="M959.9,343.1h15.2c4.7,0,9.4,4.1,10.5,9.2l3,13.2c1.1,5-1.8,9.2-6.4,9.2h-15.2c-4.7,0-9.4-4.1-10.5-9.2
				l-3-13.2C952.3,347.2,955.2,343.1,959.9,343.1L959.9,343.1z"/>
		</g>
		<g>
			<path class="st83" d="M949.5,355.2h38.3c1,0,2.1,0.9,2.4,2l0.9,3.7c0.3,1.1-0.3,2-1.3,2h-38.3c-1,0-2.1-0.9-2.4-2l-0.9-3.7
				C947.9,356.1,948.5,355.2,949.5,355.2L949.5,355.2z"/>
		</g>
		<g>
			<path class="st74" d="M749.2,337.5h238.3c-4.3-6.4-9.4-12.1-14.5-17l-227.3-1.7C746.7,324.3,748,330.6,749.2,337.5L749.2,337.5z"
				/>
		</g>
		<g>
			<path class="st74" d="M959,524l-214.6-0.5c0.7-3,1.3-6.1,2-9.3l227.1-20.4C968.9,504.4,964,514.4,959,524L959,524z"/>
		</g>
		<g>
			<path class="st73" d="M201.2,443.9h100.7c3,0,5.6,1.8,6.6,4.4c-1.2-1-2.8-1.7-4.6-1.7H203.2c-3.9,0-7,3-7,6.7v20.2
				c0,0.8,0.2,1.6,0.4,2.3c-1.5-1.2-2.4-3.1-2.4-5.1v-20.2C194.2,447,197.3,443.9,201.2,443.9L201.2,443.9z"/>
		</g>
		<g>
			<path class="st69" d="M705.6,314.2c-135.7,0.4-270.2,15.7-325.4,48.9l-175.9,0c48.9-44.9,158.3-55.4,264.6-71
				C587.2,284.1,676.9,306.2,705.6,314.2L705.6,314.2z"/>
		</g>
		<g>
			<path class="st75" d="M223,119.1c62.5,32.5,179.6,121.6,234.8,172.6c53.5,2.6,111.3-6.2,219.2,16.1c9.1,1.9,18.7,4,28.5,6.4
				C590.7,212.9,450.3,123.8,397.9,118L223,119.1L223,119.1z"/>
		</g>
		<g>
			<path class="st80" d="M223,119.1c62.5,32.5,179.6,121.6,234.8,172.6c5.3,0.3,10.7,0.4,16.2,0.5c10.9-0.1,22.3-0.2,34.5-0.1
				c41.2-0.3,90.8,0.1,163.5,14.7c-106.9-97.8-236-182.4-287.2-188.8L223,119.1L223,119.1z"/>
		</g>
		<g>
			<path class="st84" d="M396.6,134.1c0.1-1.1,1-1.7,2-1.5c1,0.2,1.7,1.2,1.6,2.3l-21.7,223.4c-0.1,1.1-1,1.7-2,1.5
				c-1-0.2-1.7-1.2-1.7-2.3L396.6,134.1L396.6,134.1z"/>
		</g>
	</g>
	<g>
		<ellipse class="st85" cx="149.3" cy="614.7" rx="113.7" ry="21.3"/>
		<g>
			<g>
				<path class="st68" d="M161.1,518.4c4.2,0,8.9,5.8,10.7,13.1c1.7,7.2-0.2,13.1-4.4,13.1c-4.2,0-8.9-5.8-10.7-13.1
					C155,524.2,156.9,518.4,161.1,518.4L161.1,518.4z"/>
			</g>
			<g>
				<path class="st77" d="M171.2,542c-3.3-1.6-6.3-5.7-7.5-10.5c-1.2-4.8-0.1-8.9,2.4-10.5c2.4,2.4,4.6,6.2,5.6,10.5
					C172.8,535.8,172.5,539.6,171.2,542L171.2,542z"/>
			</g>
			<g>
				<path class="st86" d="M124.1,136.9c-2.8,4.6-0.6,11.3,4.8,15.1c5.5,3.8,12.1,3.1,14.9-1.5l7.9-13c2.8-4.6,0.6-11.3-4.8-15.1
					c-5.5-3.8-12.1-3.1-14.9,1.5L124.1,136.9L124.1,136.9z"/>
			</g>
			<g>
				<path class="st87" d="M214.7,107.6c-13.1,24.6-44,38.9-68.7,26.2c-24.7-12.7-32.2-46.7-20.6-72.1c11.6-25.4,29.1-49.5,53.8-36.8
					C203.8,37.6,244.8,51.1,214.7,107.6L214.7,107.6z"/>
			</g>
			<g>
				<path class="st88" d="M225.2,52.7c1,10.1-8.2,26.9-16.8,43.1c-13.1,24.6-43,42-67.1,28.2c-9.8-5.6-16.8-16.5-19.7-22.4
					c3.3,13.9,11.2,26.6,24,33.2c24.7,12.7,55.6-1.6,68.7-26.2C231.9,75.5,238.7,64.8,225.2,52.7L225.2,52.7z"/>
			</g>
			<g>
				<path class="st89" d="M132.2,40.3c0,0-23,31.5-9.9,65.2c3.2,2.7,14.5,19.3,37.1,18.3c7.1-3.1,18.3-9.8,25.3-18.7
					c12.3-8.7,16-5.3,21.5,3.5c1.5,2.4,6-5,10-6.4c11.6-4,15.1-8.2,22.3-24C225.5,19,151.6,22.5,132.2,40.3L132.2,40.3z"/>
			</g>
			<g>
				<path class="st88" d="M186.6,96.7c-3.3,5.2-2.2,12.3,2.7,15.8c4.8,3.5,15.1,6.7,18.5,1.4c3.3-5.2-1.6-16.9-6.4-20.4
					C196.5,90.1,189.9,91.5,186.6,96.7L186.6,96.7z"/>
			</g>
			<g>
				<path class="st90" d="M193.5,110.9c-0.6-0.1-1.2-0.3-1.7-0.6c-2.5-1.3-4.1-4.2-3.7-7.3c0.1-0.8,0.3-1.5,0.6-2.2
					c1.2-2.6,3.8-4.2,6.6-4c0.8,0.1,1.4,0.8,1.4,1.7c-0.1,0.9-0.8,1.5-1.6,1.5c-1.6-0.1-3,0.8-3.6,2.2c-0.2,0.4-0.3,0.8-0.3,1.2
					c-0.2,1.7,0.7,3.3,2.1,4c0.3,0.2,0.6,0.3,1,0.3c0.8,0.2,1.4,1,1.2,1.9C195.1,110.5,194.4,111.1,193.5,110.9L193.5,110.9z"/>
			</g>
			<g>
				<path class="st91" d="M219.6,88.7c101.9-5.6,44.3-42-18.3-44.5C202.7,61.1,218.1,71.7,219.6,88.7L219.6,88.7z"/>
			</g>
			<g>
				<path class="st92" d="M121.1,55.7c10.6,43.9,109.2,37.8,115.7,26.6C263.3,16.7,147.6-31.5,121.1,55.7L121.1,55.7z"/>
			</g>
			<g>
				<path class="st91" d="M123.6,48.4c31.1,39.1,80.1,20.6,114.1-1.6C222,4.6,148.1-13.1,123.6,48.4L123.6,48.4z"/>
			</g>
			<g>
				<path class="st93" d="M128.9,131.3c-14.3,0-25.8,5.6-25.8,12.5c0,6.9,11.6,12.5,25.8,12.5c14.3,0,25.8-5.6,25.8-12.5
					C154.8,136.9,143.2,131.3,128.9,131.3L128.9,131.3z"/>
			</g>
			<g>
				<path class="st94" d="M246.7,297.6c-0.9-4.9-12.2-9.4-14-10.2c-1.9-0.8-7.6,3.4-7.6,3.4s-3,0.8,10.3,4.6
					C243,297.6,247.5,302.3,246.7,297.6L246.7,297.6z"/>
			</g>
			<g>
				<path class="st94" d="M209.8,282.4c7.4,8.6,10.9,7.5,16.9,12.5c0.3-0.6,0.5-1.2,0.8-1.8c5.4-4.1,9.2-8.8,9.7-14.9
					c-4.2-2.8-6.9-3.1-10.2-7.7c0-1.6-0.5-10.8-1-10.4c-0.5,0.3-6.5-1.3-8.9,1c-2.3,2.2-5.1,4.1-7.9,3.7l-8.1,11.7L209.8,282.4
					L209.8,282.4z"/>
			</g>
			<g>
				<path class="st88" d="M242.4,262.4c0,0-2.6,4.5-12.5,4.1c-2,0-0.3-5.8-10.7-7.4c2.2-1,2.8-0.5,11.3,0.7
					C238.1,260.8,245.6,259.3,242.4,262.4L242.4,262.4z"/>
			</g>
			<g>
				<path class="st88" d="M244.5,300.2c-0.9-4.1-10.5-7.5-12.1-8.2c-1.6-0.7-6.9,3.3-6.9,3.3s1.1,0.9,9.4,3.4
					C241.4,300.3,245.4,304.1,244.5,300.2L244.5,300.2z"/>
			</g>
			<g>
				<path class="st94" d="M250.6,296.3c-0.2-4.8-11.4-11.2-13.2-12.4c-1.8-1.2-8.6,1.6-8.6,1.6s-3.3,0.2,10.1,6.4
					C246.7,295.5,250.7,300.8,250.6,296.3L250.6,296.3z"/>
			</g>
			<g>
				<path class="st94" d="M250.1,288.6c-0.6-4.7-12.3-10-14.3-11c-1.9-1-8.4,2.5-8.4,2.5s-3.2,0.5,10.7,5.3
					C246.2,288.2,250.7,293.1,250.1,288.6L250.1,288.6z"/>
			</g>
			<g>
				<path class="st95" d="M135.7,263c26.3,23.9,61.1,25.4,61.1,25.4l14.5-25c0,0-47.5-15.5-59.4-31.3c-11.9-15.8-22.6-36-20.7-48.8
					c0.8-5.7-38.1-4.8-38.1-4.8S90.6,222,135.7,263L135.7,263z"/>
			</g>
			<g>
				<path class="st95" d="M203.5,282.9l7.8-19.4c0,0-47.5-15.5-59.4-31.3c-11.9-15.8-22.6-36-20.7-48.8c0.4-2.9-9.4-4.1-19.2-4.6
					c2,15.3,10.2,45.4,42,74.3C170.5,268.2,190.7,277.8,203.5,282.9L203.5,282.9z"/>
			</g>
			<g>
				<path class="st96" d="M89.5,165.9c-3.6,9.6,2.1,19.2,3.3,34.5c1.2,15.3-1.7,59.9-1.7,59.9c-1.1,12.2,34.2,11.9,61.1,12.6
					c26.8,0.7,19.9-4.3,19.9-4.3s6-71.4,6-72.2c0.1-0.8,7-24.3,7-24.3c2-5.4-10.9-31-48.6-34.4C98.7,134.3,91,149.2,89.5,165.9
					L89.5,165.9z"/>
			</g>
			<g>
				<path class="st97" d="M172.1,560.8l-2.5,17.7c0,0-16.3,1.1-17-0.9c-0.7-2,1.8-20.3,1.8-20.3l14.7,3L172.1,560.8L172.1,560.8z"/>
			</g>
			<g>
				<path class="st97" d="M98.5,557.5l-2.4,18.2c0,0-16.5,1.1-16.9-0.9c-0.4-2,3.1-19.7,3.1-19.7L98.5,557.5L98.5,557.5z"/>
			</g>
			<g>
				<path class="st98" d="M74.8,570.7c0.1,21.5-11.7,26.5-5.7,44.7l89.3-0.7c1.2-5.9-1.8-12-4.8-14.6c-6.1-0.5-14-1-22.3-1.6
					c-15.4-3.3-15.7-15.4-26.6-24.8C94.7,572.7,84.8,571.7,74.8,570.7L74.8,570.7z"/>
			</g>
			<g>
				<path class="st99" d="M74.8,574c-0.9,16.5-8.9,22.6-7,35.6l46.7-23.9c-2.7-3.9-5.3-8.2-9.8-12L87,571.9L74.8,574L74.8,574z"/>
			</g>
			<g>
				<polygon class="st100" points="66,615.4 160.5,614.7 160.6,620.9 66,621.6 66,615.4 				"/>
			</g>
			<g>
				<path class="st94" d="M225.5,272.9c0.7-1.4,3-4.2,3.4-7.1c0.3-2.3,1.2-4-2.8-6.4c0,0-5.4-1.9-8.3,0.5
					C201.8,271.4,220.6,272.8,225.5,272.9L225.5,272.9z"/>
			</g>
			<g>
				<path class="st88" d="M213,271.9c-6.9,0-5.5,7.6-3.2,10.5c4.5,5.7,13.5,11.6,16.4,13.3c0.4-2,5.7-1.7,6.1-3.6
					C223.4,285.3,221.1,272,213,271.9L213,271.9z"/>
			</g>
			<g>
				<path class="st101" d="M187,302.2c0,0,8.5,32,6,128.9c-1.1,43.7-12.5,132.6-12.5,132.6l-33.6-1.1c0,0,7.9-49.7,10.5-100.7
					c2.7-52.9-2-107-3.5-108.1c-3-2.1-24.1,0-24.1,0s-1.3,47.5-6,95.9c-5.4,54.6-14.3,111-14.5,112.4c-0.5,2.7-35.1,0.5-35.1,0.5
					s10.6-54.5,15-114c4.7-63.9,3.3-133.3,3-144.3C91.8,283.1,145.4,239,187,302.2L187,302.2z"/>
			</g>
			<g>
				<path class="st102" d="M162,563.1l-15-0.5c0,0,7.9-49.7,10.5-100.7c2.7-52.9-2-107-3.5-108.1c-3-2.1-24.1,0-24.1,0
					s-1.3,47.5-6,95.9c-5.4,54.6-14.3,111-14.5,112.4c-0.5,2.7-35.1,0.5-35.1,0.5s10.6-54.5,15-114c4-53.9,3.8-85.2,3.4-108.6
					c-1.7-7.7-9.4-42.5,6.4-71.9c15-3.2,31.9-29.3,47.4,1.6c-8.6,48.2,18.5,69.3,20.5,82C183.6,429,170.9,495.3,162,563.1L162,563.1
					z"/>
			</g>
			<g>
				<path class="st101" d="M142,353.1L142,353.1L142,353.1L142,353.1L142,353.1z M137.1,353.3c-4.1,0.3-7.2,0.6-7.2,0.6
					s-1.3,47.5-6,95.9c-5.4,54.6-14.3,111-14.5,112.4c-0.3,1.5-11.3,1.5-20.9,1.2c16-59,27.4-126.9,31.5-209.1L137.1,353.3
					L137.1,353.3z"/>
			</g>
			<g>
				<path class="st94" d="M179.8,332.8c-1.4,0.3-4.7,1.8-7.4,1.3c-2.1-0.4-4,0-4.9-4.8c0,0-0.1-6.1,2.9-8.3
					C185.6,308.4,181.2,327.8,179.8,332.8L179.8,332.8z"/>
			</g>
			<g>
				<path class="st88" d="M165.3,346.7c0,0,4.8-1.2,7.5-11.4c0.6-2-5.1-2-3.4-13.1c-1.6,1.9-1.2,2.7-2.8,11.6
					C165.2,342,161.6,349.1,165.3,346.7L165.3,346.7z"/>
			</g>
			<g>
				<path class="st103" d="M175.5,369.1c0,0,3.9-11.1,5.2-12.8c1.3-1.6,10.9-3.4,10.9-3.4s2.9-0.7-7.1,8.8
					C178.7,367.3,175.6,373.8,175.5,369.1L175.5,369.1z"/>
			</g>
			<g>
				<path class="st88" d="M190.9,319.1c0,0,1.4,5.4,2.2,12.2c0.8,6.7,0.7,10,0.7,10s0.2,4.2,0.5,7.6c0.3,3.4-7.7,8-7.7,8
					s-13.2,6.5-15.2,7.5c-2,0.9-2.1-1.3-1.5-3.8c0.6-2.5,8.7-6.8,11.2-7.8c2.5-1-8.5,1.7-10.3,3.4c-1.8,1.7-2.8-3.8,1.9-6.6
					c4.7-2.8,10.1-6.1,10.1-6.1s-1.5-3.5-1.5-4.8c0-1.2-3.4-11.3-4.3-13.3c-4.7-7.9,0.1-11,0.2-16.5l7.9-7.3L190.9,319.1
					L190.9,319.1z"/>
			</g>
			<g>
				<path class="st104" d="M146,571.1c0.1,21.5-11.7,26.5-5.7,44.7l89.3-0.7c1.3-5.9-1.8-12-4.8-14.6c-6.1-0.5-14-1.1-22.3-1.6
					c-15.4-3.3-15.7-15.4-26.6-24.8C165.8,573.2,155.9,572.1,146,571.1L146,571.1z"/>
			</g>
			<g>
				<path class="st96" d="M145.9,574.4c-0.9,16.5-8.9,22.6-7,35.6l46.7-23.9c-2.7-3.9-5.3-8.2-9.8-12l-17.7-1.8L145.9,574.4
					L145.9,574.4z"/>
			</g>
			<g>
				<polygon class="st105" points="137.1,615.9 231.7,615.1 231.7,621.3 137.2,622.1 137.1,615.9 				"/>
			</g>
			<g>
				<path class="st106" d="M72.8,561.6c-0.1,1.7,1.2,3.2,2.8,3.3l34.1,2.2c1.6,0.1,3-1.3,3.1-3v0c0.1-1.7-1.2-3.2-2.8-3.3l-34.1-2.2
					C74.3,558.5,72.9,559.8,72.8,561.6L72.8,561.6L72.8,561.6z"/>
			</g>
			<g>
				<path class="st106" d="M144.5,559c-0.3,1.7,0.8,3.4,2.4,3.7l33.1,4.8c1.6,0.3,3.2-0.8,3.4-2.6l0,0c0.3-1.7-0.8-3.4-2.4-3.7
					l-33.1-4.8C146.3,556.1,144.8,557.3,144.5,559L144.5,559L144.5,559z"/>
			</g>
			<g>
				<polygon class="st93" points="209.5,259.8 196.8,288.4 203.2,291.6 215.9,263 209.5,259.8 				"/>
			</g>
			<g>
				<path class="st102" d="M110.5,181.9c6.9-0.3,13.9-0.6,20.8-0.9c-1.9,41.9,5.2,64.4,11.8,88.1c-14.7-0.3-29.3-0.6-44-0.8
					C99.3,244.6,100.3,219.8,110.5,181.9L110.5,181.9z"/>
			</g>
			<g>
				<path class="st102" d="M166.4,147c-14.4,7.3-26.9,18-35.2,36.4c-3.1,0-6.2,0-9.2,0.1c3.9-15.4,16.2-29.1,32.4-42.1
					C158.3,143.3,162.4,145.2,166.4,147L166.4,147z"/>
			</g>
			<g>
				<path class="st102" d="M103.5,141.7c-9.1,7.3,7.2,30.2,18.5,41.8c-3.1,0-6.6,2.6-9.7,2.7c-11.6-10.7-22.9-26.9-16.3-39.9
					L103.5,141.7L103.5,141.7z"/>
			</g>
			<g>
				<path class="st101" d="M178.1,204.3c2.2,28,1,56-2.5,84c-7.8-0.4-15.6-0.8-23.4-1.3C160.8,259.5,169.5,231.9,178.1,204.3
					L178.1,204.3z"/>
			</g>
			<g>
				<path class="st96" d="M139.8,257.3c5.7,36.3,26.5,66.6,26.5,66.6l21.7-13.5c0,0-16.7-45.4-16.2-65.6c0.5-20.2,9.8-55.4,13.4-70
					c1.6-13.7-31.3-3.3-31.3-3.3S134.8,189.1,139.8,257.3L139.8,257.3z"/>
			</g>
			<g>
				<path class="st95" d="M192,308.7c-4.5-7.6-20.6-45.9-20.2-64c0.5-20.2,9.8-55.4,13.4-70c1.1-9-15.3-18.6-30.3-5.3
					c-7.7,13.5-7.2,35.8-0.5,78.7c5.7,36.3,26.4,68,26.4,68L192,308.7L192,308.7z"/>
			</g>
			<g>
				<polygon class="st93" points="190.4,305.3 163.8,319.5 167,326.2 193.6,312.1 190.4,305.3 				"/>
			</g>
		</g>
	</g>
	<g>
		<ellipse class="st85" cx="742.7" cy="634" rx="131" ry="17"/>
		<g>
			<g>
				<path class="st88" d="M539.2,147.8c0,0,10.2,0.9,11.9,0.4c1.8-0.5,6.9-8.3,6.9-8.3c0,0,1.7-2.3-9.6,2.8
					C541.9,145.7,535.7,145.9,539.2,147.8L539.2,147.8z"/>
			</g>
			<g>
				<path class="st88" d="M584.1,153.6c0,0-3.7-3.3-8.6-6.6c-4.9-3.3-7.5-4.5-7.5-4.5s-3.2-1.8-5.7-3.4c-2.5-1.6-9.2,3.6-9.2,3.6
					s-10.2,9.1-11.7,10.5c-1.5,1.4,0.2,2.3,2.4,2.8c2.2,0.5,8.6-5,10.4-6.8c1.8-1.8-4.6,6.8-6.7,7.7c-2,1,1.8,3.9,5.8,0.9
					c4-3.1,8.7-6.5,8.7-6.5s2.2,2.7,3.1,3.1c1,0.5,7.5,7.3,8.7,8.9c4.3,7.2,8.6,4.1,12.9,6.2l8.7-4.1L584.1,153.6L584.1,153.6z"/>
			</g>
			<g>
				<path class="st88" d="M571.9,155.9c-0.8,1.1-3.2,3.4-3.9,6c-0.5,2-1.5,3.5,1.8,6.1c0,0,4.7,2.4,7.6,0.6
					C593.2,160.2,576.3,156.6,571.9,155.9L571.9,155.9z"/>
			</g>
			<g>
				<path class="st88" d="M555.5,163.2c0,0,2.8-3.7,11.8-2.1c1.8,0.2-0.4,5.3,8.9,8.1c-2.1,0.7-2.6,0.1-10.1-2
					C559.1,165.2,552.2,165.6,555.5,163.2L555.5,163.2z"/>
			</g>
			<g>
				<g>
					<path class="st107" d="M729.8,168.4c0,0-52.1,16.7-64.1,19.5c-0.4-1-10.7,32.1-5.7,34c15.3,5.9,55.1-1.3,69.4-6.7
						c3-9-7.9-16.3-7.8-16.5c0.1-0.8-1.4-23.7-1.4-23.7S723,171.5,729.8,168.4L729.8,168.4L729.8,168.4z"/>
				</g>
				<g>
					<path class="st108" d="M712.5,575l2.4,18.4c0,0,16.7,1.1,17.1-0.9c0.4-2-3.2-19.9-3.2-19.9L712.5,575L712.5,575z"/>
				</g>
				<g>
					<path class="st108" d="M785.3,575l2.4,18.4c0,0,16.7,1.1,17.1-0.9c0.4-2-3.2-19.9-3.2-19.9L785.3,575L785.3,575z"/>
				</g>
				<g>
					<path class="st109" d="M698.1,319.4c0,0-34,42.1-31.5,139.8c1.1,44.1,35.2,123.1,35.2,123.1l36.7-0.2c0,0-32-64.3-34.7-115.6
						c-2.7-53.3,22.2-93.9,23.7-95c3-2.1,28.1,0.1,28.1,0.1s1.3,47.9,6.1,96.7c5.4,55.1,14.4,111.9,14.7,113.3
						c0.5,2.7,35.4,0.5,35.4,0.5s-10.7-55-15.2-114.9c-4.8-64.4-3.3-134.4-3-145.5C794.1,300,698.1,319.4,698.1,319.4L698.1,319.4z"
						/>
				</g>
				<g>
					<path class="st107" d="M726.9,371.4c0.4-0.3,1.1-0.5,2-0.6c-7.4-0.4-16.5-0.6-18.3,0.6c-1.5,1.1-26.4,41.7-23.7,95
						c2.6,51.4,34.7,115.6,34.7,115.6h16.2c0,0-32-64.3-34.7-115.6C700.5,413,725.3,372.5,726.9,371.4L726.9,371.4z"/>
				</g>
				<g>
					<path class="st107" d="M797.6,476.5c-0.9-23.4-4.3-127-4.7-141.9l1-9.8l-95.8-5.4l-9.8,20.3l84.2,4.3
						c-0.4,32.5,0.3,84.1,2.5,105.6c3.5,34.7,21.2,133.2,21.2,133.2l15.7-0.9C811.8,581.9,798.6,501.7,797.6,476.5L797.6,476.5z"/>
				</g>
				<g>
					<path class="st110" d="M815.6,172.4c0,0-13.9,32.6-16.2,47.9c-2.3,15.3-3.8,103.9-3.8,103.9s-32.3,2.7-59.4,1.3
						c-27-1.3-41.2-6.4-41.2-6.4s21.2-122.4,21.2-123.2c0-0.8-5.1-23.1-5.1-23.1s10.4-18.3,48.5-18.8
						C797.9,153.4,816.3,171.6,815.6,172.4L815.6,172.4z"/>
				</g>
				<g>
					<path class="st111" d="M740.5,156.1l7.8,85.9l37.6-84.6c0,0-13-5.4-23.7-4.8C756.7,152.9,754,152.4,740.5,156.1L740.5,156.1z"
						/>
				</g>
				<g>
					<path class="st75" d="M748.4,242l-2.1-19.7l6.2-34c0,0,0.7,2,5.3,2c4.6,0,5.8-1.6,5.8-1.6l-2.1,24.4L748.4,242L748.4,242z"/>
				</g>
				<g>
					<path class="st110" d="M725.6,165c0,0-43.9,18.8-58.2,22.5c-2.7,9.6-5.5,23-2.4,24.1c17.6,3.2,42.9-3,57-8.4
						c1.8-0.7,3.3-1.9,4.6-3.5C730.4,186.4,725.6,165,725.6,165L725.6,165z"/>
				</g>
				<g>
					<path class="st107" d="M802.4,207.8c23.3,12.7,56.9,31.2,57.2,31.9c0.3,1,28-6.2,25.1-10.8c-9.3-14.4-54.8-51.8-71.1-59.4
						c-0.3-0.1-0.6-0.3-1-0.4c2.2,1.8,3.2,3,3,3.2C815.6,172.4,807.3,191.9,802.4,207.8L802.4,207.8z"/>
				</g>
				<g>
					<path class="st110" d="M884.6,228.8c-9.4-14.4-54.8-51.8-71.1-59.3c-3.6-1.7-7.6-0.7-11.5,1.8c-7.8,8-14,18.5-14,18.5
						s78.6,42.8,79,43.8C867.2,234.1,877.2,231.8,884.6,228.8L884.6,228.8z"/>
				</g>
				<g>
					<path class="st86" d="M771.9,167c-0.6,5.4-6.4,9.2-12.9,8.3l0,0c-6.5-0.8-11.3-5.9-10.7-11.4l1.8-15.5
						c0.6-5.4,6.4-9.2,12.9-8.4l0,0c6.5,0.8,11.3,5.9,10.7,11.4L771.9,167L771.9,167z"/>
				</g>
				<g>
					<path class="st75" d="M749.6,177.3l9.7-2.1l9.6,1.1l-5.4,12.4l-1.6,1.7c-2.3,2.4-6,2.3-8.1-0.3l-1.4-1.8L749.6,177.3
						L749.6,177.3z"/>
				</g>
				<g>
					<path class="st112" d="M759,175.3c0,0,12.2,15.4,12.7,19.1c0.5,3.8,13.7-37.1,13.7-37.1s-11.6-5.7-11.8-4.9
						C768.5,166.6,759,175.3,759,175.3L759,175.3z"/>
				</g>
				<g>
					<path class="st112" d="M759.3,175.2c0,0-14.3,9.6-15.4,13.2c-1.1,3.6-1.1-33.2-1.1-33.2s6.7-2.6,6.7-1.7
						C749.6,160.9,759.3,175.2,759.3,175.2L759.3,175.2z"/>
				</g>
				<g>
					<path class="st113" d="M749.6,239.4l46.6-63.6l-11.4-2.4c0,0,9-2.7,19.3-7.4c-6.5-4.4-22-10.2-22-10.2L749.6,239.4L749.6,239.4
						z"/>
				</g>
				<g>
					<polygon class="st113" points="747.9,241.8 725.4,173.8 736.7,171.4 722.7,164 742.4,155.4 747.9,241.8 					"/>
				</g>
				<g>
					<path class="st114" d="M751.1,258.4c0,1.9-1.4,3.4-3.2,3.4c-1.8,0-3.2-1.5-3.2-3.4c0-1.9,1.4-3.4,3.2-3.4
						C749.6,255,751.1,256.5,751.1,258.4L751.1,258.4z"/>
				</g>
				<g>
					<path class="st114" d="M748.8,276.9c0,1.9-1.4,3.4-3.2,3.4c-1.8,0-3.2-1.5-3.2-3.4c0-1.9,1.4-3.4,3.2-3.4
						C747.4,273.5,748.8,275,748.8,276.9L748.8,276.9z"/>
				</g>
				<g>
					<path class="st114" d="M747.3,296.3c0,1.9-1.4,3.4-3.2,3.4s-3.2-1.5-3.2-3.4c0-1.9,1.4-3.4,3.2-3.4S747.3,294.4,747.3,296.3
						L747.3,296.3z"/>
				</g>
				<g>
					<path class="st114" d="M745,314c0,1.9-1.4,3.4-3.2,3.4s-3.2-1.5-3.2-3.4c0-1.9,1.4-3.4,3.2-3.4S745,312.1,745,314L745,314z"/>
				</g>
				<g>
					<path class="st88" d="M826.8,98.7c0.9,6.3-3.1,12.2-8.9,13.1c-5.8,0.9-16.5-1-17.4-7.3c-0.9-6.3,8.4-14.6,14.2-15.5
						C820.5,88,825.9,92.4,826.8,98.7L826.8,98.7z"/>
				</g>
				<g>
					<path class="st87" d="M811.3,98.1c-1.8,28.4-23.9,55.9-51.5,55.9c-27.6,0-48.5-27.4-48.5-55.9c0-28.5,6-58.5,33.6-58.5
						C772.5,39.6,815.3,32.7,811.3,98.1L811.3,98.1z"/>
				</g>
				<g>
					<path class="st88" d="M798.1,43.3c5.1,8.7,3.7,28.2,2.5,47c-1.8,28.4-21.7,58.2-49.3,56.9c-11.2-0.5-22.1-7.1-27.2-11.1
						c8.7,11.1,21.2,18.9,35.5,18.9c27.6,0,49.8-27.4,51.5-55.8C813.6,60.9,815.4,48,798.1,43.3L798.1,43.3z"/>
				</g>
				<g>
					<path class="st115" d="M765.1,78.5c-0.5,0-1-0.2-1.4-0.6c-0.8-0.8-0.9-2.2-0.1-3.1c4.9-5.7,13.3-6.2,18.7-1
						c0.8,0.8,0.9,2.2,0.1,3.1c-0.8,0.8-2,0.9-2.9,0.1c-3.8-3.6-9.5-3.3-12.9,0.7C766.2,78.2,765.7,78.5,765.1,78.5z M725.7,77.4
						c-0.5,0-1-0.2-1.4-0.6c-0.8-0.8-0.8-2.2-0.1-3c5.1-5.7,13.6-6,18.9-0.6c0.8,0.8,0.8,2.2,0.1,3c-0.8,0.8-2.1,0.9-2.9,0.1
						c-3.7-3.7-9.5-3.4-13.1,0.5C726.7,77.2,726.2,77.4,725.7,77.4z"/>
				</g>
				<g>
					<path class="st116" d="M816.4,109.2c-0.7,0-1.3-0.1-2-0.3c-1.1-0.3-1.7-1.5-1.4-2.7c0.3-1.1,1.4-1.7,2.5-1.5
						c1.6,0.5,3.4-0.5,3.9-2.2c0.5-1.7-0.3-3.6-1.9-4.2c-1-0.4-1.6-1.7-1.1-2.8c0.4-1.1,1.6-1.6,2.6-1.2c3.6,1.5,5.5,5.7,4.3,9.6
						C822.3,107.1,819.5,109.2,816.4,109.2z"/>
				</g>
				<g>
					<path class="st116" d="M754.2,134.3c-3,0-5.9-0.6-8.3-1.7c-4.1-1.8-6.7-4.9-7.3-8.7c-0.2-1.2,0.5-2.3,1.6-2.5
						c1.1-0.1,2.2,0.6,2.4,1.7c0.4,2.3,2.1,4.2,4.9,5.5c3.1,1.4,6.9,1.7,10.8,0.9c1.2-0.1,2.2,0.6,2.4,1.7c0.2,1.2-0.5,2.3-1.6,2.5
						C757.3,134.1,755.7,134.3,754.2,134.3z"/>
				</g>
				<g>
					<path class="st117" d="M735.6,98.4c0,3.7-1.8,6.8-4.1,6.8c-2.3,0-4.1-3-4.1-6.8c0-3.7,1.8-6.7,4.1-6.7
						C733.8,91.6,735.6,94.6,735.6,98.4L735.6,98.4z"/>
				</g>
				<g>
					<path class="st78" d="M731.9,94.9c0,1.1-0.6,2-1.4,2c-0.8,0-1.4-0.9-1.4-2c0-1.1,0.6-2,1.4-2C731.2,92.9,731.9,93.8,731.9,94.9
						L731.9,94.9z"/>
				</g>
				<g>
					<path class="st117" d="M776,98.6c0,3.7-1.8,6.7-4.1,6.7c-2.3,0-4.1-3-4.1-6.7c0-3.7,1.8-6.8,4.1-6.8
						C774.2,91.8,776,94.8,776,98.6L776,98.6z"/>
				</g>
				<g>
					<path class="st78" d="M772.2,95.8c0,1.1-0.6,2-1.4,2c-0.8,0-1.4-0.9-1.4-2c0-1.1,0.6-2,1.4-2C771.6,93.7,772.2,94.6,772.2,95.8
						L772.2,95.8z"/>
				</g>
				<g>
					<path class="st116" d="M752.3,115.7c-0.3,0-0.7,0-1-0.1c-3.8-0.6-6.6-4.3-6.2-8.4c0.1-1.2,1-2.1,2.2-1.9
						c1.1,0.1,1.9,1.2,1.8,2.3c-0.2,1.8,1,3.4,2.7,3.7c0.9,0.2,1.9-0.1,2.6-0.8c0.8-0.8,2.1-0.8,2.9,0.1c0.8,0.9,0.7,2.2-0.1,3
						C755.9,115,754.1,115.7,752.3,115.7z"/>
				</g>
				<g>
					<path class="st89" d="M823.8,43.2c-1.9-9.9-10.3-16.9-19.8-16.7c-2.5,0.1-5.1,0.1-8-0.2c-0.4,0-0.9-0.1-1.3-0.1
						c-1.3-0.2-12.5-9.4-22.5-13.3c-2.3-0.9-2.5,5.1-4.8,4c-9.3-4.3-17.9-11.4-20.4-11.8c-5.1-0.9-6.5,12.5-9.1,11.5
						c-2.8-1.1-18.9-15.8-21.2-16.7c-3.7-1.4-4.4,13-4.1,29.2c0,1.6-3.9,3.2-3.8,4.8c0.6,18.5,4.5,39.1,4.5,39.1s5.4-27.1,24.1-22.8
						c8.8,2,20,9.1,33.9,5.8c7.2-1.7,15.9-4.2,21-3.8c6.7,0.6,12.1,5.5,14.2,12c0.5,1.5,0.9,3.1,0.9,4.7c0.5,8.8-3.1,21.1-3.5,27.8
						c-0.2,2.8,4.1,5.3,4.3,5.4c2.4,1.5,3.5-7.5,6.7-10.6c3.5-3.5,5.1-2,5.1-2s5.7-12.2,5.7-30.7C825.4,53.4,824.7,48,823.8,43.2
						L823.8,43.2z"/>
				</g>
				<g>
					<path class="st118" d="M717.2,3.1c0,0-0.3,10,4.5,20.9c7.2,16.1,25.7,22.7,37.3,20.9c49.6-7.5,51.7,13.9,51.5,23
						c-0.2,9.1-2.7,28.4-2.7,28.4s23.5-70.3-22-63.6C731.4,40.7,717.2,3.1,717.2,3.1L717.2,3.1z"/>
				</g>
				<g>
					<path class="st87" d="M810.9,293.8l-4.8,4.9c0,0-13.4,2.3-14.6,2.9c-1.2,0.5-18.3-19.1-18.3-19.1s5.9-4.9,14.9-7.9
						c6.4-2.1,13.2-0.2,18.1-0.1c6.4,0.1,8.8,12.4,9.2,13.5C816,288.9,810.3,293.1,810.9,293.8L810.9,293.8z"/>
				</g>
				<g>
					<path class="st107" d="M807.5,303l-10-34c0,0,39.8-11.7,50.7-23.5c14.7-15.9,11.6-29.6,11.6-29.6s30.1,2.9,29,28.2
						c-1.1,25.3-34.2,36.1-53.1,45C816.7,298.1,807.5,303,807.5,303L807.5,303z"/>
				</g>
				<g>
					<path class="st110" d="M803.9,290.8l-6.4-21.8c0,0,39.8-11.7,50.7-23.5c14.7-15.9,11.6-29.6,11.6-29.6s15.1,1.5,23.5,11.4
						c0.3,1.7,0.4,3.5,0.3,5.4c-1.1,25.3-34.2,36.1-53.1,45C816.1,284.6,807.3,289,803.9,290.8L803.9,290.8z"/>
				</g>
				<g>
					<path class="st114" d="M818.7,287.9c0,1.9-1.4,3.4-3.2,3.4c-1.8,0-3.2-1.5-3.2-3.4c0-1.9,1.4-3.4,3.2-3.4
						C817.3,284.5,818.7,286,818.7,287.9L818.7,287.9z"/>
				</g>
				<g>
					<path class="st87" d="M785.3,275.4c2.2-1,4.8,0.1,5.8,2.4l0,0c1,2.4-0.1,5.1-2.3,6.1l-21.3,7.8c-2.2,1-4.2,1.7-5.2-0.7l0,0
						c-1-2.4,1.2-3.9,3.5-4.9L785.3,275.4L785.3,275.4z"/>
				</g>
				<g>
					<path class="st87" d="M787.9,281.9c2.3-1.1,5,0.1,6,2.5l0,0c1,2.4-0.1,5.3-2.4,6.3l-22,8.1c-2.3,1.1-4.4,1.8-5.4-0.7l0,0
						c-1-2.4,1.3-4,3.6-5.1L787.9,281.9L787.9,281.9z"/>
				</g>
				<g>
					<path class="st87" d="M791.8,287.1c2.2-1,4.8,0.1,5.8,2.4l0,0c1,2.4-0.1,5.1-2.3,6.1l-21.3,7.8c-2.2,1-4.2,1.7-5.2-0.7l0,0
						c-1-2.4,1.2-3.9,3.4-4.9L791.8,287.1L791.8,287.1z"/>
				</g>
				<g>
					<path class="st87" d="M797,292.3c2.2-1,4.6-0.3,5.4,1.5v0c0.8,1.9-0.4,4.2-2.6,5.2l-21.1,8.1c-2.2,1-4.2,1.7-5-0.1l0,0
						c-0.8-1.9,1.5-3.3,3.7-4.3L797,292.3L797,292.3z"/>
				</g>
				<g>
					<path class="st119" d="M665.3,613.5c-10.1,8.7-5.5,17.4-5.5,17.4s13.4,4,26.2,3.7c15.6-0.3,33.8-9.6,33.8-9.6l-0.5,4.9h20.9
						c0,0,4.6-10.4,1.6-21.6c-3-11.2-7.9-17-7.9-17s-15.2,2.6-18.4,1.7c-3.3-0.9-15.8,12.6-22.2,15.4
						C686.9,611.2,671.8,607.9,665.3,613.5L665.3,613.5z"/>
				</g>
				<g>
					<path class="st107" d="M670.7,633.3c4.5,0.8,9.9,1.4,15.2,1.3c15.6-0.3,33.8-9.6,33.8-9.6l-0.5,4.9h10.1c1.3-0.6,2-1,2-1
						l-0.1,1h8.9c0,0,4.6-10.4,1.6-21.6c-1.3-5.1-3.1-9-4.6-11.9c-4.1,0.5-8.6,0.9-10.1,0.5c-3.3-0.9-15.8,12.6-22.2,15.4
						c-6.3,2.8-21.4-0.5-28,5.1C669.2,624,669.9,630.5,670.7,633.3L670.7,633.3z"/>
				</g>
				<g>
					<path class="st119" d="M737.8,613.5c-10.1,8.7-5.5,17.4-5.5,17.4s13.4,4,26.2,3.7c15.6-0.3,33.8-9.6,33.8-9.6l-0.5,4.9h20.9
						c0,0,4.6-10.4,1.6-21.6c-3-11.2-7.9-17-7.9-17s-15.2,2.6-18.4,1.7c-3.3-0.9-15.8,12.6-22.2,15.4
						C759.5,611.2,744.4,607.9,737.8,613.5L737.8,613.5z"/>
				</g>
				<g>
					<path class="st107" d="M745.2,633.7c4.1,0.6,8.7,1.1,13.3,1c15.6-0.3,33.8-9.6,33.8-9.6l-0.5,4.9h20.9c0,0,4.6-10.4,1.6-21.6
						c-1.2-4.5-2.7-8.1-4-10.8c-4.4,1.1-9.9,2.2-11.7,1.9c-3.3-0.5-14.6,14-20.7,17.5c-6,3.4-21.4,1.6-27.4,7.8
						C747.2,627.9,745.8,631,745.2,633.7L745.2,633.7z"/>
				</g>
				<g>
					<path class="st107" d="M572.9,185.8l15.2-28.1c-5.7-4.2,48.6,22.3,70.4,29.3c19.2,2.2,27.6-5.2,27.6-5.2s14.1,16.2-3.6,33.1
						c-5.7,21-48.2-0.4-67.5-8.5C595.8,198.3,572.9,185.8,572.9,185.8L572.9,185.8z"/>
				</g>
				<g>
					<path class="st110" d="M578,176.3l10.1-18.6c-0.1-0.1-0.2-0.2-0.3-0.3l0.1-0.2c3.5,0.6,50.7,23.3,70.6,29.7
						c19.2,2.2,27.6-5.2,27.6-5.2s7.4,8.5,4.8,19.6c8.1-4.1,5.1,1.7,3.8,3c-5.7,21-55.5,0.5-74.8-7.6
						C601.9,189.2,580.9,177.9,578,176.3L578,176.3z"/>
				</g>
			</g>
		</g>
	</g>
</g>
</svg>
