<?xml version="1.0" encoding="utf-8"?>
<!-- Generator: Adobe Illustrator 23.0.5, SVG Export Plug-In . SVG Version: 6.00 Build 0)  -->
<svg version="1.1" id="Layer_1" xmlns="http://www.w3.org/2000/svg" xmlns:xlink="http://www.w3.org/1999/xlink" x="0px" y="0px"
	 viewBox="0 0 1199.8 560.7" style="enable-background:new 0 0 1199.8 560.7;" xml:space="preserve">
<style type="text/css">
	.st0{fill:#D5E7F7;}
	.st1{fill:#C4D9ED;}
	.st2{fill:#ADC9E0;}
	.st3{fill:#1C2948;}
	.st4{fill:#163560;}
	.st5{fill:#739AF0;}
	.st6{fill:url(#SVGID_1_);}
	.st7{fill:url(#SVGID_2_);}
	.st8{fill:#4A82D3;}
	.st9{fill:#2D3A62;}
	.st10{fill:#98BDF4;}
	.st11{fill:#2B478B;}
	.st12{fill:#233862;}
	.st13{fill:#AB7041;}
	.st14{fill:#9C5F33;}
	.st15{fill:url(#SVGID_3_);}
	.st16{fill:url(#SVGID_4_);}
	.st17{fill:url(#SVGID_5_);}
	.st18{fill:#6793E7;}
	.st19{fill:url(#SVGID_6_);}
	.st20{fill:#1F3341;}
	.st21{fill:#2D4454;}
	.st22{fill:#122633;}
	.st23{fill:#FFFFFF;}
	.st24{fill:#85878A;}
	.st25{fill:#555658;}
	.st26{fill:#808184;}
	.st27{fill:url(#SVGID_7_);}
	.st28{fill:#1A2E35;}
	.st29{fill:url(#SVGID_8_);}
	.st30{fill:url(#SVGID_9_);}
	.st31{fill:url(#SVGID_10_);}
	.st32{fill:#FFB27D;}
	.st33{fill:url(#SVGID_11_);}
	.st34{fill:#ED975D;}
	.st35{fill:url(#SVGID_12_);}
	.st36{fill:url(#SVGID_13_);}
	.st37{fill:url(#SVGID_14_);}
	.st38{fill:#466591;}
	.st39{fill:#5574A5;}
	.st40{fill:#66DB8E;}
	.st41{fill:#E9F4FF;}
	.st42{opacity:0.5;}
	.st43{fill:#A8CCFF;}
	.st44{fill:#FF912B;}
	.st45{fill:#1B294B;}
	.st46{fill:#145DEF;}
	.st47{fill:#2A3967;}
	.st48{fill:#D1E4FC;}
	.st49{fill:#25468F;}
	.st50{fill:#CDE3FF;}
	.st51{fill:#A5D2FF;}
	.st52{fill:#214D9A;}
	.st53{fill:#C8DFFD;}
	.st54{fill:#7798F8;}
	.st55{fill:#DAE6FF;}
	.st56{fill:#FFAE73;}
	.st57{fill:#1E3865;}
	.st58{fill:url(#SVGID_15_);}
	.st59{fill:url(#SVGID_16_);}
	.st60{fill:url(#SVGID_17_);}
	.st61{fill:#F9924F;}
	.st62{fill:url(#SVGID_18_);}
	.st63{fill:url(#SVGID_19_);}
	.st64{fill:url(#SVGID_20_);}
	.st65{fill:#2D3554;}
	.st66{opacity:0.4;}
	.st67{fill-rule:evenodd;clip-rule:evenodd;fill:#DEECFC;}
	.st68{fill-rule:evenodd;clip-rule:evenodd;fill:#455563;}
	.st69{fill-rule:evenodd;clip-rule:evenodd;fill:#566578;}
	.st70{fill-rule:evenodd;clip-rule:evenodd;fill:#AEC6CE;}
	.st71{fill-rule:evenodd;clip-rule:evenodd;fill:#91B1BD;}
	.st72{fill-rule:evenodd;clip-rule:evenodd;fill:#EAEEF0;}
	.st73{fill-rule:evenodd;clip-rule:evenodd;fill:#D3E1E7;}
	.st74{fill-rule:evenodd;clip-rule:evenodd;fill:#1483EF;}
	.st75{fill-rule:evenodd;clip-rule:evenodd;fill:#145DEF;}
	.st76{fill-rule:evenodd;clip-rule:evenodd;fill:#47A4AD;}
	.st77{fill-rule:evenodd;clip-rule:evenodd;fill:#EDE5D4;}
	.st78{fill-rule:evenodd;clip-rule:evenodd;fill:#FFFFFF;}
	.st79{fill-rule:evenodd;clip-rule:evenodd;fill:#C8DBE3;}
	.st80{fill-rule:evenodd;clip-rule:evenodd;fill:#145DC3;}
	.st81{fill-rule:evenodd;clip-rule:evenodd;fill:#D9D8D4;}
	.st82{fill-rule:evenodd;clip-rule:evenodd;fill:#E4EBED;}
	.st83{fill-rule:evenodd;clip-rule:evenodd;fill:#6EB7BF;}
	.st84{fill:#1483EF;}
	.st85{fill:#BACFE2;}
	.st86{fill-rule:evenodd;clip-rule:evenodd;fill:#EE9C94;}
	.st87{fill-rule:evenodd;clip-rule:evenodd;fill:#F9BCAF;}
	.st88{fill-rule:evenodd;clip-rule:evenodd;fill:#F6A399;}
	.st89{fill-rule:evenodd;clip-rule:evenodd;fill:#2F1210;}
	.st90{fill-rule:evenodd;clip-rule:evenodd;fill:#ED7660;}
	.st91{fill-rule:evenodd;clip-rule:evenodd;fill:#D33727;}
	.st92{fill-rule:evenodd;clip-rule:evenodd;fill:#A72423;}
	.st93{fill-rule:evenodd;clip-rule:evenodd;fill:#EEB51D;}
	.st94{fill-rule:evenodd;clip-rule:evenodd;fill:#E9938B;}
	.st95{fill-rule:evenodd;clip-rule:evenodd;fill:#2C6F9A;}
	.st96{fill-rule:evenodd;clip-rule:evenodd;fill:#3E7FA9;}
	.st97{fill-rule:evenodd;clip-rule:evenodd;fill:#59C6DB;}
	.st98{fill-rule:evenodd;clip-rule:evenodd;fill:#609DD4;}
	.st99{fill-rule:evenodd;clip-rule:evenodd;fill:#4685B9;}
	.st100{fill-rule:evenodd;clip-rule:evenodd;fill:#CCA440;}
	.st101{fill-rule:evenodd;clip-rule:evenodd;fill:#CC4B27;}
	.st102{fill-rule:evenodd;clip-rule:evenodd;fill:#F3763E;}
	.st103{fill-rule:evenodd;clip-rule:evenodd;fill:#E08077;}
	.st104{fill-rule:evenodd;clip-rule:evenodd;fill:#4F96D1;}
	.st105{fill-rule:evenodd;clip-rule:evenodd;fill:#DFB847;}
	.st106{fill-rule:evenodd;clip-rule:evenodd;fill:#CA2E27;}
	.st107{fill-rule:evenodd;clip-rule:evenodd;fill:#0B0E10;}
	.st108{fill-rule:evenodd;clip-rule:evenodd;fill:#5E5E5E;}
	.st109{fill-rule:evenodd;clip-rule:evenodd;fill:#1B2729;}
	.st110{fill-rule:evenodd;clip-rule:evenodd;fill:#232E30;}
	.st111{fill-rule:evenodd;clip-rule:evenodd;fill:#D4D2D1;}
	.st112{fill-rule:evenodd;clip-rule:evenodd;fill:#F3E8E7;}
	.st113{fill-rule:evenodd;clip-rule:evenodd;fill:#2B3A3A;}
	.st114{fill-rule:evenodd;clip-rule:evenodd;fill:#A29899;}
	.st115{fill:#331410;}
	.st116{fill:#ED7660;}
	.st117{fill-rule:evenodd;clip-rule:evenodd;fill:#3B150E;}
	.st118{fill-rule:evenodd;clip-rule:evenodd;fill:#543119;}
	.st119{fill-rule:evenodd;clip-rule:evenodd;fill:#2A2B2B;}
	.st120{opacity:0.1;}
	.st121{fill:#DFEDFF;}
	.st122{fill:#F6FBFF;}
	.st123{fill:#161616;}
	.st124{fill:#3F4040;}
	.st125{fill:#383838;}
	.st126{fill:#DAD9DA;}
	.st127{fill:#333333;}
	.st128{fill:#C7D5FD;}
	.st129{fill:#A2C1F4;}
	.st130{fill:#7B2718;}
	.st131{fill:#E5E5E4;}
	.st132{fill:#712418;}
	.st133{fill:url(#SVGID_21_);}
	.st134{fill:url(#SVGID_22_);}
	.st135{fill:url(#SVGID_23_);}
	.st136{fill:#FABFA4;}
	.st137{fill:#F4E5CD;}
	.st138{fill:#C78976;}
	.st139{fill:#2A2B2A;}
	.st140{fill:url(#SVGID_24_);}
	.st141{fill:url(#SVGID_25_);}
	.st142{fill:url(#SVGID_26_);}
	.st143{fill:url(#SVGID_27_);}
	.st144{fill:url(#SVGID_28_);}
	.st145{fill:url(#SVGID_29_);}
	.st146{fill:url(#SVGID_30_);}
	.st147{fill:url(#SVGID_31_);}
	.st148{fill:url(#SVGID_32_);}
	.st149{fill:url(#SVGID_33_);}
	.st150{fill:url(#SVGID_34_);}
	.st151{fill:url(#SVGID_35_);}
	.st152{fill:url(#SVGID_36_);}
	.st153{fill:#D4DEFD;}
	.st154{fill:#BCCEFD;}
	.st155{fill:#E1E8FD;}
	.st156{fill:url(#SVGID_37_);}
	.st157{fill:url(#SVGID_38_);}
	.st158{fill:url(#SVGID_39_);}
	.st159{opacity:0.25;fill:url(#SVGID_40_);}
	.st160{opacity:0.25;fill:url(#SVGID_41_);}
	.st161{fill:url(#SVGID_42_);}
	.st162{fill:url(#SVGID_43_);}
	.st163{fill:url(#SVGID_44_);}
	.st164{opacity:0.61;fill:url(#SVGID_45_);}
	.st165{fill:url(#SVGID_46_);}
	.st166{fill:url(#SVGID_47_);}
	.st167{opacity:0.61;fill:url(#SVGID_48_);}
	.st168{fill:url(#SVGID_49_);}
	.st169{fill:url(#SVGID_50_);}
	.st170{fill:url(#SVGID_51_);}
	.st171{fill:url(#SVGID_52_);}
	.st172{fill:url(#SVGID_53_);}
	.st173{fill:url(#SVGID_54_);}
	.st174{fill:url(#SVGID_55_);}
	.st175{fill:url(#SVGID_56_);}
	.st176{fill:#0C1D6D;}
	.st177{fill:url(#SVGID_57_);}
	.st178{fill:url(#SVGID_58_);}
	.st179{fill:url(#SVGID_59_);}
	.st180{fill:url(#SVGID_60_);}
	.st181{fill:url(#SVGID_61_);}
	.st182{fill:url(#SVGID_62_);}
	.st183{fill:url(#SVGID_63_);}
	.st184{fill:url(#SVGID_64_);}
	.st185{fill:url(#SVGID_65_);}
	.st186{fill:url(#SVGID_66_);}
	.st187{fill:url(#SVGID_67_);}
	.st188{fill:url(#SVGID_68_);}
	.st189{fill:url(#SVGID_69_);}
	.st190{fill:url(#SVGID_70_);}
	.st191{fill:url(#SVGID_71_);}
</style>
<g>
	<g>
		<path class="st41" d="M1107.8,516.5c-4.4,8.3-9,15.7-14.2,22c-1.2,1.5-2.4,2.8-3.5,4.2c-6.7,7.3-14,12.8-21.9,15.9l-44.1,0.3
			l-60.2,0.4l-40.2,0.2l-28.6,0.1h-1.3l-18.9,0.1h-10.1l-236.4-0.8h-1.9l-60.8-0.2l-162.6-0.5l-66.3-0.2h-1.6l-258.1-0.8
			c0,0-79.1-54.4-77.1-149.1c1.2-60.6,17.6-188.3,188.8-218.3c60.9-10.6,92.6-42.8,121.3-77.8c6.1-7.3,12-14.8,18-22.2
			c41-50.3,87.3-98.3,215.5-88.7c7.7,0.6,15,1.6,22,2.9c23,4.3,42.7,12.2,60.8,20.8c43.5,20.7,77.4,45.4,124.3,33.5
			C840.9,35.6,910.3,33.5,963.9,46c22.8,5.3,42.7,13.2,60.2,23.3c80.5,46.3,108.6,138.1,121.9,228.3
			C1152.4,341,1140.9,453.3,1107.8,516.5z"/>
		<g class="st42">
			<path class="st43" d="M620.3,22v538.7h-60.2V3.1C582.9,6.6,602.4,15.2,620.3,22z"/>
			<g>
				<polygon class="st44" points="620.3,41.7 560.1,19.7 560.1,46 620.3,67.9 				"/>
				<g>
					<polygon class="st44" points="620.3,96.5 620.3,122.8 560.1,100.8 560.1,74.6 					"/>
					<polygon class="st44" points="620.3,152.8 620.3,179 560.1,157.1 560.1,130.8 					"/>
					<polygon class="st44" points="620.3,209 620.3,235.2 560.1,213.3 560.1,187 					"/>
					<polygon class="st44" points="620.3,265.2 620.3,291.4 560.1,269.5 560.1,243.2 					"/>
					<polygon class="st44" points="620.3,316.7 620.3,342.9 560.1,321 560.1,294.8 					"/>
					<polygon class="st44" points="620.3,508.6 620.3,534.8 560.1,512.9 560.1,486.7 					"/>
				</g>
			</g>
		</g>
		<g class="st42">
			<path class="st43" d="M964,50c22.8,4.2,42.7,10.5,60.2,18.5v492.2H964V50z"/>
			<g>
				<path class="st44" d="M1024.1,68.5v12.1L964,58.7V46C986.7,50.2,1006.7,60.5,1024.1,68.5z"/>
				<g>
					<polygon class="st44" points="1024.1,109.3 1024.1,135.5 964,113.6 964,87.4 					"/>
					<polygon class="st44" points="1024.1,165.5 1024.1,191.7 964,169.8 964,143.6 					"/>
					<polygon class="st44" points="1024.1,221.7 1024.1,248 964,226 964,199.8 					"/>
					<polygon class="st44" points="1024.1,277.9 1024.1,304.2 964,282.2 964,256 					"/>
				</g>
			</g>
		</g>
		<g>
			<path class="st45" d="M371.2,504.3h552.3l186.5-16.8c0,0-33.4-83.2-42.5-84.4c-9.1-1.2-678.8,0-678.8,0L371.2,504.3z"/>
			<path class="st46" d="M1189.6,496.2c-13.7,5.6-96.8,6.9-96.8,6.9s1.9-101.8-83.7-90c-85.6,11.9-70.6,96.4-70.6,96.4l-411.4,7.3
				c0,0,6.7-107.3-84.2-96c-75.5,9.4-56.1,95.6-56.1,95.6c-75.2,3.9-83-21.7-83-21.7v-10.5h4.7v-27.8h-4.7v-20.7l15.8-36.2
				c0,0,0,0,0,0c26.7-45.8,235.7-58.3,235.7-58.3c31.8-18.3,58.1-31.8,78.7-41.7c32.9-15.7,70.3-31,106.5-34.6
				c98.1-9.7,178.8,1.3,198.6,4.5c23.1,3.7,139.3,54.3,148,58.7c8.7,4.4,80.1,10.3,89.2,11.4c9.2,1.1,8.9,10.3,8.9,10.3l1.3,8.1
				l4.8,31l1.2,7.6c6.7,3.3,6.7,12.9,6.7,12.9S1203.4,490.5,1189.6,496.2z"/>
			<g>
				
					<ellipse transform="matrix(0.7071 -0.7071 0.7071 0.7071 -211.4503 464.5853)" class="st47" cx="455.1" cy="487.5" rx="63.4" ry="63.4"/>
				<g>
					<path class="st43" d="M455.1,537.1c-27.3,0-49.5-22.2-49.5-49.5c0-27.3,22.2-49.5,49.5-49.5c27.3,0,49.5,22.2,49.5,49.5
						C504.6,514.9,482.4,537.1,455.1,537.1z M455.1,442.6c-24.8,0-45,20.2-45,45c0,24.8,20.2,45,45,45c24.8,0,45-20.2,45-45
						C500,462.7,479.9,442.6,455.1,442.6z"/>
				</g>
				<g>
					<g>
						<polygon class="st43" points="463.5,534.8 445.8,534.8 451.5,486.2 445,440 465.3,441.2 458.5,486.2 						"/>
					</g>
					<g>
						<polygon class="st43" points="418.2,518.4 409.4,503 454.4,483.7 491.1,454.9 500.2,473.1 457.9,489.7 						"/>
					</g>
					<g>
						<polygon class="st43" points="411.1,469.2 420.9,454.4 458.4,485.9 500.6,505.8 488.4,522.1 454.6,491.7 						"/>
					</g>
					<circle class="st43" cx="455" cy="487.4" r="16.5"/>
				</g>
			</g>
			<g>
				
					<ellipse transform="matrix(0.7071 -0.7071 0.7071 0.7071 -46.9106 861.8192)" class="st47" cx="1016.9" cy="487.5" rx="63.4" ry="63.4"/>
				<g>
					<path class="st43" d="M1016.9,537.1c-27.3,0-49.5-22.2-49.5-49.5c0-27.3,22.2-49.5,49.5-49.5c27.3,0,49.5,22.2,49.5,49.5
						C1066.4,514.9,1044.2,537.1,1016.9,537.1z M1016.9,442.6c-24.8,0-45,20.2-45,45c0,24.8,20.2,45,45,45c24.8,0,45-20.2,45-45
						C1061.8,462.7,1041.6,442.6,1016.9,442.6z"/>
				</g>
				<g>
					<g>
						<polygon class="st43" points="1025.3,534.8 1007.6,534.8 1013.3,486.2 1006.7,440 1027,441.2 1020.3,486.2 						"/>
					</g>
					<g>
						<polygon class="st43" points="980,518.4 971.1,503 1016.1,483.7 1052.9,454.9 1062,473.1 1019.6,489.7 						"/>
					</g>
					<g>
						<polygon class="st43" points="972.9,469.2 982.7,454.4 1020.2,485.9 1062.4,505.8 1050.2,522.1 1016.3,491.7 						"/>
					</g>
					<circle class="st43" cx="1016.8" cy="487.4" r="16.5"/>
				</g>
			</g>
			<path class="st48" d="M391.2,399.3h-41.4c-13.7,0-26.4,7.4-33,19.4l-1.4,2.5c-1.4,2.6,0.4,5.7,3.4,5.7h49.9c3.4,0,6.7-1.4,9.1-4
				l16.3-17.6C396,403,394.4,399.3,391.2,399.3z"/>
			<path class="st45" d="M340.9,487.5h-14.1c-4.7,0-9,2.5-11.3,6.6L315,495c-0.5,0.9,0.1,2,1.1,2h17c1.2,0,2.3-0.5,3.1-1.4l5.6-6
				C342.5,488.8,342,487.5,340.9,487.5z"/>
			<path class="st43" d="M1025.9,335.2l-211.5,5c-4.1,0.1-7.6-3.2-7.6-7.4v-48.7c0-3.8,3.1-6.9,7-6.9c90.2,1.3,121.1,3.8,139.6,10.2
				c16.3,5.6,54.6,28.8,74.3,40.6C1031.2,330,1029.8,335.1,1025.9,335.2z"/>
			<path class="st43" d="M788.5,276.9c3.4,0,6.8,0.1,10.1,0.1v63.6l-204,4.8c-2.7,0.1-3.8-3.4-1.6-4.9
				C616.8,324.5,696.7,275.9,788.5,276.9z"/>
			<path class="st43" d="M1025.2,335.2l-0.1,0v-8.8c0.7,0.4,1.4,0.8,2.1,1.3C1030.7,329.7,1029.3,335.1,1025.2,335.2z"/>
			<polygon class="st46" points="806.9,343.2 781.9,341.2 783.6,273.2 806.9,273.2 			"/>
			<polygon class="st46" points="965.2,343.2 953.5,343.2 953.5,282.1 965.2,289.1 			"/>
			<path class="st47" d="M620,324.1l6.2,20.6l-34,0.8c-2,0-2.8-2.5-1.2-3.7C598.6,336.3,612.9,326.5,620,324.1z"/>
			<g>
				<path class="st45" d="M590.7,347.2c-1.4,0-2.6-0.9-3-2.2c-0.4-1.4,0-2.8,1.2-3.6l0.7-0.5c0.7-0.5,1.6-1.1,2.5-1.7
					c0.7-0.5,1.5-1,2.4-1.6l1.3-0.8c1-0.6,2-1.3,3.1-2c0.8-0.5,1.6-1,2.4-1.5l0.1-0.1c0.1-0.1,0.2-0.1,0.4-0.2
					c0.7-0.4,1.5-0.9,2.2-1.4l0.2-0.1c0.3-0.2,0.5-0.3,0.8-0.5c0.4-0.2,0.8-0.5,1.2-0.7c0.6-0.3,1.1-0.7,1.7-1c1.6-1,3.4-2,5.2-3.1
					c0.6-0.3,1.1-0.7,1.7-1c1.2-0.7,2.3-1.3,3.6-2v0l0.9-0.5c2.5-1.4,4.9-2.7,7.4-4l0.8-0.4c0.4-0.2,0.7-0.4,1.1-0.6
					c4.7-2.5,9.5-4.9,14.3-7.2l1.5-0.7c1.5-0.7,3-1.4,4.6-2.1c0.5-0.2,1-0.5,1.6-0.7c1-0.5,2.1-0.9,3.1-1.4l1.6-0.7
					c1.6-0.7,3.3-1.4,5.2-2.2c1-0.4,2-0.8,3-1.2c6.7-2.7,13.5-5.3,20.2-7.7l1.5-0.5c0.6-0.2,1.1-0.4,1.7-0.6l2.1-0.7
					c0.6-0.2,1.1-0.4,1.7-0.6l0.1,0c0.6-0.2,1.2-0.4,1.8-0.6c1.1-0.3,2.2-0.7,3.3-1c0.7-0.2,1.5-0.5,2.3-0.7c1.2-0.3,2.3-0.7,3.5-1
					l1.9-0.6c1.2-0.3,2.4-0.7,3.7-1c2.4-0.7,4.9-1.3,7.4-1.9l0.1,0c0.2-0.1,0.4-0.1,0.7-0.2c1-0.3,2.1-0.5,3.2-0.8
					c0.6-0.2,1.3-0.3,1.9-0.5l0.5-0.1c0.5-0.1,1-0.2,1.4-0.3c0.6-0.1,1.3-0.3,1.9-0.4c0.6-0.1,1.3-0.3,1.9-0.4
					c0.7-0.1,1.3-0.3,2-0.4c0.6-0.1,1.3-0.3,2-0.4l0.1,0c0.6-0.1,1.2-0.2,1.9-0.4c0.6-0.1,1.2-0.2,1.9-0.4c0.7-0.1,1.4-0.3,2.1-0.4
					c0.4-0.1,0.9-0.2,1.4-0.2l0.6-0.1c1.3-0.2,2.7-0.4,4-0.7c0.7-0.1,1.3-0.2,2-0.3l0.1,0c1.2-0.2,2.4-0.3,3.5-0.5
					c2.2-0.3,4.4-0.6,6.6-0.8l0.1,0c0.6-0.1,1.2-0.1,1.8-0.2c0.4,0,0.9-0.1,1.3-0.1c0.4-0.1,0.9-0.1,1.4-0.1c0.5-0.1,1-0.1,1.5-0.2
					c0.7-0.1,1.4-0.1,2.1-0.2c0.7-0.1,1.3-0.1,2-0.2c0.5,0,1-0.1,1.5-0.1l3-0.2c0.6,0,1.2-0.1,1.8-0.1l0.3,0c0.6,0,1.3-0.1,1.9-0.1
					c0.5,0,1-0.1,1.6-0.1l0,0c0.5,0,0.9,0,1.4-0.1l1.2,0c0.5,0,0.9,0,1.4,0c1.8-0.1,3.5,0.6,4.8,1.9c1.3,1.3,2,2.9,2,4.8v52.7
					c0,4.4-3.6,8-7.9,8.1L590.7,347.2C590.8,347.2,590.7,347.2,590.7,347.2z M621.5,325.1l-1.2,0.6c-1.3,0.7-2.7,1.5-3.9,2.2
					c-0.6,0.3-1.2,0.7-1.7,1c-1.8,1-3.6,2.1-5.2,3.1c-0.6,0.3-1.1,0.7-1.7,1c-0.4,0.2-0.8,0.5-1.2,0.7c-0.3,0.2-0.5,0.3-0.7,0.5
					l-0.2,0.1c-0.8,0.5-1.5,0.9-2.2,1.4l-0.5,0.3c-0.8,0.5-1.6,1-2.4,1.5c-1.1,0.7-2.1,1.3-3.1,2l-1.3,0.8c-0.8,0.6-1.6,1.1-2.4,1.6
					c-0.9,0.6-1.7,1.2-2.4,1.7l-0.3,0.2l35-0.8l151-3.6c2.6-0.1,4.7-2.2,4.7-4.8V282c0-0.9-0.4-1.7-1-2.4c-0.6-0.6-1.5-1-2.4-0.9
					c-0.5,0-0.9,0-1.4,0l-1.2,0c-0.5,0-0.9,0-1.4,0.1l-0.1,0c-0.5,0-1,0-1.5,0.1c-0.6,0-1.3,0.1-1.9,0.1l-0.3,0
					c-0.6,0-1.1,0.1-1.7,0.1l-2.9,0.2c-0.5,0-1,0.1-1.5,0.1c-0.7,0.1-1.3,0.1-2,0.2c-0.7,0.1-1.4,0.1-2.1,0.2c-0.5,0-1,0.1-1.5,0.1
					c-0.5,0-0.9,0.1-1.3,0.1c-0.5,0-0.9,0.1-1.3,0.1c-0.6,0.1-1.2,0.1-1.8,0.2l-0.1,0c-2.1,0.2-4.3,0.5-6.5,0.8
					c-1.2,0.2-2.3,0.3-3.5,0.5l-0.1,0c-0.7,0.1-1.3,0.2-2,0.3c-1.3,0.2-2.6,0.4-3.9,0.7l-0.6,0.1c-0.4,0.1-0.9,0.2-1.3,0.2
					c-0.7,0.1-1.4,0.2-2.1,0.4c-0.6,0.1-1.2,0.2-1.8,0.4c-0.6,0.1-1.2,0.2-1.9,0.4l-0.1,0c-0.6,0.1-1.3,0.3-1.9,0.4
					c-0.7,0.1-1.3,0.3-1.9,0.4c-0.6,0.1-1.3,0.3-1.9,0.4c-0.6,0.1-1.3,0.3-1.9,0.4c-0.5,0.1-1,0.2-1.4,0.3l-0.5,0.1
					c-0.6,0.1-1.3,0.3-1.9,0.4c-1.1,0.3-2.1,0.5-3.2,0.8c-0.2,0.1-0.4,0.1-0.6,0.2l-0.2,0c-2.4,0.6-4.9,1.3-7.3,1.9
					c-1.2,0.3-2.4,0.7-3.6,1l-1.9,0.6c-1.1,0.3-2.3,0.7-3.4,1c-0.7,0.2-1.5,0.5-2.2,0.7c-1.1,0.3-2.2,0.7-3.2,1
					c-0.6,0.2-1.2,0.4-1.8,0.6l-0.1,0c-0.6,0.2-1.1,0.4-1.7,0.6l-2.1,0.7c-0.5,0.2-1.1,0.4-1.6,0.6l-1.5,0.5
					c-6.7,2.3-13.4,4.9-20,7.6c-1,0.4-2,0.8-2.9,1.2c-1.9,0.8-3.5,1.5-5.1,2.2l-1.6,0.7c-1.1,0.5-2.1,0.9-3.1,1.4
					c-0.5,0.2-1,0.5-1.5,0.7c-1.5,0.7-3.1,1.4-4.5,2.1l-1.5,0.7c-4.8,2.3-9.5,4.7-14.2,7.1c-0.4,0.2-0.8,0.4-1.1,0.6l-0.8,0.4
					C626,322.7,623.7,323.9,621.5,325.1z"/>
			</g>
			<g>
				<path class="st45" d="M968.6,338.3c-1.2,0-2.4-0.5-3.3-1.4c-1-1-1.6-2.4-1.6-3.9v-35.6c0-2,0.3-4.6,1.9-5.6
					c1.5-0.9,4-0.3,5.5,0.5c1.7,0.9,3,1.5,3.6,1.8c0.1,0,0.2,0.1,0.3,0.1l0.7,0.4c8.9,4.8,21.5,12.5,37.5,22.6
					c0.7,0.4,1.4,0.9,2,1.3c1.6,1,3.2,2,4.7,3l5.6,3.6c1,0.6,1.9,1.2,2.8,1.8c0.1,0.1,0.3,0.2,0.4,0.3l0.1,0.1
					c1.9,1.2,2.7,3.5,2.1,5.8c-0.6,2.1-2.3,3.5-4.4,3.6l-0.6,0l-57.2,1.5C968.7,338.3,968.7,338.3,968.6,338.3z M969,294.8
					c-0.5,0-0.9,0.2-1.1,0.3c-0.8,0.5-1.2,1.4-1.2,2.4V333c0,0.7,0.3,1.3,0.7,1.8c0.4,0.4,0.8,0.6,1.3,0.5l57.8-1.5
					c1.2,0,1.6-1.1,1.7-1.4c0.2-0.8,0.1-1.9-0.8-2.5l-0.1-0.1c-0.1-0.1-0.3-0.2-0.4-0.2c-0.9-0.6-1.8-1.2-2.8-1.8l-5.6-3.6
					c-1.5-1-3.1-2-4.7-3c-0.7-0.4-1.3-0.9-2-1.3c-16-10.2-28.5-17.7-37.3-22.6l-0.7-0.4c-0.1,0-0.1-0.1-0.2-0.1
					c-0.6-0.3-1.9-1-3.5-1.8C969.5,294.8,969.2,294.8,969,294.8z"/>
			</g>
			<path class="st47" d="M620,324.1l6.2,20.6l-34,0.8c-2,0-2.8-2.5-1.2-3.7C598.6,336.3,612.9,326.5,620,324.1z"/>
			<g>
				<path class="st45" d="M814.3,341.9c-2.4,0-4.6-0.9-6.3-2.6c-1.8-1.7-2.7-4-2.7-6.5v-48.7c0-2.3,0.9-4.5,2.5-6.1
					c1.6-1.6,3.8-2.5,6.1-2.5c93.1,1.3,121.9,3.4,140.2,10.3l1.1,0.4v52.3l-140.7,3.3C814.4,341.9,814.3,341.9,814.3,341.9z
					 M813.8,278.9c-1.4,0-2.7,0.5-3.7,1.5c-1,1-1.5,2.3-1.5,3.7v48.7c0,1.6,0.6,3,1.7,4.1c1.1,1.1,2.6,1.7,4.1,1.6l137.4-3.3v-46.7
					C934,282.3,903.5,280.2,813.8,278.9C813.8,278.9,813.8,278.9,813.8,278.9z"/>
			</g>
			<path class="st48" d="M1191.4,388.9h-39.8c-5.9,0-11.5-2.7-15.2-7.4l-15.1-19.1c-1.4-1.8-0.1-4.4,2.2-4.4h63.1L1191.4,388.9z"/>
			<path class="st45" d="M555.4,341.2l-1.6,2.7c-6.3,10.5-17.3,17.3-29.5,18.2c-32.9,2.3-99.4,7-134.6,9.5
				c-47.5,3.3-69.6,27.6-70,28C346.3,353.7,555.4,341.2,555.4,341.2z"/>
			<g>
				
					<rect x="689.8" y="382.3" transform="matrix(1.178207e-02 -0.9999 0.9999 1.178207e-02 404.0243 1175.0255)" class="st45" width="213.4" height="1.7"/>
			</g>
			<g>
				
					<rect x="526.2" y="490.8" transform="matrix(0.9998 -1.967457e-02 1.967457e-02 0.9998 -9.5302 14.4985)" class="st45" width="411.7" height="1.7"/>
			</g>
			<path class="st48" d="M772.4,384.8c0,2.3-10.1,4.1-22.5,4.1c-12.4,0-22.5-1.8-22.5-4.1c0-2.3,10.1-4.1,22.5-4.1
				C762.3,380.7,772.4,382.5,772.4,384.8z"/>
			<path class="st48" d="M981.8,384.8c0,2.3-10.1,4.1-22.5,4.1c-12.4,0-22.5-1.8-22.5-4.1c0-2.3,10.1-4.1,22.5-4.1
				C971.7,380.7,981.8,382.5,981.8,384.8z"/>
			<g>
				<path class="st45" d="M921.8,487.6l-1.7-0.1c1.1-21.2,7.4-39.1,18.7-53.1c9-11.2,21.2-20.1,36.2-26.2
					c22.8-9.3,45.4-9.6,50.1-9.5v-63.5h1.7v65.2l-0.9,0c-0.3,0-25.1-0.9-50.3,9.4c-14.7,6-26.7,14.7-35.5,25.7
					C929.1,449.2,923,466.7,921.8,487.6z"/>
			</g>
			<g>
				<path class="st45" d="M576.4,494.7c-0.6-55,2.4-93.1,5.1-115.4c2.9-24.1,6-35.4,6.1-35.5l1.6,0.4c-0.1,0.4-12.3,45.4-11.1,150.4
					L576.4,494.7z"/>
			</g>
			<g>
				<rect x="781.3" y="276.4" class="st45" width="32.6" height="1.7"/>
			</g>
			<g>
				<g>
					
						<rect x="484.2" y="328.1" transform="matrix(0.3712 -0.9286 0.9286 0.3712 18.9826 686.3353)" class="st49" width="64" height="2.1"/>
				</g>
				<path class="st49" d="M501.4,359.7c0-0.9,1.3-1.6,3-1.6c1.6,0,3,0.7,3,1.6c0,0.9-1.3,1.6-3,1.6
					C502.7,361.3,501.4,360.5,501.4,359.7z"/>
			</g>
			<g>
				<path class="st46" d="M554.4,347.9c-1-0.2-1.9-0.8-2.4-1.7c-0.2-0.3-19-34.2-48.4-73.4c-27.1-36.1-68.9-84.2-114.6-108.6
					c-1.7-0.9-2.3-3-1.4-4.7c0.9-1.7,3-2.3,4.7-1.4c20.7,11.1,42.4,27.7,64.3,49.4c17.5,17.3,35.2,37.9,52.6,61.2
					c29.7,39.6,48.7,73.8,48.8,74.1c0.9,1.7,0.3,3.8-1.4,4.7C556,348,555.1,348.1,554.4,347.9z"/>
			</g>
		</g>
		<g>
			<path class="st43" d="M1090.1,546.2c-6.7,5.8-14,10.2-21.9,12.6l-44.1,0.2l-60.2,0.3l-40.2,0.2l-28.6,0.1h-1.3l-29,0.1h-34.9
				l-37.9-0.1h-29.7l-38.8-0.1h-29.7l-37.9-0.1h-29.8l-45.7-0.1h-5.1l-29.7-0.1h-38l-29.7-0.1l-38.8-0.1h-29.7l-37.9-0.1h-40
				l3.6-0.6l1.6-0.3l8.7-1.5l40.3-7.1h0.1l20.6-3.6H1090.1z"/>
		</g>
		<g>
			<g>
				<path class="st50" d="M24.9,390.7l9.1-0.1c1.3,0,2.4,1,2.4,2.4l0.7,45.5c0,1.3-1,2.4-2.4,2.4l-9.1,0.1c-1.3,0-2.4-1-2.4-2.4
					l-0.7-45.5C22.5,391.8,23.6,390.7,24.9,390.7z"/>
				<g>
					<path class="st51" d="M34.1,421.3c0,2.3-1.8,4.2-4.1,4.2c-2.3,0-4.2-1.8-4.2-4.1c0-2.3,1.8-4.2,4.1-4.2
						C32.2,417.2,34.1,419,34.1,421.3z"/>
					<path class="st50" d="M32.7,421.3c0,0.5-0.4,0.9-0.8,0.9c-0.5,0-0.9-0.4-0.9-0.8c0-0.5,0.4-0.9,0.8-0.9
						C32.3,420.5,32.7,420.9,32.7,421.3z"/>
					<path class="st50" d="M28.7,421.4c0,0.5-0.4,0.9-0.8,0.9c-0.5,0-0.9-0.4-0.9-0.8c0-0.5,0.4-0.9,0.8-0.9
						C28.3,420.5,28.7,420.9,28.7,421.4z"/>
				</g>
				<g>
					<path class="st51" d="M33.9,409.1c0,2.3-1.8,4.2-4.1,4.2c-2.3,0-4.2-1.8-4.2-4.1c0-2.3,1.8-4.2,4.1-4.2
						C32,405,33.9,406.8,33.9,409.1z"/>
					<path class="st50" d="M32.5,409.2c0,0.5-0.4,0.9-0.8,0.9c-0.5,0-0.9-0.4-0.9-0.8c0-0.5,0.4-0.9,0.8-0.9
						C32.1,408.3,32.5,408.7,32.5,409.2z"/>
					<path class="st50" d="M28.5,409.2c0,0.5-0.4,0.9-0.8,0.9c-0.5,0-0.9-0.4-0.9-0.8c0-0.5,0.4-0.9,0.8-0.9
						C28.1,408.4,28.5,408.7,28.5,409.2z"/>
				</g>
				<g>
					<path class="st51" d="M33.7,396.9c0,2.3-1.8,4.2-4.1,4.2c-2.3,0-4.2-1.8-4.2-4.1c0-2.3,1.8-4.2,4.1-4.2
						C31.8,392.8,33.7,394.6,33.7,396.9z"/>
					<path class="st50" d="M32.3,397c0,0.5-0.4,0.9-0.8,0.9c-0.5,0-0.9-0.4-0.9-0.8c0-0.5,0.4-0.9,0.8-0.9
						C31.9,396.1,32.3,396.5,32.3,397z"/>
					<path class="st50" d="M28.4,397c0,0.5-0.4,0.9-0.8,0.9c-0.5,0-0.9-0.4-0.9-0.8c0-0.5,0.4-0.9,0.8-0.9
						C28,396.2,28.4,396.5,28.4,397z"/>
				</g>
				<g>
					<path class="st51" d="M34.3,433.5c0,2.3-1.8,4.2-4.1,4.2c-2.3,0-4.2-1.8-4.2-4.1c0-2.3,1.8-4.2,4.1-4.2
						C32.3,429.4,34.2,431.2,34.3,433.5z"/>
					<path class="st50" d="M32.9,433.5c0,0.5-0.4,0.9-0.8,0.9c-0.5,0-0.9-0.4-0.9-0.8c0-0.5,0.4-0.9,0.8-0.9
						C32.5,432.7,32.9,433.1,32.9,433.5z"/>
					<path class="st50" d="M28.9,433.6c0,0.5-0.4,0.9-0.8,0.9c-0.5,0-0.9-0.4-0.9-0.8c0-0.5,0.4-0.9,0.8-0.9
						C28.5,432.7,28.9,433.1,28.9,433.6z"/>
				</g>
			</g>
			<circle class="st52" cx="29" cy="409" r="5"/>
			<g>
				<path class="st52" d="M57.6,468c-10.6-2-10.2-20.4-9.8-35.2c0.1-4.7,0.2-9.2-0.1-12.3c-0.3-2.8-1.4-5-3.5-6.5
					c-4.9-3.6-13.5-1.9-13.5-1.9l-0.3-1.2c0.4-0.1,9.1-1.9,14.5,2.1c2.3,1.7,3.6,4.2,4,7.4c0.3,3.2,0.2,7.7,0.1,12.5
					c-0.4,14.3-0.8,32.2,8.8,33.9L57.6,468z"/>
			</g>
			<g>
				<g>
					<rect x="73.7" y="437.9" class="st53" width="104.8" height="104.8"/>
					<rect x="83.7" y="542.7" class="st43" width="4" height="7.8"/>
					<rect x="169.1" y="542.7" class="st43" width="4" height="7.8"/>
					<rect x="65.1" y="542.7" class="st43" width="4" height="7.8"/>
					<g>
						<polygon class="st43" points="178.5,437.9 73.7,437.9 58.8,374 163.9,373.2 						"/>
						<polygon class="st53" points="132,413.6 78.8,414 71.2,381.6 124.4,381.2 						"/>
						<g>
							<path class="st46" d="M135.4,390.9c-1.2-6,2.7-10.8,8.7-10.8c6,0,11.8,4.8,12.9,10.8c1.2,6-2.7,10.8-8.7,10.8
								C142.4,401.7,136.6,396.8,135.4,390.9z"/>
							<path class="st54" d="M136.9,390.9c-1.2-6,2.7-10.8,8.7-10.8c6,0,11.8,4.8,12.9,10.8c1.2,6-2.7,10.8-8.7,10.8
								C143.9,401.7,138.1,396.8,136.9,390.9z"/>
							<path class="st43" d="M138.1,390.9c-1-5.4,2.4-9.7,7.8-9.7c5.4,0,10.5,4.3,11.6,9.7c1,5.4-2.4,9.7-7.8,9.7
								C144.3,400.6,139.1,396.2,138.1,390.9z"/>
						</g>
						<g>
							<path class="st46" d="M140.7,418.1c-1.2-6,2.7-10.8,8.7-10.8c6,0,11.8,4.8,12.9,10.8c1.2,6-2.7,10.8-8.7,10.8
								C147.7,429,141.9,424.1,140.7,418.1z"/>
							<path class="st54" d="M142.3,418.1c-1.2-6,2.7-10.8,8.7-10.8c6,0,11.8,4.8,12.9,10.8c1.2,6-2.7,10.8-8.7,10.8
								C149.2,429,143.4,424.1,142.3,418.1z"/>
							<path class="st43" d="M143.5,418.1c-1-5.3,2.4-9.6,7.7-9.6c5.3,0,10.4,4.3,11.4,9.6c1,5.3-2.4,9.6-7.7,9.6
								C149.7,427.7,144.6,423.4,143.5,418.1z"/>
						</g>
						<g>
							<path class="st46" d="M82.5,423.9c-0.5-2.8,1.3-5.1,4.1-5.1c2.8,0,5.5,2.3,6.1,5.1c0.5,2.8-1.3,5.1-4.1,5.1
								C85.8,429,83.1,426.7,82.5,423.9z"/>
							<path class="st54" d="M83.2,423.9c-0.5-2.8,1.3-5.1,4.1-5.1c2.8,0,5.5,2.3,6.1,5.1c0.5,2.8-1.3,5.1-4.1,5.1
								C86.5,429,83.8,426.7,83.2,423.9z"/>
							<path class="st43" d="M83.8,423.9c-0.5-2.5,1.1-4.5,3.6-4.5c2.5,0,4.9,2,5.3,4.5c0.5,2.5-1.1,4.5-3.6,4.5
								C86.7,428.4,84.3,426.4,83.8,423.9z"/>
						</g>
						<g>
							<path class="st46" d="M96.8,423.9c-0.5-2.8,1.3-5.1,4.1-5.1c2.8,0,5.5,2.3,6.1,5.1c0.5,2.8-1.3,5.1-4.1,5.1
								C100.1,429,97.4,426.7,96.8,423.9z"/>
							<path class="st54" d="M97.5,423.9c-0.5-2.8,1.3-5.1,4.1-5.1c2.8,0,5.5,2.3,6.1,5.1c0.5,2.8-1.3,5.1-4.1,5.1
								C100.8,429,98.1,426.7,97.5,423.9z"/>
							<path class="st43" d="M98.1,423.9c-0.5-2.5,1.1-4.5,3.6-4.5c2.5,0,4.9,2,5.3,4.5c0.5,2.5-1.1,4.5-3.6,4.5
								C101,428.4,98.6,426.4,98.1,423.9z"/>
						</g>
						<g>
							<path class="st46" d="M113.4,423.9c-0.5-2.8,1.3-5.1,4.1-5.1c2.8,0,5.5,2.3,6.1,5.1c0.5,2.8-1.3,5.1-4.1,5.1
								C116.7,429,114,426.7,113.4,423.9z"/>
							<path class="st54" d="M114.1,423.9c-0.5-2.8,1.3-5.1,4.1-5.1c2.8,0,5.5,2.3,6.1,5.1c0.5,2.8-1.3,5.1-4.1,5.1
								C117.4,429,114.7,426.7,114.1,423.9z"/>
							<path class="st43" d="M114.7,423.9c-0.5-2.5,1.1-4.5,3.6-4.5c2.5,0,4.9,2,5.3,4.5c0.5,2.5-1.1,4.5-3.6,4.5
								S115.2,426.4,114.7,423.9z"/>
						</g>
					</g>
					<polygon class="st54" points="58.8,374 58.8,542.7 73.7,542.7 73.7,437.9 					"/>
					<path class="st43" d="M81,552.8c0-2.6,2.1-4.7,4.7-4.7c2.6,0,4.7,2.1,4.7,4.7c0,2.6-2.1,4.7-4.7,4.7
						C83.1,557.5,81,555.4,81,552.8z"/>
					<path class="st46" d="M83.4,552.8c0-1.3,1-2.3,2.3-2.3c1.3,0,2.3,1,2.3,2.3c0,1.3-1,2.3-2.3,2.3C84.5,555,83.4,554,83.4,552.8z
						"/>
					<path class="st43" d="M166.3,552.8c0-2.6,2.1-4.7,4.7-4.7c2.6,0,4.7,2.1,4.7,4.7c0,2.6-2.1,4.7-4.7,4.7
						C168.5,557.5,166.3,555.4,166.3,552.8z"/>
					<path class="st46" d="M168.8,552.8c0-1.3,1-2.3,2.3-2.3c1.3,0,2.3,1,2.3,2.3c0,1.3-1,2.3-2.3,2.3
						C169.8,555,168.8,554,168.8,552.8z"/>
					<path class="st43" d="M62.3,552.8c0-2.6,2.1-4.7,4.7-4.7c2.6,0,4.7,2.1,4.7,4.7c0,2.6-2.1,4.7-4.7,4.7
						C64.5,557.5,62.3,555.4,62.3,552.8z"/>
					<path class="st46" d="M64.8,552.8c0-1.3,1-2.3,2.3-2.3s2.3,1,2.3,2.3c0,1.3-1,2.3-2.3,2.3S64.8,554,64.8,552.8z"/>
					<rect x="87.7" y="447.6" class="st55" width="31.1" height="23.1"/>
					<rect x="125" y="447.6" class="st54" width="46.1" height="23.1"/>
				</g>
				<path class="st54" d="M113.6,517.6H80.7c-0.5,0-0.9-0.4-0.9-0.9l0,0c0-0.5,0.4-0.9,0.9-0.9h32.9c0.5,0,0.9,0.4,0.9,0.9l0,0
					C114.5,517.2,114.1,517.6,113.6,517.6z"/>
				<path class="st54" d="M80.7,521.3h32.9c0.5,0,0.9,0.4,0.9,0.9l0,0c0,0.5-0.4,0.9-0.9,0.9H80.7c-0.5,0-0.9-0.4-0.9-0.9l0,0
					C79.8,521.8,80.2,521.3,80.7,521.3z"/>
				<path class="st54" d="M80.7,526.9h32.9c0.5,0,0.9,0.4,0.9,0.9l0,0c0,0.5-0.4,0.9-0.9,0.9H80.7c-0.5,0-0.9-0.4-0.9-0.9l0,0
					C79.8,527.4,80.2,526.9,80.7,526.9z"/>
			</g>
		</g>
		<g>
			<g>
				<path class="st56" d="M365,362.4c0,0,8.4-0.1,12.8,0.8c4.4,0.9,11.9,3.6,9.5,4.2c-2.4,0.7-12.1,1.6-14.7,2
					c-2.6,0.4-4.9,3.4-7.6,2.9c-2.7-0.4-6.6-4.2-6.6-4.2L365,362.4z"/>
				<path class="st56" d="M374.8,373.9l-9.8-1.5c0,0,1.8-4,3.4-2.9c1.6,1.1,4.7,2,5.6,2.3C375,372.1,374.8,373.9,374.8,373.9z"/>
				<path class="st57" d="M362.4,366.2c2.6-3.1,2.6-3.8,2.6-3.8s-24.5-30.3-26.7-33.3c-2.2-2.9-20.3-51.4-20.3-51.4l0,0
					c-15.3-2-26.2,14.5-18.3,27.8c9.4,15.9,19.2,32.3,22,35.9c9.3,12.2,36.1,28,36.1,28S360.4,368.7,362.4,366.2z"/>
				<g>
					
						<rect x="331" y="359.1" transform="matrix(0.7735 0.6338 -0.6338 0.7735 309.5862 -127.66)" class="st43" width="4.8" height="20.5"/>
					<path class="st51" d="M347.1,358.4C347.1,358.4,347,358.4,347.1,358.4c-1.3,1.5-3.4,1.7-4.9,0.6c-1.7-1.2-2-3.6-0.7-5.2
						c0,0,0,0,0,0c0.5-0.6-0.1-1.4-0.8-1.1c-1,0.4-1.9,1.1-2.5,2c-1.6,2.3-1.3,5.5,0.8,7.4c2.4,2.2,6.2,2,8.2-0.5
						c0.6-0.7,1-1.6,1.2-2.5C348.5,358.2,347.5,357.8,347.1,358.4z"/>
					<path class="st51" d="M326.7,383.2C326.7,383.2,326.7,383.2,326.7,383.2c1.2-1.5,1-3.7-0.4-5c-1.5-1.4-3.9-1.2-5.3,0.4
						c0,0,0,0,0,0c-0.5,0.6-1.4,0.2-1.3-0.6c0.2-1,0.7-2,1.5-2.9c1.9-2,5.1-2.3,7.4-0.7c2.7,1.9,3.1,5.7,1.1,8.2
						c-0.6,0.7-1.4,1.3-2.2,1.6C326.8,384.6,326.2,383.8,326.7,383.2z"/>
				</g>
				<path class="st56" d="M321.2,365.2c0,0,9.4-0.5,10.9-0.1c1.5,0.4,5.9,2.5,5.9,2.9c0,0.4,0,1.8-1,1.7c-0.9-0.1-1.8-0.8-1.6-0.4
					c0.1,0.4,3.6,0.8,3.4,2.5c-0.2,1.8-2.5,6.9-6.6,6.4c-4.1-0.5-11.2-6.6-11.8-6.7C314.7,369.9,321.2,365.2,321.2,365.2z"/>
				<g>
					<path class="st47" d="M192.5,530.3c0,0-5.8,5.4-4.7,9.3c1.1,3.8,6.4,6.4,7.1,11.1c0.7,4.7,3.6,7.3,6.1,7.3c2.6,0,12.2,0,12.2,0
						s1.9-3.3-2.7-4.3c-4.6-1-6.3-6.5-6-11.7c0.3-5.1-0.4-12-0.4-12l-9.7-2.3L192.5,530.3z"/>
					<path class="st47" d="M264.1,545.1c0,0-1.4,11.4,1.1,12.7c2.6,1.3,33.2,0.9,33.2,0.9s0-3.8-5.3-4.7c-5.3-0.9-14.5-4-16.1-11
						C275.5,536,264.1,545.1,264.1,545.1z"/>
					<linearGradient id="SVGID_1_" gradientUnits="userSpaceOnUse" x1="243.4661" y1="457.0971" x2="291.8343" y2="457.0971">
						<stop  offset="0" style="stop-color:#2B3582"/>
						<stop  offset="1" style="stop-color:#150E42"/>
					</linearGradient>
					<path class="st6" d="M291.8,371c0,0-1.7,21.6-3.8,47.6c-2.8,35.3-6.1,78.6-6.4,86.8c-0.6,14.3-2.9,37-2.9,37s-5.4,5.4-16.2,3.1
						c0,0-9.7-32.5-12.4-67c0-0.6-0.1-1.1-0.1-1.7c-2.6-35-6.6-108.9-6.6-108.9L291.8,371z"/>
					<linearGradient id="SVGID_2_" gradientUnits="userSpaceOnUse" x1="243.4661" y1="423.3315" x2="277.948" y2="423.3315">
						<stop  offset="0" style="stop-color:#2B3582"/>
						<stop  offset="1" style="stop-color:#150E42"/>
					</linearGradient>
					<path class="st7" d="M277.9,388.3l-27.8,90.3c0-0.6-0.1-1.1-0.1-1.7c-2.6-35-6.6-108.9-6.6-108.9L277.9,388.3z"/>
					<linearGradient id="SVGID_3_" gradientUnits="userSpaceOnUse" x1="192.4585" y1="434.8371" x2="283.9288" y2="434.8371">
						<stop  offset="0" style="stop-color:#2B3582"/>
						<stop  offset="1" style="stop-color:#150E42"/>
					</linearGradient>
					<path class="st15" d="M283.9,373.6c0,0-31.2,78.2-51.7,115s-26.9,47-26.9,47s-11.8-4.7-12.8-7.9c0,0,7.8-71,21.6-88.3
						c7.8-9.8,8-29,11.5-48.9c4.8-27.2,15.1-56.5,15.1-56.5L283.9,373.6z"/>
				</g>
				<path class="st56" d="M298.2,264.6c0,0,13,22.2,25.5,25c0,0-0.5-5.6-2.6-10.4c-0.6-1.4-0.4-3.1,0.5-4.3c0.5-0.7,1.1-1.3,1.5-2
					c3.1-4.1,4.5-6.5,4.5-6.5l-4.4-11.3l-3-7.7c-1.3,2.5-2.8,4.7-4.4,6.5C308,263.4,298.2,264.6,298.2,264.6z"/>
				<path class="st61" d="M316,254c0,0-1.4,11.2,7.2,19c3.1-4.1,4.5-6.5,4.5-6.5l-4.4-11.3C318.9,253.8,316,254,316,254z"/>
				<path class="st56" d="M331.1,268.1c0,0-19.1-7.2-14.5-19c4.7-11.8,5.3-20.7,17.7-16.6c12.4,4.1,13,9.5,12.4,13.9
					C346.2,250.6,336.2,269.6,331.1,268.1z"/>
				<path class="st52" d="M311.4,339.4c0.6-1.1,1.2-2.3,1.8-3.4c3.1-5.8,5.7-12,7.7-18c1.6-4.7,2.7-9.2,3.4-13.5
					c1-6.3,0.8-11.2-0.2-16.2c0,0-1.9-7.6-2-7.6c-12.1-5.4-15-19.3-15-19.3s-40.8,7.8-63.1,62.6c0,0-1.4,4.1-3.3,10
					c-0.4,1.3-0.8,2.7-1.3,4.1C236.5,348.1,303.8,354.4,311.4,339.4z"/>
				<path class="st57" d="M272.2,300.8c0,0-11.6,20.3-4.5,35.8c7.1,15.5,24.2-8.3,24.2-8.3L272.2,300.8z"/>
				<linearGradient id="SVGID_4_" gradientUnits="userSpaceOnUse" x1="311.2535" y1="238.747" x2="353.9615" y2="238.747">
					<stop  offset="0" style="stop-color:#2B3582"/>
					<stop  offset="1" style="stop-color:#150E42"/>
				</linearGradient>
				<path class="st16" d="M313.7,227.2c-0.1-0.3-0.5-0.5-1.5-0.8c0,0,0.9-0.3,1.9-0.1c0.5-1.3,1.8-3.5,4.2-3.6c0,0-1.4,0.4-1.9,1.8
					c3.3-2.2,9.5-2.8,25,2.1c20.4,6.5,10.4,18.5,7.3,19.4c-3.1,1-8.8-5-13.9-5.8c-5.1-0.8-7.8,6.4-9.7,7c-1.9,0.6-0.9-1-2.9-2.6
					c-2.1-1.6-3.2,2.2-3.1,4.9c0.1,2.7-3.9,5.3-3.9,5.3s0,0-2.4-4.2c-2.4-4.2-1.9-19.8,0.3-22.6
					C313.3,227.7,313.5,227.4,313.7,227.2z"/>
				<linearGradient id="SVGID_5_" gradientUnits="userSpaceOnUse" x1="233.517" y1="338.3012" x2="324.2788" y2="338.3012">
					<stop  offset="0" style="stop-color:#2B3582"/>
					<stop  offset="1" style="stop-color:#150E42"/>
				</linearGradient>
				<path class="st17" d="M291.1,380.1c0.7-23,12.7-25.7,20.3-40.7c0.6-1.1,1.2-2.3,1.8-3.4c3.1-5.8,5.7-12,7.7-18
					c1.6-4.7,2.7-9.2,3.4-13.5l-20.7-7.9c-4-1.5-8.5,0.2-10.5,3.9c-5.1,9.7-16.1,26.7-31.3,29.9c-10.9,2.3-17.4,3.2-21.1,3.6
					c-0.4,1.3-0.8,2.7-1.3,4.1c-2.9,9.9-7,22.3-5.7,31.5C234.8,376.8,291.1,382,291.1,380.1z"/>
				<linearGradient id="SVGID_6_" gradientUnits="userSpaceOnUse" x1="301.0018" y1="280.9982" x2="310.2859" y2="280.9982">
					<stop  offset="0" style="stop-color:#2B3582"/>
					<stop  offset="1" style="stop-color:#150E42"/>
				</linearGradient>
				<path class="st19" d="M304.1,262.2c0,0,4.1,5,5.7,18c1.4,11-0.8,19.7-0.8,19.7l-3.5-1.1c0,0,4.6-18.8-4.5-35.5
					C301,263.2,301.2,262.9,304.1,262.2z"/>
				<path class="st52" d="M324.3,370.4c1.5-4,0-7,0-7s-22.4-20.4-23.7-24.1c-1.3-3.7,4.4-46.2,4.4-46.2s-15.1-15.7-24.3-13.8
					c-4.2,0.8-9.7,10-9.7,10.4c1.8,17.4,5.2,46.7,7.9,53.5c5.9,15.2,39.6,30.7,39.6,30.7S323.1,373.7,324.3,370.4z"/>
			</g>
			<path class="st46" d="M309.1,303.7c-0.2-1-1.2-1.5-2.2-1.3c-1,0.2-1.5,1.2-1.3,2.2c0.2,1,1.2,1.5,2.2,1.3
				C308.8,305.6,309.3,304.6,309.1,303.7z"/>
		</g>
		<g>
			<polygon class="st44" points="527.5,546.2 507.7,559.4 478,559.4 497.7,546.2 			"/>
			<polygon class="st44" points="595.2,546.2 575.3,559.5 545.7,559.4 565.5,546.2 			"/>
			<polygon class="st48" points="385.8,549.8 371.7,559.2 341.9,559.2 345.5,556.8 			"/>
			<polygon class="st44" points="458.9,546.2 439.3,559.3 409.6,559.3 429.2,546.2 			"/>
		</g>
		<g>
			<polygon class="st44" points="812.1,546.2 792,559.6 762.3,559.6 782.4,546.2 			"/>
			<polygon class="st44" points="879.8,546.2 859.6,559.7 829.9,559.7 850.1,546.2 			"/>
			<polygon class="st44" points="675.9,546.2 655.9,559.5 626.1,559.5 646.1,546.2 			"/>
			<polygon class="st44" points="713.9,546.2 693.8,559.6 723.5,559.6 743.6,546.2 			"/>
		</g>
		<g>
			<polygon class="st44" points="1079.9,546.2 1060.7,559 1060.6,559 1030.8,559.1 1050.1,546.2 			"/>
			<polygon class="st44" points="943.6,546.2 923.7,559.5 895.1,559.6 893.8,559.6 913.9,546.2 			"/>
			<polygon class="st44" points="1011.3,546.2 991.8,559.2 963.9,559.4 961.9,559.4 981.6,546.2 			"/>
		</g>
		<path class="st65" d="M1126.1,559.9H14c-0.6,0-1.1-0.5-1.1-1.1v-0.1c0-0.6,0.5-1.1,1.1-1.1h1112.1c0.6,0,1.1,0.5,1.1,1.1v0.1
			C1127.2,559.4,1126.7,559.9,1126.1,559.9z"/>
	</g>
	<g>
		<g class="st66">
			<path class="st44" d="M773.5,104.9l0.9,4.3c-1.9,0.8-3.6,1.7-5.3,2.7l-2.9-3.3c-0.8-0.9-2.1-1-3-0.2l-5.6,5
				c-0.9,0.8-1,2.2-0.2,3.1l2.9,3.3c-1.2,1.6-2.3,3.2-3.3,5l-4.2-1.4c-1.1-0.4-2.4,0.2-2.7,1.4l-2.4,7.2c-0.4,1.1,0.2,2.4,1.3,2.8
				l4.2,1.4c-0.3,2-0.4,4-0.4,6l-4.4,0.9c-1.2,0.2-1.9,1.4-1.7,2.6l1.4,7.4c0.2,1.2,1.4,2,2.6,1.7l4.4-0.9c0.7,1.9,1.6,3.7,2.6,5.4
				l-3.4,3c-0.9,0.8-1,2.2-0.2,3.1l5,5.7c0.8,0.9,2.2,1,3.1,0.2l3.4-3c1.6,1.3,3.2,2.4,5,3.3l-1.4,4.3c-0.4,1.2,0.2,2.4,1.4,2.8
				l7.2,2.4c1.1,0.4,2.4-0.2,2.8-1.4l1.4-4.3c2,0.3,4,0.4,6,0.4l0.9,4.4c0.2,1.2,1.4,2,2.6,1.7l7.4-1.6c1.2-0.3,1.9-1.4,1.7-2.6
				l-0.9-4.4c1.9-0.8,3.7-1.7,5.4-2.7l2.9,3.3c0.8,0.9,2.2,1,3.1,0.2l5.6-5.1c0.9-0.8,1-2.2,0.2-3.1l-2.9-3.3
				c1.2-1.6,2.4-3.3,3.3-5.1l4.1,1.4c1.2,0.4,2.4-0.2,2.8-1.4l2.3-7.3c0.4-1.2-0.3-2.4-1.4-2.8l-4.1-1.4c0.3-2,0.4-4,0.3-6.1
				l4.2-0.9c1.2-0.2,1.9-1.4,1.7-2.6l-1.6-7.4c-0.3-1.2-1.4-1.9-2.6-1.7l-4.2,0.9c-0.8-1.9-1.7-3.7-2.7-5.4l3.2-2.9
				c0.9-0.8,1-2.2,0.2-3.1l-5-5.6c-0.8-0.9-2.2-1-3.1-0.2l-3.2,2.9c-1.6-1.2-3.3-2.3-5-3.3l1.3-4.1c0.4-1.1-0.2-2.4-1.4-2.7
				l-7.1-2.3c-1.1-0.4-2.3,0.2-2.7,1.4l-1.3,4.1c-1.9-0.3-3.9-0.4-5.9-0.3l-0.9-4.2c-0.2-1.2-1.4-1.9-2.5-1.7l-7.3,1.5
				C774,102.6,773.3,103.7,773.5,104.9z M761.1,146.4c-2.9-14.4,6.3-28.5,20.5-31.5c14.2-3,28.1,6.2,31.2,20.5
				c3,14.5-6.1,28.7-20.5,31.8C778,170.3,764,160.9,761.1,146.4z"/>
		</g>
		<g>
			<path class="st44" d="M714.3,155.4l0.5,2.7c-1.2,0.5-2.3,1-3.3,1.7l-1.8-2c-0.5-0.6-1.3-0.6-1.9-0.1l-3.5,3.1
				c-0.6,0.5-0.6,1.4-0.1,1.9l1.8,2.1c-0.8,1-1.5,2-2,3.1l-2.6-0.9c-0.7-0.2-1.5,0.2-1.7,0.9l-1.5,4.5c-0.2,0.7,0.1,1.5,0.8,1.7
				l2.6,0.9c-0.2,1.2-0.3,2.5-0.2,3.8l-2.7,0.6c-0.7,0.2-1.2,0.9-1.1,1.6l0.9,4.7c0.1,0.7,0.9,1.2,1.6,1.1l2.8-0.6
				c0.5,1.2,1,2.3,1.6,3.4l-2.1,1.9c-0.6,0.5-0.6,1.4-0.1,2l3.1,3.6c0.5,0.6,1.4,0.6,1.9,0.1l2.1-1.9c1,0.8,2,1.5,3.1,2.1l-0.9,2.7
				c-0.2,0.7,0.1,1.5,0.9,1.8l4.5,1.5c0.7,0.2,1.5-0.2,1.7-0.9l0.9-2.7c1.2,0.2,2.5,0.3,3.8,0.2l0.6,2.8c0.2,0.8,0.9,1.3,1.6,1.1
				l4.7-1c0.7-0.2,1.2-0.9,1.1-1.7l-0.6-2.8c1.2-0.5,2.3-1.1,3.4-1.7l1.8,2.1c0.5,0.6,1.4,0.6,1.9,0.1l3.5-3.2
				c0.6-0.5,0.6-1.4,0.1-2l-1.8-2.1c0.8-1,1.5-2.1,2.1-3.2l2.6,0.9c0.7,0.2,1.5-0.2,1.7-0.9l1.4-4.6c0.2-0.7-0.2-1.5-0.9-1.8
				l-2.6-0.9c0.2-1.3,0.2-2.5,0.2-3.8l2.6-0.6c0.7-0.2,1.2-0.9,1-1.6l-1-4.7c-0.2-0.7-0.9-1.2-1.6-1.1l-2.6,0.6
				c-0.5-1.2-1.1-2.3-1.7-3.4l2-1.8c0.6-0.5,0.6-1.4,0.1-1.9l-3.1-3.5c-0.5-0.6-1.4-0.6-1.9-0.1l-2,1.8c-1-0.8-2-1.5-3.2-2.1
				l0.8-2.6c0.2-0.7-0.2-1.5-0.9-1.7l-4.4-1.5c-0.7-0.2-1.5,0.2-1.7,0.9l-0.8,2.6c-1.2-0.2-2.5-0.2-3.7-0.2l-0.5-2.7
				c-0.2-0.7-0.9-1.2-1.6-1l-4.6,1C714.6,153.9,714.1,154.6,714.3,155.4z M706.2,181.5c-1.8-9.2,4.1-18.2,13.1-20.1
				c9.1-1.9,18,3.9,19.9,13.1c1.9,9.3-3.9,18.4-13.1,20.3C717,196.8,708,190.8,706.2,181.5z"/>
		</g>
	</g>
</g>
</svg>
