<?xml version="1.0" encoding="utf-8"?>
<!-- Generator: Adobe Illustrator 23.0.5, SVG Export Plug-In . SVG Version: 6.00 Build 0)  -->
<svg version="1.1" id="Layer_1" xmlns="http://www.w3.org/2000/svg" xmlns:xlink="http://www.w3.org/1999/xlink" x="0px" y="0px"
	 viewBox="0 0 1200 674.8" style="enable-background:new 0 0 1200 674.8;" xml:space="preserve">
<style type="text/css">
	.st0{fill:#D5E7F7;}
	.st1{fill:#C4D9ED;}
	.st2{fill:#ADC9E0;}
	.st3{fill:#1C2948;}
	.st4{fill:#163560;}
	.st5{fill:#739AF0;}
	.st6{fill:url(#SVGID_1_);}
	.st7{fill:url(#SVGID_2_);}
	.st8{fill:#4A82D3;}
	.st9{fill:#2D3A62;}
	.st10{fill:#98BDF4;}
	.st11{fill:#2B478B;}
	.st12{fill:#233862;}
	.st13{fill:#AB7041;}
	.st14{fill:#9C5F33;}
	.st15{fill:url(#SVGID_3_);}
	.st16{fill:url(#SVGID_4_);}
	.st17{fill:url(#SVGID_5_);}
	.st18{fill:#6793E7;}
	.st19{fill:url(#SVGID_6_);}
	.st20{fill:#1F3341;}
	.st21{fill:#2D4454;}
	.st22{fill:#122633;}
	.st23{fill:#FFFFFF;}
	.st24{fill:#85878A;}
	.st25{fill:#555658;}
	.st26{fill:#808184;}
	.st27{fill:url(#SVGID_7_);}
	.st28{fill:#1A2E35;}
	.st29{fill:url(#SVGID_8_);}
	.st30{fill:url(#SVGID_9_);}
	.st31{fill:url(#SVGID_10_);}
	.st32{fill:#FFB27D;}
	.st33{fill:url(#SVGID_11_);}
	.st34{fill:#ED975D;}
	.st35{fill:url(#SVGID_12_);}
	.st36{fill:url(#SVGID_13_);}
	.st37{fill:url(#SVGID_14_);}
	.st38{fill:#466591;}
	.st39{fill:#5574A5;}
	.st40{fill:#66DB8E;}
	.st41{fill:#E9F4FF;}
	.st42{opacity:0.5;}
	.st43{fill:#A8CCFF;}
	.st44{fill:#FF912B;}
	.st45{fill:#1B294B;}
	.st46{fill:#145DEF;}
	.st47{fill:#2A3967;}
	.st48{fill:#D1E4FC;}
	.st49{fill:#25468F;}
	.st50{fill:#CDE3FF;}
	.st51{fill:#A5D2FF;}
	.st52{fill:#214D9A;}
	.st53{fill:#C8DFFD;}
	.st54{fill:#7798F8;}
	.st55{fill:#DAE6FF;}
	.st56{fill:#FFAE73;}
	.st57{fill:#1E3865;}
	.st58{fill:url(#SVGID_15_);}
	.st59{fill:url(#SVGID_16_);}
	.st60{fill:url(#SVGID_17_);}
	.st61{fill:#F9924F;}
	.st62{fill:url(#SVGID_18_);}
	.st63{fill:url(#SVGID_19_);}
	.st64{fill:url(#SVGID_20_);}
	.st65{fill:#2D3554;}
	.st66{opacity:0.4;}
	.st67{fill-rule:evenodd;clip-rule:evenodd;fill:#DEECFC;}
	.st68{fill-rule:evenodd;clip-rule:evenodd;fill:#455563;}
	.st69{fill-rule:evenodd;clip-rule:evenodd;fill:#566578;}
	.st70{fill-rule:evenodd;clip-rule:evenodd;fill:#AEC6CE;}
	.st71{fill-rule:evenodd;clip-rule:evenodd;fill:#91B1BD;}
	.st72{fill-rule:evenodd;clip-rule:evenodd;fill:#EAEEF0;}
	.st73{fill-rule:evenodd;clip-rule:evenodd;fill:#D3E1E7;}
	.st74{fill-rule:evenodd;clip-rule:evenodd;fill:#1483EF;}
	.st75{fill-rule:evenodd;clip-rule:evenodd;fill:#145DEF;}
	.st76{fill-rule:evenodd;clip-rule:evenodd;fill:#47A4AD;}
	.st77{fill-rule:evenodd;clip-rule:evenodd;fill:#EDE5D4;}
	.st78{fill-rule:evenodd;clip-rule:evenodd;fill:#FFFFFF;}
	.st79{fill-rule:evenodd;clip-rule:evenodd;fill:#C8DBE3;}
	.st80{fill-rule:evenodd;clip-rule:evenodd;fill:#145DC3;}
	.st81{fill-rule:evenodd;clip-rule:evenodd;fill:#D9D8D4;}
	.st82{fill-rule:evenodd;clip-rule:evenodd;fill:#E4EBED;}
	.st83{fill-rule:evenodd;clip-rule:evenodd;fill:#6EB7BF;}
	.st84{fill:#1483EF;}
	.st85{fill:#BACFE2;}
	.st86{fill-rule:evenodd;clip-rule:evenodd;fill:#EE9C94;}
	.st87{fill-rule:evenodd;clip-rule:evenodd;fill:#F9BCAF;}
	.st88{fill-rule:evenodd;clip-rule:evenodd;fill:#F6A399;}
	.st89{fill-rule:evenodd;clip-rule:evenodd;fill:#2F1210;}
	.st90{fill-rule:evenodd;clip-rule:evenodd;fill:#ED7660;}
	.st91{fill-rule:evenodd;clip-rule:evenodd;fill:#D33727;}
	.st92{fill-rule:evenodd;clip-rule:evenodd;fill:#A72423;}
	.st93{fill-rule:evenodd;clip-rule:evenodd;fill:#EEB51D;}
	.st94{fill-rule:evenodd;clip-rule:evenodd;fill:#E9938B;}
	.st95{fill-rule:evenodd;clip-rule:evenodd;fill:#2C6F9A;}
	.st96{fill-rule:evenodd;clip-rule:evenodd;fill:#3E7FA9;}
	.st97{fill-rule:evenodd;clip-rule:evenodd;fill:#59C6DB;}
	.st98{fill-rule:evenodd;clip-rule:evenodd;fill:#609DD4;}
	.st99{fill-rule:evenodd;clip-rule:evenodd;fill:#4685B9;}
	.st100{fill-rule:evenodd;clip-rule:evenodd;fill:#CCA440;}
	.st101{fill-rule:evenodd;clip-rule:evenodd;fill:#CC4B27;}
	.st102{fill-rule:evenodd;clip-rule:evenodd;fill:#F3763E;}
	.st103{fill-rule:evenodd;clip-rule:evenodd;fill:#E08077;}
	.st104{fill-rule:evenodd;clip-rule:evenodd;fill:#4F96D1;}
	.st105{fill-rule:evenodd;clip-rule:evenodd;fill:#DFB847;}
	.st106{fill-rule:evenodd;clip-rule:evenodd;fill:#CA2E27;}
	.st107{fill-rule:evenodd;clip-rule:evenodd;fill:#0B0E10;}
	.st108{fill-rule:evenodd;clip-rule:evenodd;fill:#5E5E5E;}
	.st109{fill-rule:evenodd;clip-rule:evenodd;fill:#1B2729;}
	.st110{fill-rule:evenodd;clip-rule:evenodd;fill:#232E30;}
	.st111{fill-rule:evenodd;clip-rule:evenodd;fill:#D4D2D1;}
	.st112{fill-rule:evenodd;clip-rule:evenodd;fill:#F3E8E7;}
	.st113{fill-rule:evenodd;clip-rule:evenodd;fill:#2B3A3A;}
	.st114{fill-rule:evenodd;clip-rule:evenodd;fill:#A29899;}
	.st115{fill:#331410;}
	.st116{fill:#ED7660;}
	.st117{fill-rule:evenodd;clip-rule:evenodd;fill:#3B150E;}
	.st118{fill-rule:evenodd;clip-rule:evenodd;fill:#543119;}
	.st119{fill-rule:evenodd;clip-rule:evenodd;fill:#2A2B2B;}
	.st120{opacity:0.1;}
	.st121{fill:#DFEDFF;}
	.st122{fill:#F6FBFF;}
	.st123{fill:#161616;}
	.st124{fill:#3F4040;}
	.st125{fill:#383838;}
	.st126{fill:#DAD9DA;}
	.st127{fill:#333333;}
	.st128{fill:#C7D5FD;}
	.st129{fill:#A2C1F4;}
	.st130{fill:#7B2718;}
	.st131{fill:#E5E5E4;}
	.st132{fill:#712418;}
	.st133{fill:url(#SVGID_21_);}
	.st134{fill:url(#SVGID_22_);}
	.st135{fill:url(#SVGID_23_);}
	.st136{fill:#FABFA4;}
	.st137{fill:#F4E5CD;}
	.st138{fill:#C78976;}
	.st139{fill:#2A2B2A;}
	.st140{fill:url(#SVGID_24_);}
	.st141{fill:url(#SVGID_25_);}
	.st142{fill:url(#SVGID_26_);}
	.st143{fill:url(#SVGID_27_);}
	.st144{fill:url(#SVGID_28_);}
	.st145{fill:url(#SVGID_29_);}
	.st146{fill:url(#SVGID_30_);}
	.st147{fill:url(#SVGID_31_);}
	.st148{fill:url(#SVGID_32_);}
	.st149{fill:url(#SVGID_33_);}
	.st150{fill:url(#SVGID_34_);}
	.st151{fill:url(#SVGID_35_);}
	.st152{fill:url(#SVGID_36_);}
	.st153{fill:#D4DEFD;}
	.st154{fill:#BCCEFD;}
	.st155{fill:#E1E8FD;}
	.st156{fill:url(#SVGID_37_);}
	.st157{fill:url(#SVGID_38_);}
	.st158{fill:url(#SVGID_39_);}
	.st159{opacity:0.25;fill:url(#SVGID_40_);}
	.st160{opacity:0.25;fill:url(#SVGID_41_);}
	.st161{fill:url(#SVGID_42_);}
	.st162{fill:url(#SVGID_43_);}
	.st163{fill:url(#SVGID_44_);}
	.st164{opacity:0.61;fill:url(#SVGID_45_);}
	.st165{fill:url(#SVGID_46_);}
	.st166{fill:url(#SVGID_47_);}
	.st167{opacity:0.61;fill:url(#SVGID_48_);}
	.st168{fill:url(#SVGID_49_);}
	.st169{fill:url(#SVGID_50_);}
	.st170{fill:url(#SVGID_51_);}
	.st171{fill:url(#SVGID_52_);}
	.st172{fill:url(#SVGID_53_);}
	.st173{fill:url(#SVGID_54_);}
	.st174{fill:url(#SVGID_55_);}
	.st175{fill:url(#SVGID_56_);}
	.st176{fill:#0C1D6D;}
	.st177{fill:url(#SVGID_57_);}
	.st178{fill:url(#SVGID_58_);}
	.st179{fill:url(#SVGID_59_);}
	.st180{fill:url(#SVGID_60_);}
	.st181{fill:url(#SVGID_61_);}
	.st182{fill:url(#SVGID_62_);}
	.st183{fill:url(#SVGID_63_);}
	.st184{fill:url(#SVGID_64_);}
	.st185{fill:url(#SVGID_65_);}
	.st186{fill:url(#SVGID_66_);}
	.st187{fill:url(#SVGID_67_);}
	.st188{fill:url(#SVGID_68_);}
	.st189{fill:url(#SVGID_69_);}
	.st190{fill:url(#SVGID_70_);}
	.st191{fill:url(#SVGID_71_);}
</style>
<g>
	<g>
		<g>
			<g>
				<path class="st48" d="M1200,269.7v61.1c-0.1,1.1-0.1,2.1-0.2,3.2c-0.1,1.3-0.2,2.6-0.3,3.9c-0.4,5.5-0.9,11.2-1.5,17
					c-0.1,1.2-0.2,2.3-0.4,3.5c-0.6,5.6-1.2,11.2-2,17c-0.1,1.2-0.3,2.4-0.5,3.5c-0.8,5.6-1.6,11.3-2.5,17c-0.2,1.2-0.4,2.4-0.6,3.6
					c-0.7,4.5-1.5,9-2.3,13.4c-0.4,2.4-0.9,4.7-1.3,7.1c-1.1,5.7-2.3,11.4-3.6,17c-0.3,1.2-0.5,2.3-0.8,3.5
					c-1.3,5.7-2.7,11.4-4.2,16.9c-0.3,1.2-0.6,2.4-1,3.5c-1.3,4.7-2.7,9.4-4.1,14c-0.8,2.5-1.6,5-2.4,7.5c-1.9,5.8-4,11.5-6.2,16.9
					c-0.5,1.2-0.9,2.4-1.4,3.5c-2.4,5.9-5,11.6-7.7,16.9c-0.6,1.1-1.1,2.2-1.7,3.3c-3.3,6.2-6.7,11.8-10.4,16.9
					c-1.2,1.6-2.4,3.2-3.6,4.7c-5.9,7.3-12.2,13-19,16.9c-0.5,0.3-1,0.6-1.5,0.8c-0.1,0.1-0.3,0.1-0.4,0.2l-390.7,0.3l-72.5-0.6
					l-143.5-1.1l-433.3-3.3c0,0-80.4-61-80.4-166.9c0-1.5,0-2.9,0-4.4c1.2-56.6,13-164.5,114.7-220.5v51h23.3v-62.2
					c7.4-3.1,15.2-5.9,23.4-8.5c10.4-3.3,21.5-6.1,33.3-8.4c1.2-0.2,2.3-0.5,3.5-0.7c5.6-1.1,11-2.3,16.2-3.7v75.7h25.8v-17.7
					l30.4,0.2v-28.7h6.1v-5.7h0.8v5.7h23.5v0h4.7v-5.7h0.8v5.7h5.7v57h36.2v21h20.1v-12.2h18.7v-48.3h9.3V158h1.4v22.6h22.3v-42.3
					h2.2v42.3h14.8V180h0v-5.4h0v-5.1h0v-8.4h0v-5.4h0v-8.4h0v-5.4h0v-8.4h0v-5.8h0v-8.4h0v-7.4h0v-8.4h0v-5.6h4.4v-6.3h0.7v6.3
					h32.6v-6.3h0.7v6.3h5.9v44.2l4.2,0v0h0v-8.4h0v-5.8h0v-8.4h0v-5.8h0v-8.4h0v0h39.5v0h6.8c0.4,0.2,0.7,0.4,1.1,0.7v48.2H562v63.3
					h23.3V100h5.1v-8.2h0.9v8.2h18.4v-8.2h0.9v8.2h26.1v-8.2h0.9v8.2h16.4v-8.2h0.9v8.2h6.7v109.3h25.8v-17.7l30.4,0.2v-28.7h6.1
					v-5.7h0.8v5.7h23.5v0h4.7v-5.7h0.8v5.7h5.7v57h36.2v21h20.1v-12.2h18.7v-48.3h9.3V158h1.4v22.6h22.3v-42.3h2.2v42.3h14.8V180h0
					v-5.4h0v-5.1h0v-8.4h0v-5.4h0v-8.4h0v-5.4h0v-8.4h0v-5.8h0v-8.4h0v-7.4h0v-8.4h0v-5.6h4.4v-6.3h0.7v6.3h32.6v-6.3h0.7v6.3h5.9
					v44.2l4.1,0h0.1v0h0v-8.4h0v-5.8h0v-8.4h0v-5.8h0v-8.4h0v0h39.5v0h6.8c0.4,0.2,0.7,0.4,1.1,0.7v48.2h48.5v63.3h23.3V100h5.1
					v-8.2h0.9v8.2h18.4v-8.2h0.9v8.2h26.1v-8.2h0.9v8.2h24.1v109.3h25.8v-17.7l30.4,0.2v-7.2c0.4,1.7,0.8,3.4,1.2,5.1
					c0.3,1.2,0.6,2.4,0.8,3.6c0.2,1,0.5,2.1,0.7,3.1c0.9,4.2,1.8,8.3,2.6,12.5c0.1,0.5,0.2,0.9,0.3,1.4c0.2,1.2,0.5,2.4,0.7,3.5
					c1.1,5.6,2.1,11.3,3.1,17c0.2,1.2,0.4,2.3,0.6,3.5c0.9,5.7,1.8,11.3,2.6,17c0.2,1.2,0.3,2.4,0.5,3.5c0.5,3.5,1,7,1.4,10.4
					C1199.7,266.6,1199.8,268.1,1200,269.7z"/>
				<g>
					<rect x="603.5" y="100" class="st120" width="58.3" height="18.5"/>
					<rect x="603.5" y="128.5" class="st120" width="58.3" height="18.5"/>
					<rect x="603.5" y="157.6" class="st120" width="58.3" height="18.5"/>
					<rect x="603.5" y="187.2" class="st120" width="58.3" height="18.5"/>
					<rect x="603.5" y="215.7" class="st120" width="58.3" height="18.5"/>
					<g>
						<rect x="884.6" y="97.6" class="st120" width="27.2" height="11.3"/>
						<rect x="884.6" y="115" class="st120" width="27.2" height="11.3"/>
						<rect x="884.6" y="132.6" class="st120" width="27.2" height="11.3"/>
						<rect x="884.6" y="150.6" class="st120" width="27.2" height="11.3"/>
						<rect x="884.6" y="167.9" class="st120" width="27.2" height="11.3"/>
					</g>
					<g>
						<rect x="884.6" y="187" class="st120" width="27.2" height="11.3"/>
						<rect x="884.6" y="204.4" class="st120" width="27.2" height="11.3"/>
						<rect x="884.6" y="222" class="st120" width="27.2" height="11.3"/>
						<rect x="884.6" y="240" class="st120" width="27.2" height="11.3"/>
						<rect x="884.6" y="257.3" class="st120" width="27.2" height="11.3"/>
					</g>
					<g>
						<rect x="933" y="105" class="st120" width="29.1" height="11.3"/>
						<rect x="933" y="122.3" class="st120" width="29.1" height="11.3"/>
						<rect x="933" y="140" class="st120" width="29.1" height="11.3"/>
						<rect x="933" y="158" class="st120" width="29.1" height="11.3"/>
						<rect x="933" y="175.3" class="st120" width="29.1" height="11.3"/>
					</g>
					<g>
						<rect x="933" y="193.4" class="st120" width="29.1" height="11.3"/>
						<rect x="933" y="210.7" class="st120" width="29.1" height="11.3"/>
						<rect x="933" y="228.4" class="st120" width="29.1" height="11.3"/>
						<rect x="933" y="246.4" class="st120" width="29.1" height="11.3"/>
						<rect x="933" y="263.7" class="st121" width="29.1" height="11.3"/>
					</g>
					<g>
						<rect x="933" y="283.6" class="st121" width="29.1" height="11.3"/>
						<rect x="933" y="300.9" class="st121" width="29.1" height="11.3"/>
						<rect x="933" y="318.6" class="st121" width="29.1" height="11.3"/>
						<rect x="933" y="336.6" class="st121" width="29.1" height="11.3"/>
						<rect x="933" y="353.9" class="st121" width="29.1" height="11.3"/>
					</g>
					<rect x="1075.6" y="100" class="st120" width="53.1" height="18.5"/>
					<rect x="1075.6" y="128.5" class="st120" width="53.1" height="18.5"/>
					<rect x="1075.6" y="157.6" class="st120" width="53.1" height="18.5"/>
					<rect x="1075.6" y="187.2" class="st120" width="53.1" height="18.5"/>
					<rect x="1075.6" y="215.7" class="st120" width="53.1" height="18.5"/>
					<g>
						<rect x="437" y="97.6" class="st120" width="29.1" height="11.3"/>
						<rect x="437" y="115" class="st120" width="29.1" height="11.3"/>
						<rect x="437" y="132.6" class="st120" width="29.1" height="11.3"/>
						<rect x="437" y="150.6" class="st120" width="29.1" height="11.3"/>
						<rect x="437" y="167.9" class="st120" width="29.1" height="11.3"/>
					</g>
					<g>
						<rect x="437" y="187" class="st120" width="29.1" height="11.3"/>
						<rect x="437" y="204.4" class="st120" width="29.1" height="11.3"/>
						<rect x="437" y="222" class="st120" width="29.1" height="11.3"/>
						<rect x="437" y="240" class="st120" width="29.1" height="11.3"/>
						<rect x="437" y="257.3" class="st120" width="29.1" height="11.3"/>
					</g>
					<g>
						<rect x="486.3" y="105" class="st120" width="33.1" height="11.3"/>
						<rect x="486.3" y="122.3" class="st120" width="33.1" height="11.3"/>
						<rect x="486.3" y="140" class="st120" width="33.1" height="11.3"/>
						<rect x="486.3" y="158" class="st120" width="33.1" height="11.3"/>
						<rect x="486.3" y="175.3" class="st120" width="33.1" height="11.3"/>
					</g>
					<g>
						<rect x="486.3" y="193.4" class="st120" width="33.1" height="11.3"/>
						<rect x="486.3" y="210.7" class="st120" width="33.1" height="11.3"/>
						<rect x="486.3" y="228.4" class="st120" width="33.1" height="11.3"/>
						<rect x="486.3" y="246.4" class="st120" width="33.1" height="11.3"/>
						<rect x="486.3" y="263.7" class="st120" width="33.1" height="11.3"/>
					</g>
					<g>
						<rect x="486.3" y="283.6" class="st120" width="33.1" height="11.3"/>
						<rect x="486.3" y="300.9" class="st120" width="33.1" height="11.3"/>
						<rect x="486.3" y="318.6" class="st120" width="33.1" height="11.3"/>
						<rect x="486.3" y="336.6" class="st120" width="33.1" height="11.3"/>
						<rect x="486.3" y="353.9" class="st121" width="33.1" height="11.3"/>
					</g>
				</g>
			</g>
			<path class="st48" d="M450.4,34.5c0,0,9.6-20.3,32.5-18c0,0,33.3-33.8,68.8-4.5c0,0,37.7-7.3,65.7,6.3
				c18.6,9,24.8,18.5,24.8,18.5L450.4,34.5z"/>
			<path class="st122" d="M655.5,91.7c0,0,6.2-13.8,21.1-12.3c0,0,21.6-23,44.6-3.1c0,0,24.4-4.9,42.5,4.3
				c12.1,6.1,16.1,12.6,16.1,12.6L655.5,91.7z"/>
			<path class="st48" d="M830.8,30.7c0,0,5.7-13.4,19.2-11.9c0,0,19.6-22.4,40.6-3c0,0,22.3-4.8,38.7,4.2c11,6,14.6,12.3,14.6,12.3
				L830.8,30.7z"/>
		</g>
		<ellipse class="st48" cx="600" cy="589.4" rx="600" ry="34.4"/>
	</g>
	<g>
		<ellipse class="st120" cx="511.5" cy="595.5" rx="392.2" ry="5.1"/>
		<g>
			<rect x="177.9" y="468.8" class="st123" width="150.1" height="86.9"/>
			<polygon class="st123" points="658.3,549.4 808.4,534.6 808.4,467.1 658.3,467.1 			"/>
			<path class="st46" d="M897.8,534.6l-94.8,7.9c0.1-1.5,0.1-2.9,0.1-4.4c0-24.3-13-45.6-32.4-57.3l0,0c-10-6-21.8-9.5-34.3-9.5
				c-36.9,0-66.8,29.9-66.8,66.8c0,5.3,0.6,10.5,1.8,15.4l-5.6,0.5l-350.5,6.1c2.4-6.9,3.7-14.3,3.7-22c0-36.9-29.9-66.8-66.8-66.8
				c-27.7,0-51.5,16.9-61.6,41h0c-3.3,7.9-5.2,16.7-5.2,25.8c0,8.5,1.6,16.7,4.5,24.2l-4.4,0.1l-82.1-10l7.1-12.6
				c0,0-2-12.2-1.9-27.5c0-6,0.4-12.4,1.3-18.8c1.3-8.6,3.5-17,7.5-24c2.2-3.9,5-7.4,8.3-10.1c25.1-20.4,97.7-39.9,195-48.9l0,0
				c1.1-0.5,84.3-41.4,117.7-53.8c4.2-1.6,7.6-2.7,9.9-3.2c21.4-4.7,136.6-15.2,224-8.1c0,0,5,1.7,12.9,5
				c15.9,6.5,43.7,19.1,67.6,35.8c0,0,124,7.6,130.2,14.2c3.6,3.9,4.6,10.8,4.8,15.8c0.1,3.5-0.1,6-0.1,6s0.6,8.3,2.8,18.4
				c2.7,12.5,7.6,27.8,16.7,33.8C907.3,474.6,913,504.9,897.8,534.6z"/>
			
				<ellipse transform="matrix(0.1602 -0.9871 0.9871 0.1602 -319.261 700.8157)" class="st124" cx="252.2" cy="538" rx="57.3" ry="57.3"/>
			
				<ellipse transform="matrix(0.1602 -0.9871 0.9871 0.1602 -319.261 700.8157)" class="st125" cx="252.2" cy="538" rx="44.9" ry="44.9"/>
			
				<ellipse transform="matrix(0.9239 -0.3827 0.3827 0.9239 -186.6962 137.4774)" class="st126" cx="252.2" cy="538" rx="42.6" ry="42.6"/>
			
				<ellipse transform="matrix(0.7071 -0.7071 0.7071 0.7071 -306.5705 335.9354)" class="st127" cx="252.2" cy="538" rx="40.5" ry="40.5"/>
			
				<ellipse transform="matrix(0.1602 -0.9871 0.9871 0.1602 -319.261 700.8156)" class="st126" cx="252.2" cy="538" rx="7.2" ry="7.2"/>
			<g>
				<polygon class="st126" points="252.2,538 252.2,496.6 248.7,496.6 251.3,538 				"/>
				<polygon class="st126" points="252.2,538 252.2,496.6 255.7,496.6 253.2,538 				"/>
			</g>
			<g>
				<polygon class="st126" points="252.2,538 252.2,579.5 248.7,579.5 251.3,538 				"/>
				<polygon class="st126" points="252.2,538 252.2,579.5 255.7,579.5 253.2,538 				"/>
			</g>
			<g>
				<polygon class="st126" points="252.2,538 222.9,508.7 220.5,511.2 251.5,538.7 				"/>
				<polygon class="st126" points="252.2,538 222.9,508.7 225.4,506.3 252.9,537.4 				"/>
			</g>
			<g>
				<polygon class="st126" points="252.2,538 281.5,567.3 279.1,569.8 251.6,538.7 				"/>
				<polygon class="st126" points="252.2,538 281.5,567.3 284,564.9 252.9,537.4 				"/>
			</g>
			<g>
				<polygon class="st126" points="252.2,538 281.5,508.7 279.1,506.3 251.6,537.4 				"/>
				<polygon class="st126" points="252.2,538 281.5,508.7 284,511.2 252.9,538.7 				"/>
			</g>
			<g>
				<polygon class="st126" points="252.2,538 222.9,567.3 220.5,564.9 251.5,537.4 				"/>
				<polygon class="st126" points="252.2,538 222.9,567.3 225.4,569.8 252.9,538.7 				"/>
			</g>
			<g>
				<polygon class="st126" points="252.2,538 293.7,538 293.7,534.6 252.2,537.1 				"/>
				<polygon class="st126" points="252.2,538 293.7,538 293.7,541.5 252.2,539 				"/>
			</g>
			<g>
				<polygon class="st126" points="252.2,538 210.8,538 210.8,534.6 252.2,537.1 				"/>
				<polygon class="st126" points="252.2,538 210.8,538 210.8,541.5 252.2,539 				"/>
			</g>
			<path class="st127" d="M255.3,538c0,1.7-1.4,3.1-3.1,3.1s-3.1-1.4-3.1-3.1c0-1.7,1.4-3.1,3.1-3.1S255.3,536.3,255.3,538z"/>
			<g>
				
					<ellipse transform="matrix(0.1602 -0.9871 0.9871 0.1602 87.856 1179.3245)" class="st124" cx="737" cy="538" rx="57.3" ry="57.3"/>
				
					<ellipse transform="matrix(0.1602 -0.9871 0.9871 0.1602 87.856 1179.3245)" class="st125" cx="737" cy="538" rx="44.9" ry="44.9"/>
				
					<ellipse transform="matrix(0.9239 -0.3827 0.3827 0.9239 -149.7953 322.9903)" class="st126" cx="737" cy="538" rx="42.6" ry="42.6"/>
				
					<ellipse transform="matrix(0.2298 -0.9732 0.9732 0.2298 44.0284 1131.6943)" class="st127" cx="737" cy="538" rx="40.5" ry="40.5"/>
				
					<ellipse transform="matrix(8.248129e-02 -0.9966 0.9966 8.248129e-02 140.007 1228.1353)" class="st126" cx="737" cy="538" rx="7.2" ry="7.2"/>
				<g>
					<polygon class="st126" points="737,538 737,496.6 733.5,496.6 736,538 					"/>
					<polygon class="st126" points="737,538 737,496.6 740.5,496.6 737.9,538 					"/>
				</g>
				<g>
					<polygon class="st126" points="737,538 737,579.5 733.5,579.5 736,538 					"/>
					<polygon class="st126" points="737,538 737,579.5 740.5,579.5 737.9,538 					"/>
				</g>
				<g>
					<polygon class="st126" points="737,538 707.7,508.7 705.2,511.2 736.3,538.7 					"/>
					<polygon class="st126" points="737,538 707.7,508.7 710.2,506.3 737.7,537.4 					"/>
				</g>
				<g>
					<polygon class="st126" points="737,538 766.3,567.3 763.8,569.8 736.3,538.7 					"/>
					<polygon class="st126" points="737,538 766.3,567.3 768.7,564.9 737.7,537.4 					"/>
				</g>
				<g>
					<polygon class="st126" points="737,538 766.3,508.7 763.8,506.3 736.3,537.4 					"/>
					<polygon class="st128" points="737,538 766.3,508.7 768.7,511.2 737.7,538.7 					"/>
				</g>
				<g>
					<polygon class="st126" points="737,538 707.7,567.3 705.2,564.9 736.3,537.4 					"/>
					<polygon class="st126" points="737,538 707.7,567.3 710.2,569.8 737.7,538.7 					"/>
				</g>
				<g>
					<polygon class="st126" points="737,538 778.4,538 778.4,534.6 737,537.1 					"/>
					<polygon class="st126" points="737,538 778.4,538 778.4,541.5 737,539 					"/>
				</g>
				<g>
					<polygon class="st126" points="737,538 695.6,538 695.6,534.6 737,537.1 					"/>
					<polygon class="st126" points="737,538 695.6,538 695.6,541.5 737,539 					"/>
				</g>
				<path class="st127" d="M740.1,538c0,1.7-1.4,3.1-3.1,3.1s-3.1-1.4-3.1-3.1c0-1.7,1.4-3.1,3.1-3.1S740.1,536.3,740.1,538z"/>
			</g>
			<path class="st46" d="M185.5,538c0,8.5,1.6,16.7,4.5,24.2l-4.4,0.1l-82.1-10l7.1-12.6c0,0-2-12.2-1.9-27.5h81.9
				C187.3,520.2,185.5,528.9,185.5,538z"/>
			<path class="st128" d="M116.3,522.9h19.4c0,0,7,4.9,7.9,10.6h-22C121.6,533.5,116.7,527.5,116.3,522.9z"/>
			<path class="st129" d="M456.5,358.6l-121.8,60.7l-13.8-8.8l0,0c1.1-0.5,84.3-41.4,117.7-53.8L456.5,358.6z"/>
			<path class="st128" d="M752.9,386.3l-15,1.6c0,0-52-29-55.3-31.8c-1.8-1.5,0.3-3.9,2.6-5.7C701.2,357,729,369.5,752.9,386.3z"/>
			<ellipse class="st130" cx="509.6" cy="448.8" rx="19.2" ry="7.7"/>
			<path class="st131" d="M527.9,451.9h-38.4c-1.5,0-2.8-1.2-2.8-2.8v-0.3c0-1.5,1.2-2.8,2.8-2.8h38.4c1.5,0,2.8,1.2,2.8,2.8v0.3
				C530.7,450.6,529.5,451.9,527.9,451.9z"/>
			<ellipse class="st124" cx="679.7" cy="436.7" rx="19.2" ry="7.7"/>
			<path class="st128" d="M698.8,439.9h-38.2c-1.6,0-2.9-1.3-2.9-2.9v-0.7c0-1.6,1.3-2.9,2.9-2.9h38.2c1.6,0,2.9,1.3,2.9,2.9v0.7
				C701.7,438.6,700.4,439.9,698.8,439.9z"/>
			<path class="st46" d="M890.6,440.8c-3.8,2.6-8,4.4-12.3,5.7c-3.7,1.2-7.5,1.9-11,2.4c-9.7,1.3-17.5,0.6-17.5,0.6s6-7.2,11.2-13.7
				c5.2-6.4-2.7-9.6-2.7-9.6s-13.1,0-23.3,0c-10.2,0-15-9.8-15-9.8h67.8c0.1,3.5-0.1,6-0.1,6S888.4,430.6,890.6,440.8z"/>
			<g>
				<path class="st124" d="M139.4,470.7l-0.8-0.4c0-0.1,1.1-2.2,5.4-5.5c3.9-3.1,11.5-7.9,25.2-13.3c15.4-6.1,35.2-11.7,58.9-16.8
					c29.6-6.3,64.9-11.6,106.1-15.9l1.3,0.8c-92.7,9.7-141.5,23.1-165.5,32.6c-13.7,5.4-21.2,10.1-25.1,13.2
					C140.4,468.7,139.4,470.7,139.4,470.7z"/>
			</g>
			<path class="st128" d="M195,461.3c-1.1,0.9-39.1,22.1-39.1,22.1s-28.8,3.2-45.8,10c1.3-8.6,3.5-17,7.5-24
				c12.1-3.5,52.1-14.5,75.9-12C193.3,457.4,196,460.4,195,461.3z"/>
			<polygon class="st46" points="366.2,421.2 334.7,419.3 456.5,358.6 481.4,359.7 			"/>
			<path class="st46" d="M456.5,358.6c0,0,120.6-12.3,226.2-2.4l55.3,31.8l-21.6-0.9l-159.2,27.4l-27.1,2.2l-91.6-20.8L456.5,358.6z
				"/>
			<path class="st128" d="M366.2,421.2c0,0,102.2-61.5,115.3-61.5c13.1,0,52.2,0,52.2,0s14-1.6,9.3,11.1
				c-3.3,8.7-12.9,45.9-12.9,45.9L366.2,421.2z"/>
			<path class="st128" d="M568,359.6l-9.7,54.8c0,0,108.4,0.2,158-27.4C716.3,387,694.2,359.6,568,359.6z"/>
			<g>
				<polygon class="st124" points="365.8,547.4 365.7,547 350.1,420 350.4,419.8 468.7,357.5 471.1,357.3 351.1,420.5 366.6,546.5 
					542.8,543.8 544.4,415.4 558.4,352.7 559.4,352.7 545.3,415.5 543.7,544.7 				"/>
			</g>
			<g>
				<path class="st132" d="M543.4,544.7c-0.1,0-0.1,0-0.2,0l0-0.9c0.2,0,24.5,0,49.5-1c41.6-1.6,53.2-4.6,55.6-6.9
					c8-7.6,74.8-116.1,82.4-128.4c0.4-0.6,0.6-1.2,0.8-1.9c0.8-3.4,1.8-12-6.4-18.3c-10.3-7.9-61.8-32.6-62.3-32.8l2.4,0.1
					c0.5,0.2,50.1,24,60.5,31.9c3.7,2.9,6,6.5,6.9,10.9c0.7,3.6,0.2,6.8-0.2,8.4c-0.2,0.8-0.5,1.5-0.9,2.1
					c-7.6,12.3-74.4,120.9-82.5,128.6c-2.1,1.9-8.7,3.5-20.3,4.8c-9.1,1-21.2,1.8-35.9,2.4C568.8,544.7,545.5,544.7,543.4,544.7z"/>
			</g>
			<path class="st46" d="M897.8,534.6l-94.8,7.9c0.1-1.5,0.1-2.9,0.1-4.4c0-24.3-13-45.6-32.4-57.3l0,0l136.6-6.2
				C907.3,474.6,913,504.9,897.8,534.6z"/>
			<path class="st128" d="M890.6,440.8c-3.8,2.6-8,4.4-12.3,5.7c-3.7,1.2-7.5,1.9-11,2.4c6.1-8.5,15.6-23.9,11.5-32.5h9.1
				c0.1,3.5-0.1,6-0.1,6S888.4,430.6,890.6,440.8z"/>
		</g>
	</g>
	<g>
		<ellipse class="st48" cx="957.8" cy="652.6" rx="109.6" ry="16.2"/>
		<g>
			<g>
				<g>
					<linearGradient id="SVGID_1_" gradientUnits="userSpaceOnUse" x1="874.8271" y1="643.1534" x2="937.1865" y2="643.1534">
						<stop  offset="0" style="stop-color:#2B3582"/>
						<stop  offset="1" style="stop-color:#150E42"/>
					</linearGradient>
					<path class="st6" d="M935.3,635.4c0,0-17.1,4.9-27.1-3.1c0,0-15.5,16.2-32.1,17.5c0,0-2.9,3.1,0,3.7c2.9,0.6,35.4,1.8,41.6-2.7
						c0,0,9.8,4,17.6-0.8C939.6,647.3,935.3,635.4,935.3,635.4z"/>
					<linearGradient id="SVGID_2_" gradientUnits="userSpaceOnUse" x1="982.5453" y1="642.0436" x2="1043.2932" y2="642.0436">
						<stop  offset="0" style="stop-color:#2B3582"/>
						<stop  offset="1" style="stop-color:#150E42"/>
					</linearGradient>
					<path class="st7" d="M984.4,634.5c0,0,16.6,4.7,26.4-3c0,0,15.1,15.8,31.2,17c0,0,2.8,3,0,3.6c-2.8,0.6-34.5,1.8-40.5-2.6
						c0,0-9.5,3.9-17.2-0.8C980.2,646.1,984.4,634.5,984.4,634.5z"/>
					<linearGradient id="SVGID_3_" gradientUnits="userSpaceOnUse" x1="894.8954" y1="522.5595" x2="1012.5692" y2="522.5595">
						<stop  offset="0" style="stop-color:#2B3582"/>
						<stop  offset="1" style="stop-color:#150E42"/>
					</linearGradient>
					<path class="st15" d="M1003.3,408l9.2,224.6c0,0-18.5,8.7-28.3,2l-6.1-94.3L959,454.7l-32.5,84.1l9.2,96.8c0,0-23,4.8-29.8-3.4
						l-11-99.8c-0.3-2.6-0.1-5.2,0.5-7.8L921.3,416C921.3,416,980.1,425.9,1003.3,408z"/>
					<path class="st136" d="M954.9,250c-3.9-0.1-7.2-1.5-9.9-3.7l1.1,27h25.6l3.4-31.7C970.9,245.9,964.4,250.2,954.9,250z"/>
					<path class="st137" d="M944.1,225l0.7,18.7c2.5,3,6,4.8,10.7,4.8c10.7,0,16.9-7.1,20.4-15.5l1-9.2L944.1,225z"/>
					<path class="st136" d="M944.9,243.7c2.5,3,6,4.8,10.7,4.8c10.7,0,16.9-7.1,20.4-15.5c5.1-12.1,4.9-26.8,4.9-26.8l-4.4-4.2
						l-8.2-7.8l-27.4-3.4c0,0-2.4,12-2.5,25.1C938.3,226.4,939.6,237.5,944.9,243.7z"/>
					<path class="st138" d="M944.9,243.7l0.1,2.6c2.7,2.2,6,3.6,9.9,3.7c9.5,0.2,16-4.1,20.2-8.4l0.9-8.5
						c-3.6,8.4-9.7,15.5-20.4,15.5C950.9,248.5,947.4,246.7,944.9,243.7z"/>
					<path class="st136" d="M944.9,243.7c2.5,3,6,4.8,10.7,4.8c10.7,0,16.9-7.1,20.4-15.5c5.1-12.1,4.9-26.8,4.9-26.8l-4.4-4.2
						L938.3,216C938.3,226.4,939.6,237.5,944.9,243.7z"/>
					<path class="st139" d="M975.9,202.2c0,0-32.3,9-45.2-13.4c0,0,21.1-8.8,32.7-8.8c11.7,0,18.3,12.6,18.3,12.6s16,9.7-6.1,43.3
						L975.9,202.2z"/>
					<path class="st136" d="M974.6,213.7c-2.3,3.3-2.5,7.1-0.5,8.5s5.5-0.1,7.8-3.4c2.3-3.3,2.5-7.1,0.5-8.5
						C980.4,208.9,976.9,210.4,974.6,213.7z"/>
					<linearGradient id="SVGID_4_" gradientUnits="userSpaceOnUse" x1="962.3077" y1="422.2993" x2="962.3077" y2="253.4946">
						<stop  offset="0" style="stop-color:#CE1567"/>
						<stop  offset="1" style="stop-color:#7A1DBC"/>
					</linearGradient>
					<path class="st16" d="M973.8,253.5l6.1,7.1l23.4,6.5V416c0,0-45.1,14.1-82.1,0V267.8l19.4-5.7l4.2-6.8l14.6,14L973.8,253.5z"/>
					<linearGradient id="SVGID_5_" gradientUnits="userSpaceOnUse" x1="867.928" y1="312.9176" x2="921.2807" y2="312.9176">
						<stop  offset="0" style="stop-color:#CE1567"/>
						<stop  offset="1" style="stop-color:#7A1DBC"/>
					</linearGradient>
					<path class="st17" d="M867.9,344.2l16,12.6c0,0,4.2,3,7.1,0c3-3,30.2-42,30.2-42v-46.9c0,0-4.2,2.6-15.5,21.1
						c-11.2,18.4-23,37-23,37l-5.7-3.2C876,328.7,873.5,336.8,867.9,344.2z"/>
					<linearGradient id="SVGID_6_" gradientUnits="userSpaceOnUse" x1="1003.3356" y1="319.5783" x2="1059.7356" y2="319.5783">
						<stop  offset="0" style="stop-color:#7A1DBC"/>
						<stop  offset="1" style="stop-color:#CE1567"/>
					</linearGradient>
					<path class="st19" d="M1003.3,267.1v43.6c0,0,31.1,23.4,31.7,40.2c0.1,2.9-0.8,6-2.4,9.3c8.4,4,13.8,8.2,17.3,11.9
						c0.1-0.1,0.2-0.2,0.2-0.3c14.9-19.6,7.9-36,7.9-36C1044.3,302.6,1003.3,267.1,1003.3,267.1z"/>
					<path class="st136" d="M815.3,308.8c0,0,5.6,2.6,11.1,2.8l41.5,32.5c5.6-7.4,8.1-15.5,9.2-21.5l-38.3-21.9
						c0,0-5.6-23.4-21.7-17.6c0,0-0.2-0.1-0.6-0.4c-2.2,1.3-3.7,2.1-5.7,3.9c0,0-0.7,0.7-0.7,0.7S808,301.4,815.3,308.8z"/>
					<path class="st136" d="M992.4,422.3c9.4,1.9,17.3-12.2,17.3-12.2s25.2-18.6,40.2-38.1c-3.5-3.7-8.9-7.9-17.3-11.9
						c-7.7,15.9-31.4,34.5-31.4,34.5l-12,5.7C977.3,406.1,983,420.4,992.4,422.3z"/>
				</g>
				<linearGradient id="SVGID_7_" gradientUnits="userSpaceOnUse" x1="960.6949" y1="265.6673" x2="979.9124" y2="265.6673">
					<stop  offset="0" style="stop-color:#2B3582"/>
					<stop  offset="1" style="stop-color:#150E42"/>
				</linearGradient>
				<polygon class="st27" points="960.7,268 970.8,277.8 979.9,260.6 973.8,253.5 				"/>
				<linearGradient id="SVGID_8_" gradientUnits="userSpaceOnUse" x1="940.7256" y1="267.0941" x2="958.4554" y2="267.0941">
					<stop  offset="0" style="stop-color:#2B3582"/>
					<stop  offset="1" style="stop-color:#150E42"/>
				</linearGradient>
				<polygon class="st29" points="958.5,268.2 949.6,278.9 940.7,262.1 945,255.3 				"/>
			</g>
			<path class="st136" d="M829.7,285.1c0,0-4.9-3.9-8.5-2.8c-3.5,1.1,3.4,5.4,3.4,5.4l6.5,4.7L829.7,285.1z"/>
			<path class="st136" d="M817,307.3c0,0,1.5-6,0-9.7c-1.5-3.7-6.1-11.3-6.7-10.2c-0.6,1,1.6,10.2,1.6,10.2L817,307.3z"/>
		</g>
	</g>
	<g>
		<ellipse class="st48" cx="578.7" cy="655.7" rx="123.6" ry="19.3"/>
		<g>
			<g>
				<g>
					<g>
						<path class="st20" d="M750,295l-2.1,3c-0.5,0.7-0.3,1.6,0.3,2l8.2,5.8c0.7,0.5,1.6,0.3,2-0.3l2.1-3c0.5-0.7,0.3-1.6-0.3-2
							l-8.2-5.8C751.4,294.2,750.5,294.4,750,295z M750.8,295.9l-1.9,2.6c-0.1,0.1-0.3,0.2-0.4,0.1s-0.2-0.3-0.1-0.4l1.9-2.6
							c0.1-0.1,0.3-0.2,0.4-0.1C750.9,295.6,750.9,295.7,750.8,295.9z"/>
						
							<ellipse transform="matrix(0.5827 -0.8127 0.8127 0.5827 70.5296 739.2455)" class="st21" cx="755.1" cy="300.9" rx="2.1" ry="4.1"/>
						<g>
							<g>
								<path class="st22" d="M755.9,299.5c0.1-0.1,0-0.2,0-0.2c-1.5-1-3.1-1.1-3.6-0.4c-0.6,0.8,0.1,2.2,1.5,3.3
									c0.1,0.1,0.2,0,0.2,0L755.9,299.5z"/>
								<path class="st22" d="M754.3,302.4c-0.1,0.1,0,0.2,0,0.2c1.5,1,3.1,1.1,3.6,0.4c0.6-0.8-0.1-2.2-1.5-3.3
									c-0.1-0.1-0.2,0-0.2,0L754.3,302.4z"/>
							</g>
						</g>
						<path class="st23" d="M756.7,301.5l-0.2-0.1c-0.2-0.1-0.5-0.1-0.6,0.1c-0.1,0.2-0.1,0.5,0.1,0.6l0.2,0.1l0,0.1l0.7,0.5
							l0.6-0.8L756.7,301.5L756.7,301.5z M756,302c-0.2-0.1-0.2-0.3-0.1-0.5c0.1-0.2,0.3-0.2,0.5-0.1l0.2,0.1l-0.4,0.6L756,302z"/>
						<path class="st23" d="M753.3,299.1c-0.1,0.2-0.1,0.5,0.1,0.6l0.2,0.1l0.1,0l0,0l-0.5,0.7l0.7,0.5l0.6-0.8l-0.7-0.5l-0.1,0.1
							l0,0l-0.1,0l-0.2-0.1C753.3,299.5,753.3,299.3,753.3,299.1c0.2-0.1,0.4-0.1,0.6,0l0.3,0.2l0.1-0.1l-0.3-0.2
							C753.7,298.9,753.4,298.9,753.3,299.1z"/>
					</g>
					<g>
						<g>
							<polygon class="st24" points="748.8,305.6 747.9,305.9 747.1,306.2 748.9,312.3 750.1,312.9 750.6,311.7 750.5,311.5 
								750.2,311.3 750.4,310.9 750.3,310.8 750,310.6 750.2,310.2 750.1,310 749.7,309.8 749.9,309.5 749.7,308.6 749.3,308.4 
								749,307.5 749.1,307.3 748.9,307.2 748.9,307.2 749,307 748.9,306.9 749.1,306.6 							"/>
							<polygon class="st25" points="748.9,306 748,306.3 750.1,312.9 750.6,311.7 750.5,311.5 750.2,311.3 750.4,310.9 
								750.3,310.8 750,310.6 750.2,310.2 750.1,310 749.7,309.8 749.9,309.5 749.7,308.6 749.3,308.4 749,307.5 749.1,307.3 
								748.9,307.2 748.9,307.2 749,307 748.9,306.9 749.1,306.6 							"/>
						</g>
						<path class="st21" d="M749.2,299.4c-0.3-0.1-0.6-0.1-0.9-0.1c-1.5,0-2.9,0.4-4.2,1.2c-0.9,0.6-2,1.5-1.4,2.6
							c0.5,1.1,1.6,2.5,3.6,3c0.5,0.1,0.9,0.1,1.4-0.1l0.3-0.1l0.3-0.1c0.4-0.1,0.9-0.4,1.2-0.7c1.4-1.5,1.5-3.3,1.3-4.5
							C750.6,299.9,749.9,299.5,749.2,299.4z M748.3,300l-2,0.6l-2,0.6c-0.2,0-0.3-0.2-0.1-0.3c0.4-0.3,1-0.7,1.9-1
							c0.9-0.3,1.6-0.3,2.1-0.3C748.4,299.7,748.4,300,748.3,300z"/>
					</g>
					<path class="st26" d="M748.6,299.5c-1.4,1.2-3.5,1-4.6-0.4c-1.2-1.4-1-3.5,0.4-4.6c1.4-1.2,3.5-1,4.6,0.4
						C750.1,296.3,749.9,298.3,748.6,299.5z M744.6,294.8c-1.2,1-1.4,2.8-0.3,4c1,1.2,2.8,1.4,4,0.3s1.4-2.8,0.3-4
						C747.6,293.9,745.8,293.8,744.6,294.8z"/>
					<path class="st21" d="M744.8,300.1c0,0,0.6-0.3,1.1-0.5l0.8,0.2c0,0-0.8,0.2-1.3,0.4S744.8,300.1,744.8,300.1z"/>
					<path class="st20" d="M749,296.4l0.7-1l0.4,0.5c0,0-1.1,1.5-1,1.4C749.1,297.3,749,296.4,749,296.4z"/>
				</g>
				<linearGradient id="SVGID_9_" gradientUnits="userSpaceOnUse" x1="732.8512" y1="289.0187" x2="747.1003" y2="289.0187">
					<stop  offset="0" style="stop-color:#F0047F"/>
					<stop  offset="1" style="stop-color:#FE330A"/>
				</linearGradient>
				<path class="st30" d="M739.5,281.2c-2.2-1.3-7.1,4.6-6.7,6.9c0.4,2.4,7.2,2.2,8.8,4c0.7,0.7-0.2,3.1,0.4,3.9
					c0.7,0.8,3.3,1.5,4.5,0.1c0.8-0.9,1.1-3.2-1.5-4.4c-0.3-0.2-1.2,0.1-1.3-0.2C742.2,287,740.4,283.9,739.5,281.2"/>
			</g>
			<g>
				<path class="st28" d="M548.7,658l-19.7,0c0,0,0,0-0.1,0c-1.7-0.9-3.3-2.2-4.3-3.9c-3.1-4.8-11.5-8.2-12.8-12.6
					c-1.5-5.2,6.4-12.5,6.4-12.5l1.3-1.7l3.6-9.3l13.1,3.1c0,0,0.3,3.1,0.5,7.1c0.1,2.9,0.2,6.2,0,9.1c-0.4,6.9,1.9,14.4,8.1,15.7
					C549.4,654,549.2,656.6,548.7,658z"/>
				<path class="st28" d="M663.3,658.1l-45.1-0.1c-2.2-2.6-1.4-12.4-1-15.6c0.1-0.6,0.1-1,0.1-1s15.4-12.3,17.5-2.9
					c0.1,0.3,0.1,0.6,0.2,0.9c2.7,8.8,14.6,12.8,21.5,13.9C661,654.2,662.7,656.5,663.3,658.1z"/>
				<linearGradient id="SVGID_10_" gradientUnits="userSpaceOnUse" x1="589.6368" y1="522.9197" x2="655.0246" y2="522.9197">
					<stop  offset="0" style="stop-color:#231C62"/>
					<stop  offset="1" style="stop-color:#0E0D21"/>
				</linearGradient>
				<path class="st31" d="M655,407c0,0-2.4,29.1-5.2,64.1C646,518.6,641.5,577,641,588c-0.8,19.2-3.9,49.9-3.9,49.9s-7.3,7.3-22,4.2
					c0,0-13-43.9-16.7-90.3c-0.1-0.8-0.1-1.5-0.2-2.3c-3.4-47.2-8.7-146.7-8.7-146.7L655,407z"/>
				<linearGradient id="SVGID_11_" gradientUnits="userSpaceOnUse" x1="589.6368" y1="477.4099" x2="655.0246" y2="477.4099">
					<stop  offset="0" style="stop-color:#231C62"/>
					<stop  offset="1" style="stop-color:#0E0D21"/>
				</linearGradient>
				<path class="st33" d="M655,407c0,0-2.4,29.1-5.2,64.1l-51.4,80.8c-0.1-0.8-0.1-1.5-0.2-2.3c-3.4-47.2-8.7-146.7-8.7-146.7
					L655,407z"/>
				<linearGradient id="SVGID_12_" gradientUnits="userSpaceOnUse" x1="518.5947" y1="513.7778" x2="644.3322" y2="513.7778">
					<stop  offset="0" style="stop-color:#231C62"/>
					<stop  offset="1" style="stop-color:#0E0D21"/>
				</linearGradient>
				<path class="st35" d="M644.3,410.5c0,0-42.3,105.3-70.1,154.8c-27.8,49.5-40.1,70.9-40.1,70.9s-14.1-2.3-15.5-6.6
					c0,0,12.5-107.2,31.1-130.5c10.5-13.2,22.9-52.7,23.5-66.5c0.6-13.8,3.8-41.2,3.8-41.2L644.3,410.5z"/>
			</g>
			<g>
				<path class="st32" d="M719.7,291.4c-0.2-0.5,9-11.1,16.4-14.8c2.4-1.2,5.4,0.1,6.7,1.3c2.7,2.5,5.5,14.3,3.6,14.4
					c-0.5,0-3.7-5.6-5.2-7.3c-0.7-0.8-2.4-2.1-3.4-2.1c-1.8,0-4.2,3.2-4.1,4.9c0.2,2.3,7.4,3.2,6.7,5.2c-0.6,1.8-4.9,0.4-6.7,0.7
					c-2.1,0.3-7.2,5.6-7.2,5.6L719.7,291.4z"/>
				<linearGradient id="SVGID_13_" gradientUnits="userSpaceOnUse" x1="607.9541" y1="306.0855" x2="728.0042" y2="306.0855">
					<stop  offset="0" style="stop-color:#FFFFFF"/>
					<stop  offset="1" style="stop-color:#CCCCCC"/>
				</linearGradient>
				<path class="st36" d="M626.6,254.2c0,0,34.1,59.4,46.5,70.4l45.5-33.7c0,0,6.6,2,9.5,8.6c0,0-27.7,56-54.8,58.3
					c-27.2,2.3-65.2-67.2-65.2-67.2L626.6,254.2z"/>
			</g>
			<path class="st32" d="M634,256.8c-16.5,5.2-45-8.9-45-8.9s15.2-11.3,14.5-35l12.7,10.3l8.6,7c0,0,0,4.1-1,11.3
				c-0.3,1.9-0.6,4-1,6.3C630,251.7,634,256.8,634,256.8z"/>
			<path class="st34" d="M624.9,230.2c0,0,0,4.1-1,11.3c-9.6-1.7-20.5-17.1-20.5-17.1c4.9-1.4,9.2-1.6,12.8-1.1L624.9,230.2z"/>
			<path class="st32" d="M629.9,229.8c0,0-27.2,4.5-29.8-12.5c-2.5-16.9-7.8-27.8,9.5-31.4c17.3-3.6,21.6,2.4,23.9,7.8
				C635.8,199.3,636.9,228.2,629.9,229.8z"/>
			<linearGradient id="SVGID_14_" gradientUnits="userSpaceOnUse" x1="573.8117" y1="326.8603" x2="657.4218" y2="326.8603">
				<stop  offset="0" style="stop-color:#FFFFFF"/>
				<stop  offset="1" style="stop-color:#CCCCCC"/>
			</linearGradient>
			<path class="st37" d="M656.8,409.5c-0.5,0.4-1.1,0.7-1.7,0.7c-6.2-0.1-24.2,3.3-39.5,1.7c-12.9-1.3-24.3-5.1-36.5-10.6
				c-1.6-0.7-5.4-2.7-5.3-4.5c0.1-2,0.3-4.9,0.5-8.5c0.9-12.6,2.4-34.2,1-59.2c-0.3-4.7-0.4-9.3-0.4-13.8
				c-0.1-33.9,6.7-63.6,20.3-73.7c1.2-0.8,8.3,2.6,14.8,5.9c6,3,12,3.3,17.7,2.2l5.7,5c6.9,6.4,14.5,15.2,17.8,28.4
				c2.8,11.3,4.4,31.6,5.3,52.7c0.4,9.5,0.7,19.2,0.8,28.3l0,0.3c0.1,0.9,0.1,1.9,0.1,2.8C657.6,390.6,657.3,409.1,656.8,409.5z"/>
			<linearGradient id="SVGID_15_" gradientUnits="userSpaceOnUse" x1="574.3248" y1="340.0211" x2="600.8065" y2="340.0211">
				<stop  offset="0" style="stop-color:#FFFFFF"/>
				<stop  offset="1" style="stop-color:#CCCCCC"/>
			</linearGradient>
			<path class="st58" d="M574.3,388.3c0.9-12.6,2.4-34.2,1-59.2c-0.3-4.7-0.4-9.3-0.4-13.8c5.7-13.6,10.3-23.5,10.3-23.5l14.2,0
				C599.4,291.8,609.7,362.7,574.3,388.3z"/>
			<path class="st12" d="M600.1,215.7c0,0,2.8-0.5,2.4-4.3c-0.4-3.8-0.4-8.8,2.7-7.9c3.1,0.9,3.3,3.4,4.6,2c1.3-1.5,1.3-7.6,10.6-8
				c9.3-0.4,13.1,2.8,17.4,0.9c4.3-1.9,4.6-8.4,4.6-8.4s-1.2,2.3-3.1,3.1c0,0,7.2-9.8-1.1-16.6c-8.4-6.8-16.9-2.4-21.7-2.1
				c-10.7,0.6-17.6,1.3-21,8.2C591.9,189.6,593.3,209,600.1,215.7z"/>
			<g>
				<linearGradient id="SVGID_16_" gradientUnits="userSpaceOnUse" x1="572.5436" y1="394.6052" x2="572.5436" y2="242.608">
					<stop  offset="0" style="stop-color:#FFFFFF"/>
					<stop  offset="1" style="stop-color:#CCCCCC"/>
				</linearGradient>
				<path class="st59" d="M539.5,393.9c5.1,1,10.7,0.6,10.7,0.6s15.3-46.8,17.2-51c2-4.3,45.2-54.8,45.2-54.8l-18.4-46.1
					c-3.2-1.9-47.4,78.2-51.1,89.8c-6,18.7-10.6,58.5-10.6,58.5S535.5,393.1,539.5,393.9z"/>
				<path class="st32" d="M544.5,408.2c-3-0.2-1.9,1.6-1.9,1.6s7.3,1.9,2,2.8c-6.7,1.1-9.8-1.8-9.8-1.8c-2.7-7.8,0.2-18.6,0.2-18.6
					l12.5,2.3c-2.3,2.1-5.2,10.5-2.4,10.9C548,405.9,550.3,408.7,544.5,408.2z"/>
			</g>
			<g>
				<path class="st38" d="M501.4,468.6l60.7,8.7c7.9,1.1,15.2-4.4,16.4-12.3l3.8-26.1c1.1-7.9-4.4-15.3-12.3-16.4l-60.7-8.7
					c-7.9-1.1-15.2,4.4-16.4,12.3l-3.8,26.1C488,460.1,493.5,467.5,501.4,468.6z"/>
				<path class="st39" d="M573.3,430.3L573.3,430.3c-1.7-4.3-5.4-7.6-10-8.8h0c0,0,0,0,0,0c-0.5-0.1-0.9-0.2-1.4-0.3l-12.1-1.7
					l0.8-5.7c0.2-1.3-0.1-2.5-0.9-3.5c-0.8-1-1.9-1.7-3.2-1.9l-3.1-0.5l-12.7-1.8l-2.3-0.3c-2.6-0.4-5.1,1.4-5.4,4.1l-0.8,5.6
					l-20.8-3c-7.9-1.1-15.3,4.4-16.5,12.3l-3.8,26.5c-1.1,7.9,4.4,15.3,12.3,16.4l60.5,8.7c1.1,0.2,2.1,0.2,3.2,0.1h0c0,0,0,0,0,0
					c1.7-0.1,3.3-0.5,4.7-1.2c4.5-2,7.8-6.1,8.6-11.2l3.8-26.5C574.6,435.1,574.2,432.6,573.3,430.3z M526,410.4
					c0.1-0.8,0.7-1.4,1.5-1.5c0.2,0,0.4,0,0.5,0l2.7,0.4l10,1.4l5.4,0.8c1,0.1,1.7,1,1.5,2l-0.8,5.6l-21.7-3.1L526,410.4z"/>
			</g>
			<g>
				<polygon class="st40" points="540.1,434.5 539.5,438.5 533.9,443.1 527.7,442.1 532.8,437.9 519.9,436 520.5,431.6 				"/>
				<polygon points="537.3,453.3 536.6,457.7 516.7,454.7 517.3,450.7 522.8,446.2 529,447.1 523.9,451.3 				"/>
			</g>
			<g>
				<path class="st40" d="M641.1,281.6c0,1.1,0,2.3,0,3.4c-1.4,1.5-2.8,3-4.2,4.6c-1.8,0.1-3.6,0.3-5.4,0.4c1.3-1.5,2.6-3,3.9-4.5
					c-3.7,0.3-7.5,0.7-11.2,0.6c0-1.2,0.1-2.5,0.1-3.7C629.8,282.5,635.4,281.5,641.1,281.6z"/>
				<path d="M640.8,297.7c0,1.2,0,2.5,0,3.7c-5.8,0-11.6,1-17.5,0.9c0-1.1,0.1-2.3,0.1-3.4c1.4-1.5,2.8-3,4.2-4.5
					c1.8-0.1,3.6-0.2,5.4-0.4c-1.3,1.5-2.6,3-3.9,4.5C633.1,298.1,637,297.7,640.8,297.7z"/>
			</g>
		</g>
	</g>
</g>
</svg>
