<?xml version="1.0" encoding="utf-8"?>
<!-- Generator: Adobe Illustrator 23.0.5, SVG Export Plug-In . SVG Version: 6.00 Build 0)  -->
<svg version="1.1" id="Layer_1" xmlns="http://www.w3.org/2000/svg" xmlns:xlink="http://www.w3.org/1999/xlink" x="0px" y="0px"
	 viewBox="0 0 1200 675" style="enable-background:new 0 0 1200 675;" xml:space="preserve">
<style type="text/css">
	.st0{fill:#D5E7F7;}
	.st1{fill:#C4D9ED;}
	.st2{fill:#ADC9E0;}
	.st3{fill:#1C2948;}
	.st4{fill:#163560;}
	.st5{fill:#739AF0;}
	.st6{fill:url(#SVGID_1_);}
	.st7{fill:url(#SVGID_2_);}
	.st8{fill:#4A82D3;}
	.st9{fill:#2D3A62;}
	.st10{fill:#98BDF4;}
	.st11{fill:#2B478B;}
	.st12{fill:#233862;}
	.st13{fill:#AB7041;}
	.st14{fill:#9C5F33;}
	.st15{fill:url(#SVGID_3_);}
	.st16{fill:url(#SVGID_4_);}
	.st17{fill:url(#SVGID_5_);}
	.st18{fill:#6793E7;}
	.st19{fill:url(#SVGID_6_);}
	.st20{fill:#1F3341;}
	.st21{fill:#2D4454;}
	.st22{fill:#122633;}
	.st23{fill:#FFFFFF;}
	.st24{fill:#85878A;}
	.st25{fill:#555658;}
	.st26{fill:#808184;}
	.st27{fill:url(#SVGID_7_);}
	.st28{fill:#1A2E35;}
	.st29{fill:url(#SVGID_8_);}
	.st30{fill:url(#SVGID_9_);}
	.st31{fill:url(#SVGID_10_);}
	.st32{fill:#FFB27D;}
	.st33{fill:url(#SVGID_11_);}
	.st34{fill:#ED975D;}
	.st35{fill:url(#SVGID_12_);}
	.st36{fill:url(#SVGID_13_);}
	.st37{fill:url(#SVGID_14_);}
	.st38{fill:#466591;}
	.st39{fill:#5574A5;}
	.st40{fill:#66DB8E;}
	.st41{fill:#E9F4FF;}
	.st42{opacity:0.5;}
	.st43{fill:#A8CCFF;}
	.st44{fill:#FF912B;}
	.st45{fill:#1B294B;}
	.st46{fill:#145DEF;}
	.st47{fill:#2A3967;}
	.st48{fill:#D1E4FC;}
	.st49{fill:#25468F;}
	.st50{fill:#CDE3FF;}
	.st51{fill:#A5D2FF;}
	.st52{fill:#214D9A;}
	.st53{fill:#C8DFFD;}
	.st54{fill:#7798F8;}
	.st55{fill:#DAE6FF;}
	.st56{fill:#FFAE73;}
	.st57{fill:#1E3865;}
	.st58{fill:url(#SVGID_15_);}
	.st59{fill:url(#SVGID_16_);}
	.st60{fill:url(#SVGID_17_);}
	.st61{fill:#F9924F;}
	.st62{fill:url(#SVGID_18_);}
	.st63{fill:url(#SVGID_19_);}
	.st64{fill:url(#SVGID_20_);}
	.st65{fill:#2D3554;}
	.st66{opacity:0.4;}
	.st67{fill-rule:evenodd;clip-rule:evenodd;fill:#DEECFC;}
	.st68{fill-rule:evenodd;clip-rule:evenodd;fill:#455563;}
	.st69{fill-rule:evenodd;clip-rule:evenodd;fill:#566578;}
	.st70{fill-rule:evenodd;clip-rule:evenodd;fill:#AEC6CE;}
	.st71{fill-rule:evenodd;clip-rule:evenodd;fill:#91B1BD;}
	.st72{fill-rule:evenodd;clip-rule:evenodd;fill:#EAEEF0;}
	.st73{fill-rule:evenodd;clip-rule:evenodd;fill:#D3E1E7;}
	.st74{fill-rule:evenodd;clip-rule:evenodd;fill:#1483EF;}
	.st75{fill-rule:evenodd;clip-rule:evenodd;fill:#145DEF;}
	.st76{fill-rule:evenodd;clip-rule:evenodd;fill:#47A4AD;}
	.st77{fill-rule:evenodd;clip-rule:evenodd;fill:#EDE5D4;}
	.st78{fill-rule:evenodd;clip-rule:evenodd;fill:#FFFFFF;}
	.st79{fill-rule:evenodd;clip-rule:evenodd;fill:#C8DBE3;}
	.st80{fill-rule:evenodd;clip-rule:evenodd;fill:#145DC3;}
	.st81{fill-rule:evenodd;clip-rule:evenodd;fill:#D9D8D4;}
	.st82{fill-rule:evenodd;clip-rule:evenodd;fill:#E4EBED;}
	.st83{fill-rule:evenodd;clip-rule:evenodd;fill:#6EB7BF;}
	.st84{fill:#1483EF;}
	.st85{fill:#BACFE2;}
	.st86{fill-rule:evenodd;clip-rule:evenodd;fill:#EE9C94;}
	.st87{fill-rule:evenodd;clip-rule:evenodd;fill:#F9BCAF;}
	.st88{fill-rule:evenodd;clip-rule:evenodd;fill:#F6A399;}
	.st89{fill-rule:evenodd;clip-rule:evenodd;fill:#2F1210;}
	.st90{fill-rule:evenodd;clip-rule:evenodd;fill:#ED7660;}
	.st91{fill-rule:evenodd;clip-rule:evenodd;fill:#D33727;}
	.st92{fill-rule:evenodd;clip-rule:evenodd;fill:#A72423;}
	.st93{fill-rule:evenodd;clip-rule:evenodd;fill:#EEB51D;}
	.st94{fill-rule:evenodd;clip-rule:evenodd;fill:#E9938B;}
	.st95{fill-rule:evenodd;clip-rule:evenodd;fill:#2C6F9A;}
	.st96{fill-rule:evenodd;clip-rule:evenodd;fill:#3E7FA9;}
	.st97{fill-rule:evenodd;clip-rule:evenodd;fill:#59C6DB;}
	.st98{fill-rule:evenodd;clip-rule:evenodd;fill:#609DD4;}
	.st99{fill-rule:evenodd;clip-rule:evenodd;fill:#4685B9;}
	.st100{fill-rule:evenodd;clip-rule:evenodd;fill:#CCA440;}
	.st101{fill-rule:evenodd;clip-rule:evenodd;fill:#CC4B27;}
	.st102{fill-rule:evenodd;clip-rule:evenodd;fill:#F3763E;}
	.st103{fill-rule:evenodd;clip-rule:evenodd;fill:#E08077;}
	.st104{fill-rule:evenodd;clip-rule:evenodd;fill:#4F96D1;}
	.st105{fill-rule:evenodd;clip-rule:evenodd;fill:#DFB847;}
	.st106{fill-rule:evenodd;clip-rule:evenodd;fill:#CA2E27;}
	.st107{fill-rule:evenodd;clip-rule:evenodd;fill:#0B0E10;}
	.st108{fill-rule:evenodd;clip-rule:evenodd;fill:#5E5E5E;}
	.st109{fill-rule:evenodd;clip-rule:evenodd;fill:#1B2729;}
	.st110{fill-rule:evenodd;clip-rule:evenodd;fill:#232E30;}
	.st111{fill-rule:evenodd;clip-rule:evenodd;fill:#D4D2D1;}
	.st112{fill-rule:evenodd;clip-rule:evenodd;fill:#F3E8E7;}
	.st113{fill-rule:evenodd;clip-rule:evenodd;fill:#2B3A3A;}
	.st114{fill-rule:evenodd;clip-rule:evenodd;fill:#A29899;}
	.st115{fill:#331410;}
	.st116{fill:#ED7660;}
	.st117{fill-rule:evenodd;clip-rule:evenodd;fill:#3B150E;}
	.st118{fill-rule:evenodd;clip-rule:evenodd;fill:#543119;}
	.st119{fill-rule:evenodd;clip-rule:evenodd;fill:#2A2B2B;}
	.st120{opacity:0.1;}
	.st121{fill:#DFEDFF;}
	.st122{fill:#F6FBFF;}
	.st123{fill:#161616;}
	.st124{fill:#3F4040;}
	.st125{fill:#383838;}
	.st126{fill:#DAD9DA;}
	.st127{fill:#333333;}
	.st128{fill:#C7D5FD;}
	.st129{fill:#A2C1F4;}
	.st130{fill:#7B2718;}
	.st131{fill:#E5E5E4;}
	.st132{fill:#712418;}
	.st133{fill:url(#SVGID_21_);}
	.st134{fill:url(#SVGID_22_);}
	.st135{fill:url(#SVGID_23_);}
	.st136{fill:#FABFA4;}
	.st137{fill:#F4E5CD;}
	.st138{fill:#C78976;}
	.st139{fill:#2A2B2A;}
	.st140{fill:url(#SVGID_24_);}
	.st141{fill:url(#SVGID_25_);}
	.st142{fill:url(#SVGID_26_);}
	.st143{fill:url(#SVGID_27_);}
	.st144{fill:url(#SVGID_28_);}
	.st145{fill:url(#SVGID_29_);}
	.st146{fill:url(#SVGID_30_);}
	.st147{fill:url(#SVGID_31_);}
	.st148{fill:url(#SVGID_32_);}
	.st149{fill:url(#SVGID_33_);}
	.st150{fill:url(#SVGID_34_);}
	.st151{fill:url(#SVGID_35_);}
	.st152{fill:url(#SVGID_36_);}
	.st153{fill:#D4DEFD;}
	.st154{fill:#BCCEFD;}
	.st155{fill:#E1E8FD;}
	.st156{fill:url(#SVGID_37_);}
	.st157{fill:url(#SVGID_38_);}
	.st158{fill:url(#SVGID_39_);}
	.st159{opacity:0.25;fill:url(#SVGID_40_);}
	.st160{opacity:0.25;fill:url(#SVGID_41_);}
	.st161{fill:url(#SVGID_42_);}
	.st162{fill:url(#SVGID_43_);}
	.st163{fill:url(#SVGID_44_);}
	.st164{opacity:0.61;fill:url(#SVGID_45_);}
	.st165{fill:url(#SVGID_46_);}
	.st166{fill:url(#SVGID_47_);}
	.st167{opacity:0.61;fill:url(#SVGID_48_);}
	.st168{fill:url(#SVGID_49_);}
	.st169{fill:url(#SVGID_50_);}
	.st170{fill:url(#SVGID_51_);}
	.st171{fill:url(#SVGID_52_);}
	.st172{fill:url(#SVGID_53_);}
	.st173{fill:url(#SVGID_54_);}
	.st174{fill:url(#SVGID_55_);}
	.st175{fill:url(#SVGID_56_);}
	.st176{fill:#0C1D6D;}
	.st177{fill:url(#SVGID_57_);}
	.st178{fill:url(#SVGID_58_);}
	.st179{fill:url(#SVGID_59_);}
	.st180{fill:url(#SVGID_60_);}
	.st181{fill:url(#SVGID_61_);}
	.st182{fill:url(#SVGID_62_);}
	.st183{fill:url(#SVGID_63_);}
	.st184{fill:url(#SVGID_64_);}
	.st185{fill:url(#SVGID_65_);}
	.st186{fill:url(#SVGID_66_);}
	.st187{fill:url(#SVGID_67_);}
	.st188{fill:url(#SVGID_68_);}
	.st189{fill:url(#SVGID_69_);}
	.st190{fill:url(#SVGID_70_);}
	.st191{fill:url(#SVGID_71_);}
</style>
<g>
	<ellipse class="st0" cx="496.5" cy="622.4" rx="416" ry="26.4"/>
	<g>
		<g>
			<g>
				<rect x="23.6" y="478.9" class="st1" width="48.7" height="117.9"/>
				<rect y="478.9" class="st0" width="23.6" height="117.9"/>
				<polygon class="st0" points="1012.1,596.8 1012.1,182.1 938.3,182.1 938.3,182.1 921.1,182.1 921.1,93.5 828.5,93.5 
					828.5,182.1 742,182.1 742,60.7 646.4,27.9 646.4,131.5 624.7,131.5 624.7,0 529.2,63.5 529.2,177.8 408.4,177.8 408.4,265.3 
					363.2,265.3 363.2,296.2 259.6,296.2 259.6,243.1 200,243.1 200,98.9 126.5,98.9 126.5,365.1 53,365.1 53,596.8 				"/>
				<rect x="544.7" y="73.9" class="st1" width="64.4" height="21.4"/>
				<rect x="544.7" y="110" class="st1" width="64.4" height="21.4"/>
				<g>
					<rect x="126.5" y="197" class="st1" width="74.2" height="33"/>
					<rect x="126.5" y="298.3" class="st1" width="74.2" height="33"/>
					<rect x="126.5" y="348.2" class="st1" width="74.2" height="33"/>
				</g>
				<rect x="126.5" y="400.3" class="st1" width="74.2" height="33"/>
				<rect x="126.5" y="451.4" class="st1" width="74.2" height="33"/>
				<rect x="126.5" y="503.5" class="st1" width="74.2" height="33"/>
				<g>
					<rect x="660.3" y="110" class="st1" width="67.8" height="21.4"/>
					<rect x="660.3" y="74.2" class="st1" width="67.8" height="21.4"/>
					<rect x="543" y="145" class="st1" width="185" height="21.4"/>
				</g>
				<rect x="126.5" y="248.5" class="st1" width="74.2" height="33"/>
				<g>
					<rect x="428.1" y="198.9" class="st1" width="16.2" height="20.7"/>
					<rect x="458.4" y="198.9" class="st1" width="16.2" height="20.7"/>
					<rect x="488" y="198.9" class="st1" width="16.2" height="20.7"/>
					<rect x="516" y="198.9" class="st1" width="16.2" height="20.7"/>
					<rect x="544.6" y="198.9" class="st1" width="16.2" height="20.7"/>
					<rect x="573.6" y="198.9" class="st1" width="16.2" height="20.7"/>
					<rect x="603.9" y="198.9" class="st1" width="16.2" height="20.7"/>
					<rect x="633.5" y="198.9" class="st1" width="16.2" height="20.7"/>
					<rect x="661.5" y="198.9" class="st1" width="16.2" height="20.7"/>
					<rect x="690.1" y="198.9" class="st1" width="16.2" height="20.7"/>
					<rect x="719.9" y="198.9" class="st1" width="16.2" height="20.7"/>
					<rect x="750.2" y="198.9" class="st1" width="16.2" height="20.7"/>
					<rect x="779.8" y="198.9" class="st1" width="16.2" height="20.7"/>
					<rect x="807.9" y="198.9" class="st1" width="16.2" height="20.7"/>
					<rect x="836.5" y="198.9" class="st1" width="16.2" height="20.7"/>
					<rect x="865.4" y="198.9" class="st1" width="16.2" height="20.7"/>
					<rect x="895.7" y="198.9" class="st1" width="16.2" height="20.7"/>
					<rect x="925.3" y="198.9" class="st1" width="16.2" height="20.7"/>
					<rect x="953.4" y="198.9" class="st1" width="16.2" height="20.7"/>
					<rect x="982" y="198.9" class="st1" width="16.2" height="20.7"/>
					<rect x="428.1" y="200.5" class="st1" width="16.2" height="20.7"/>
					<rect x="458.4" y="200.5" class="st1" width="16.2" height="20.7"/>
					<rect x="488" y="200.5" class="st1" width="16.2" height="20.7"/>
					<rect x="516" y="200.5" class="st1" width="16.2" height="20.7"/>
					<rect x="544.6" y="200.5" class="st1" width="16.2" height="20.7"/>
					<rect x="573.6" y="200.5" class="st1" width="16.2" height="20.7"/>
					<rect x="603.9" y="200.5" class="st1" width="16.2" height="20.7"/>
					<rect x="633.5" y="200.5" class="st1" width="16.2" height="20.7"/>
					<rect x="661.5" y="200.5" class="st1" width="16.2" height="20.7"/>
					<rect x="690.1" y="200.5" class="st1" width="16.2" height="20.7"/>
					<rect x="719.9" y="200.5" class="st1" width="16.2" height="20.7"/>
					<rect x="750.2" y="200.5" class="st1" width="16.2" height="20.7"/>
					<rect x="779.8" y="200.5" class="st1" width="16.2" height="20.7"/>
					<rect x="807.9" y="200.5" class="st1" width="16.2" height="20.7"/>
					<rect x="836.5" y="200.5" class="st1" width="16.2" height="20.7"/>
					<rect x="865.4" y="200.5" class="st1" width="16.2" height="20.7"/>
					<rect x="895.7" y="200.5" class="st1" width="16.2" height="20.7"/>
					<rect x="925.3" y="200.5" class="st1" width="16.2" height="20.7"/>
					<rect x="953.4" y="200.5" class="st1" width="16.2" height="20.7"/>
					<rect x="982" y="200.5" class="st1" width="16.2" height="20.7"/>
					<rect x="428.1" y="236.5" class="st1" width="16.2" height="20.7"/>
					<rect x="458.4" y="236.5" class="st1" width="16.2" height="20.7"/>
					<rect x="488" y="236.5" class="st1" width="16.2" height="20.7"/>
					<rect x="516" y="236.5" class="st1" width="16.2" height="20.7"/>
					<rect x="544.6" y="236.5" class="st1" width="16.2" height="20.7"/>
					<rect x="573.6" y="236.5" class="st1" width="16.2" height="20.7"/>
					<rect x="603.9" y="236.5" class="st1" width="16.2" height="20.7"/>
					<rect x="633.5" y="236.5" class="st1" width="16.2" height="20.7"/>
					<rect x="661.5" y="236.5" class="st1" width="16.2" height="20.7"/>
					<rect x="690.1" y="236.5" class="st1" width="16.2" height="20.7"/>
					<rect x="719.9" y="236.5" class="st1" width="16.2" height="20.7"/>
					<rect x="750.2" y="236.5" class="st1" width="16.2" height="20.7"/>
					<rect x="779.8" y="236.5" class="st1" width="16.2" height="20.7"/>
					<rect x="807.9" y="236.5" class="st1" width="16.2" height="20.7"/>
					<rect x="836.5" y="236.5" class="st1" width="16.2" height="20.7"/>
					<rect x="865.4" y="236.5" class="st1" width="16.2" height="20.7"/>
					<rect x="895.7" y="236.5" class="st1" width="16.2" height="20.7"/>
					<rect x="925.3" y="236.5" class="st1" width="16.2" height="20.7"/>
					<rect x="953.4" y="236.5" class="st1" width="16.2" height="20.7"/>
					<rect x="982" y="236.5" class="st1" width="16.2" height="20.7"/>
					<rect x="428.1" y="274.6" class="st1" width="16.2" height="20.7"/>
					<rect x="458.4" y="274.6" class="st1" width="16.2" height="20.7"/>
					<rect x="488" y="274.6" class="st1" width="16.2" height="20.7"/>
					<rect x="516" y="274.6" class="st1" width="16.2" height="20.7"/>
					<rect x="544.6" y="274.6" class="st1" width="16.2" height="20.7"/>
					<rect x="573.6" y="274.6" class="st1" width="16.2" height="20.7"/>
					<rect x="603.9" y="274.6" class="st1" width="16.2" height="20.7"/>
					<rect x="633.5" y="274.6" class="st1" width="16.2" height="20.7"/>
					<rect x="661.5" y="274.6" class="st1" width="16.2" height="20.7"/>
					<rect x="690.1" y="274.6" class="st1" width="16.2" height="20.7"/>
					<rect x="719.9" y="274.6" class="st1" width="16.2" height="20.7"/>
					<rect x="750.2" y="274.6" class="st1" width="16.2" height="20.7"/>
					<rect x="779.8" y="274.6" class="st1" width="16.2" height="20.7"/>
					<rect x="807.9" y="274.6" class="st1" width="16.2" height="20.7"/>
					<rect x="836.5" y="274.6" class="st1" width="16.2" height="20.7"/>
					<rect x="865.4" y="274.6" class="st1" width="16.2" height="20.7"/>
					<rect x="895.7" y="274.6" class="st1" width="16.2" height="20.7"/>
					<rect x="925.3" y="274.6" class="st1" width="16.2" height="20.7"/>
					<rect x="953.4" y="274.6" class="st1" width="16.2" height="20.7"/>
					<rect x="982" y="274.6" class="st1" width="16.2" height="20.7"/>
					<rect x="428.1" y="311.1" class="st1" width="16.2" height="20.7"/>
					<rect x="458.4" y="311.1" class="st1" width="16.2" height="20.7"/>
					<rect x="488" y="311.1" class="st1" width="16.2" height="20.7"/>
					<rect x="516" y="311.1" class="st1" width="16.2" height="20.7"/>
					<rect x="544.6" y="311.1" class="st1" width="16.2" height="20.7"/>
					<rect x="573.6" y="311.1" class="st1" width="16.2" height="20.7"/>
					<rect x="603.9" y="311.1" class="st1" width="16.2" height="20.7"/>
					<rect x="633.5" y="311.1" class="st1" width="16.2" height="20.7"/>
					<rect x="661.5" y="311.1" class="st1" width="16.2" height="20.7"/>
					<rect x="690.1" y="311.1" class="st1" width="16.2" height="20.7"/>
					<rect x="719.9" y="311.1" class="st1" width="16.2" height="20.7"/>
					<rect x="750.2" y="311.1" class="st1" width="16.2" height="20.7"/>
					<rect x="779.8" y="311.1" class="st1" width="16.2" height="20.7"/>
					<rect x="807.9" y="311.1" class="st1" width="16.2" height="20.7"/>
					<rect x="836.5" y="311.1" class="st1" width="16.2" height="20.7"/>
					<rect x="865.4" y="311.1" class="st1" width="16.2" height="20.7"/>
					<rect x="895.7" y="311.1" class="st1" width="16.2" height="20.7"/>
					<rect x="953.4" y="311.1" class="st1" width="16.2" height="20.7"/>
					<rect x="925.3" y="311.1" class="st1" width="16.2" height="20.7"/>
					<rect x="982" y="311.1" class="st1" width="16.2" height="20.7"/>
					<rect x="428.1" y="347" class="st1" width="16.2" height="20.7"/>
					<rect x="458.4" y="347" class="st1" width="16.2" height="20.7"/>
					<rect x="488" y="347" class="st1" width="16.2" height="20.7"/>
					<rect x="516" y="347" class="st1" width="16.2" height="20.7"/>
					<rect x="544.6" y="347" class="st1" width="16.2" height="20.7"/>
					<rect x="573.6" y="347" class="st1" width="16.2" height="20.7"/>
					<rect x="603.9" y="347" class="st1" width="16.2" height="20.7"/>
					<rect x="633.5" y="347" class="st1" width="16.2" height="20.7"/>
					<rect x="661.5" y="347" class="st1" width="16.2" height="20.7"/>
					<rect x="690.1" y="347" class="st1" width="16.2" height="20.7"/>
					<rect x="719.9" y="347" class="st1" width="16.2" height="20.7"/>
					<rect x="750.2" y="347" class="st1" width="16.2" height="20.7"/>
					<rect x="779.8" y="347" class="st1" width="16.2" height="20.7"/>
					<rect x="807.9" y="347" class="st1" width="16.2" height="20.7"/>
					<rect x="836.5" y="347" class="st1" width="16.2" height="20.7"/>
					<rect x="865.4" y="347" class="st1" width="16.2" height="20.7"/>
					<rect x="895.7" y="347" class="st1" width="16.2" height="20.7"/>
					<rect x="953.4" y="347" class="st1" width="16.2" height="20.7"/>
					<rect x="982" y="347" class="st1" width="16.2" height="20.7"/>
				</g>
				<rect x="1101.3" y="306.2" class="st1" width="36" height="220.8"/>
				<rect x="1095.2" y="440.4" class="st2" width="38.7" height="153.4"/>
				<polygon class="st1" points="285.9,243.1 285.9,200.1 287.9,200.1 287.9,243.1 314.6,243.1 314.6,296.2 259.6,296.2 
					259.6,243.1 				"/>
				<polygon class="st1" points="126.5,131.9 126.5,98.9 141.3,98.9 141.3,84.5 143.3,84.5 143.3,98.9 199.7,98.9 200.7,98.9 
					211.4,98.9 211.4,84.5 213.3,84.5 213.3,98.9 227,98.9 227,243.1 199.7,243.1 199.7,181 126.5,181 126.5,148 199.7,148 
					199.7,131.9 				"/>
				<polygon class="st0" points="927.3,338.3 927.3,524.4 1101.3,524.4 1101.3,306.2 				"/>
				<rect x="927.3" y="440" class="st0" width="272.7" height="157"/>
				<g>
					<rect x="944.9" y="482.4" class="st1" width="13.2" height="16.9"/>
					<rect x="969.6" y="482.4" class="st1" width="13.2" height="16.9"/>
					<rect x="993.8" y="482.4" class="st1" width="13.2" height="16.9"/>
					<rect x="1016.8" y="482.4" class="st1" width="13.2" height="16.9"/>
					<rect x="1040.1" y="482.4" class="st1" width="13.2" height="16.9"/>
					<rect x="1063.8" y="482.4" class="st1" width="13.2" height="16.9"/>
					<rect x="1088.5" y="482.4" class="st1" width="13.2" height="16.9"/>
					<rect x="1112.7" y="482.4" class="st1" width="13.2" height="16.9"/>
					<rect x="1135.7" y="482.4" class="st1" width="13.2" height="16.9"/>
					<rect x="1159" y="482.4" class="st1" width="13.2" height="16.9"/>
					<rect x="944.9" y="512.2" class="st1" width="13.2" height="16.9"/>
					<rect x="969.6" y="512.2" class="st1" width="13.2" height="16.9"/>
					<rect x="993.8" y="512.2" class="st1" width="13.2" height="16.9"/>
					<rect x="1016.8" y="512.2" class="st1" width="13.2" height="16.9"/>
					<rect x="1040.1" y="512.2" class="st1" width="13.2" height="16.9"/>
					<rect x="1063.8" y="512.2" class="st1" width="13.2" height="16.9"/>
					<rect x="1088.5" y="512.2" class="st1" width="13.2" height="16.9"/>
					<rect x="1112.7" y="512.2" class="st1" width="13.2" height="16.9"/>
					<rect x="1135.7" y="512.2" class="st1" width="13.2" height="16.9"/>
					<rect x="1159" y="512.2" class="st1" width="13.2" height="16.9"/>
					<rect x="944.9" y="422.3" class="st1" width="13.2" height="16.9"/>
					<rect x="969.6" y="422.3" class="st1" width="13.2" height="16.9"/>
					<rect x="993.8" y="422.3" class="st1" width="13.2" height="16.9"/>
					<rect x="1016.8" y="422.3" class="st1" width="13.2" height="16.9"/>
					<rect x="1040.1" y="422.3" class="st1" width="13.2" height="16.9"/>
					<rect x="1063.8" y="422.3" class="st1" width="13.2" height="16.9"/>
					<rect x="1088.5" y="422.3" class="st1" width="13.2" height="16.9"/>
					<rect x="1112.7" y="422.3" class="st1" width="13.2" height="16.9"/>
					<rect x="944.9" y="452.1" class="st1" width="13.2" height="16.9"/>
					<rect x="969.6" y="452.1" class="st1" width="13.2" height="16.9"/>
					<rect x="993.8" y="452.1" class="st1" width="13.2" height="16.9"/>
					<rect x="1016.8" y="452.1" class="st1" width="13.2" height="16.9"/>
					<rect x="1040.1" y="452.1" class="st1" width="13.2" height="16.9"/>
					<rect x="1063.8" y="452.1" class="st1" width="13.2" height="16.9"/>
					<rect x="1088.5" y="452.1" class="st1" width="13.2" height="16.9"/>
					<rect x="1112.7" y="452.1" class="st1" width="13.2" height="16.9"/>
					<rect x="1135.7" y="452.1" class="st1" width="13.2" height="16.9"/>
					<rect x="1159" y="452.1" class="st1" width="13.2" height="16.9"/>
					<rect x="944.9" y="541.6" class="st1" width="13.2" height="16.9"/>
					<rect x="969.6" y="541.6" class="st1" width="13.2" height="16.9"/>
					<rect x="993.8" y="541.6" class="st1" width="13.2" height="16.9"/>
					<rect x="1016.8" y="541.6" class="st1" width="13.2" height="16.9"/>
					<rect x="1040.1" y="541.6" class="st1" width="13.2" height="16.9"/>
					<rect x="1063.8" y="541.6" class="st1" width="13.2" height="16.9"/>
					<rect x="1088.5" y="541.6" class="st1" width="13.2" height="16.9"/>
					<rect x="1112.7" y="541.6" class="st1" width="13.2" height="16.9"/>
					<rect x="1135.7" y="541.6" class="st1" width="13.2" height="16.9"/>
					<rect x="1159" y="541.6" class="st1" width="13.2" height="16.9"/>
				</g>
				<g>
					<rect x="947" y="361.3" class="st0" width="11.1" height="17.4"/>
					<rect x="1057.4" y="361.3" class="st0" width="11.1" height="17.4"/>
					<rect x="1113.8" y="361.3" class="st0" width="11.1" height="17.4"/>
				</g>
			</g>
			
				<rect x="241.1" y="400.9" transform="matrix(-1 -1.224647e-16 1.224647e-16 -1 853.0804 998.2968)" class="st1" width="370.8" height="196.5"/>
			
				<rect x="472.8" y="420.5" transform="matrix(-1 -1.224647e-16 1.224647e-16 -1 965.39 868.2662)" class="st0" width="19.8" height="27.4"/>
			
				<rect x="436.9" y="420.5" transform="matrix(-1 -1.224647e-16 1.224647e-16 -1 893.5768 868.2662)" class="st0" width="19.8" height="27.4"/>
			
				<rect x="402" y="420.5" transform="matrix(-1 -1.224647e-16 1.224647e-16 -1 823.8499 868.2662)" class="st0" width="19.8" height="27.4"/>
			
				<rect x="366.9" y="420.5" transform="matrix(-1 -1.224647e-16 1.224647e-16 -1 753.6585 868.2662)" class="st0" width="19.8" height="27.4"/>
			
				<rect x="332.1" y="420.5" transform="matrix(-1 -1.224647e-16 1.224647e-16 -1 683.9316 868.2662)" class="st0" width="19.8" height="27.4"/>
			
				<rect x="295.5" y="420.5" transform="matrix(-1 -1.224647e-16 1.224647e-16 -1 610.8038 868.2662)" class="st0" width="19.8" height="27.4"/>
			
				<rect x="260.7" y="420.5" transform="matrix(-1 -1.224647e-16 1.224647e-16 -1 541.0769 868.2662)" class="st0" width="19.8" height="27.4"/>
			
				<rect x="577.6" y="460.9" transform="matrix(-1 -1.224647e-16 1.224647e-16 -1 1175.0348 949.1605)" class="st0" width="19.8" height="27.4"/>
			
				<rect x="542.8" y="460.9" transform="matrix(-1 -1.224647e-16 1.224647e-16 -1 1105.3082 949.1605)" class="st0" width="19.8" height="27.4"/>
			
				<rect x="507.7" y="460.9" transform="matrix(-1 -1.224647e-16 1.224647e-16 -1 1035.1165 949.1605)" class="st0" width="19.8" height="27.4"/>
			
				<rect x="472.8" y="460.9" transform="matrix(-1 -1.224647e-16 1.224647e-16 -1 965.39 949.1605)" class="st0" width="19.8" height="27.4"/>
			
				<rect x="436.9" y="460.9" transform="matrix(-1 -1.224647e-16 1.224647e-16 -1 893.5768 949.1605)" class="st0" width="19.8" height="27.4"/>
			
				<rect x="402" y="460.9" transform="matrix(-1 -1.224647e-16 1.224647e-16 -1 823.8499 949.1605)" class="st0" width="19.8" height="27.4"/>
			
				<rect x="366.9" y="460.9" transform="matrix(-1 -1.224647e-16 1.224647e-16 -1 753.6585 949.1605)" class="st0" width="19.8" height="27.4"/>
			
				<rect x="332.1" y="460.9" transform="matrix(-1 -1.224647e-16 1.224647e-16 -1 683.9316 949.1605)" class="st0" width="19.8" height="27.4"/>
			
				<rect x="295.5" y="460.9" transform="matrix(-1 -1.224647e-16 1.224647e-16 -1 610.8038 949.1605)" class="st0" width="19.8" height="27.4"/>
			
				<rect x="260.7" y="460.9" transform="matrix(-1 -1.224647e-16 1.224647e-16 -1 541.0769 949.1605)" class="st0" width="19.8" height="27.4"/>
			
				<rect x="577.6" y="504.4" transform="matrix(-1 -1.224647e-16 1.224647e-16 -1 1175.0348 1036.0573)" class="st0" width="19.8" height="27.4"/>
			
				<rect x="542.8" y="504.4" transform="matrix(-1 -1.224647e-16 1.224647e-16 -1 1105.3082 1036.0573)" class="st0" width="19.8" height="27.4"/>
			
				<rect x="507.7" y="504.4" transform="matrix(-1 -1.224647e-16 1.224647e-16 -1 1035.1165 1036.0573)" class="st0" width="19.8" height="27.4"/>
			
				<rect x="472.8" y="504.4" transform="matrix(-1 -1.224647e-16 1.224647e-16 -1 965.39 1036.0573)" class="st0" width="19.8" height="27.4"/>
			
				<rect x="436.9" y="504.4" transform="matrix(-1 -1.224647e-16 1.224647e-16 -1 893.5768 1036.0573)" class="st0" width="19.8" height="27.4"/>
			
				<rect x="402" y="504.4" transform="matrix(-1 -1.224647e-16 1.224647e-16 -1 823.8499 1036.0573)" class="st0" width="19.8" height="27.4"/>
			
				<rect x="366.9" y="504.4" transform="matrix(-1 -1.224647e-16 1.224647e-16 -1 753.6585 1036.0573)" class="st0" width="19.8" height="27.4"/>
			
				<rect x="332.1" y="504.4" transform="matrix(-1 -1.224647e-16 1.224647e-16 -1 683.9316 1036.0573)" class="st0" width="19.8" height="27.4"/>
			
				<rect x="295.5" y="504.4" transform="matrix(-1 -1.224647e-16 1.224647e-16 -1 610.8038 1036.0573)" class="st0" width="19.8" height="27.4"/>
			
				<rect x="260.7" y="504.4" transform="matrix(-1 -1.224647e-16 1.224647e-16 -1 541.0769 1036.0573)" class="st0" width="19.8" height="27.4"/>
			
				<rect x="577.6" y="544.8" transform="matrix(-1 -1.224647e-16 1.224647e-16 -1 1175.0348 1116.951)" class="st0" width="19.8" height="27.3"/>
			
				<rect x="542.8" y="544.8" transform="matrix(-1 -1.224647e-16 1.224647e-16 -1 1105.3082 1116.951)" class="st0" width="19.8" height="27.3"/>
			<polygon class="st1" points="368.9,409.3 291.5,409.3 291.5,348.2 368.9,375 			"/>
			<polygon class="st1" points="750.2,597.4 927.3,597.4 927.3,422.9 750.2,478.4 			"/>
			
				<rect x="754.9" y="483.6" transform="matrix(-1 -1.224647e-16 1.224647e-16 -1 1677.5782 972.6581)" class="st0" width="167.7" height="5.4"/>
			
				<rect x="754.9" y="501" transform="matrix(-1 -1.224647e-16 1.224647e-16 -1 1677.5782 1007.3273)" class="st0" width="167.7" height="5.4"/>
			
				<rect x="754.9" y="518.3" transform="matrix(-1 -1.224647e-16 1.224647e-16 -1 1677.5782 1041.9965)" class="st0" width="167.7" height="5.4"/>
			
				<rect x="754.9" y="535.6" transform="matrix(-1 -1.224647e-16 1.224647e-16 -1 1677.5782 1076.6655)" class="st0" width="167.7" height="5.4"/>
			
				<rect x="754.9" y="553" transform="matrix(-1 -1.224647e-16 1.224647e-16 -1 1677.5782 1111.3336)" class="st0" width="167.7" height="5.4"/>
			
				<rect x="754.9" y="570.3" transform="matrix(-1 -1.224647e-16 1.224647e-16 -1 1677.5782 1146.0027)" class="st0" width="167.7" height="5.4"/>
			
				<rect x="276.6" y="348.2" transform="matrix(-1 -1.224647e-16 1.224647e-16 -1 568.1151 748.4741)" class="st1" width="14.9" height="52.1"/>
			
				<rect x="314" y="368.2" transform="matrix(-1.836970e-16 1 -1 -1.836970e-16 706.2252 60.3458)" class="st0" width="17.9" height="30.2"/>
			<g>
				
					<rect x="901.2" y="101.8" transform="matrix(-1 -1.224647e-16 1.224647e-16 -1 1812.723 282.4283)" class="st1" width="10.3" height="78.9"/>
				
					<rect x="880.8" y="101.8" transform="matrix(-1 -1.224647e-16 1.224647e-16 -1 1771.9073 282.4283)" class="st1" width="10.3" height="78.9"/>
				
					<rect x="860.7" y="101.8" transform="matrix(-1 -1.224647e-16 1.224647e-16 -1 1731.6445 282.4283)" class="st1" width="10.3" height="78.9"/>
				
					<rect x="839.9" y="101.8" transform="matrix(-1 -1.224647e-16 1.224647e-16 -1 1689.9719 282.4283)" class="st1" width="10.3" height="78.9"/>
			</g>
		</g>
	</g>
	<g>
		<polygon class="st3" points="132.9,574.3 887,574.3 856.4,461.2 132.9,461.2 		"/>
		<g>
			<g>
				<path class="st4" d="M476.4,350.5L476.4,350.5C476.4,350.5,476.4,350.5,476.4,350.5C476.4,350.5,476.4,350.5,476.4,350.5z"/>
				<g>
					<path class="st4" d="M693,435.8L693,435.8c-11.3-0.4-23.1-0.6-35.3-0.6c0,0-67.5-58.6-145.7-78.6
						C592.4,376.4,693,435.8,693,435.8z"/>
				</g>
			</g>
			<path class="st5" d="M81.2,479.8v-64.7c0,0,75.9-8.7,121.9-25.3c106.3-39,163.4-39.8,260-39.8c73.3,0,147.5,49.1,179,72.7
				c10.6,8,23.5,12.4,36.8,12.7c115.9,2.5,187.6,25.7,223.2,41.3c16.7,7.3,27.4,23.9,27.4,42.1v21.8l0,0c2.4,0,4.3,1.9,4.3,4.3V581
				c0,2.4-1.9,4.3-4.3,4.3l0,0h-49.5h-19.7c6.9-12.3,10.6-26.5,10.3-41.7c-1.1-43.2-36.3-78.3-79.5-79.3
				c-45.8-1-83.2,35.8-83.2,81.3c0,14.4,3.7,27.9,10.3,39.6H292.4c6.9-12.3,10.6-26.5,10.3-41.7c-1.1-43.2-36.3-78.3-79.5-79.3
				c-45.8-1-83.2,35.8-83.2,81.3c0,14.4,3.7,27.9,10.3,39.6h-17c-58.8,0-67.2-60.2-67.7-89.7C65.4,486.9,72.4,479.8,81.2,479.8z"/>
			<path class="st4" d="M500.3,361.7c67.2,17,139.2,75.1,139.2,75.1l-190.6-4.1c-7.5-0.2-14.2-4.6-17.4-11.3l-29.2-63h70.7
				C482.1,358.3,491.3,359.4,500.3,361.7z"/>
			<path class="st4" d="M391,359.7l26.8,61.3c2.1,4.7-1.4,10-6.5,10c-27,0-97.9-1-138.7-11.2c-9.8-2.5-13.1-14.8-5.8-21.8
				C283.3,382.1,319.4,359.7,391,359.7z"/>
			<linearGradient id="SVGID_1_" gradientUnits="userSpaceOnUse" x1="777.9777" y1="470.6553" x2="924.4666" y2="470.6553">
				<stop  offset="0" style="stop-color:#FE330A"/>
				<stop  offset="1" style="stop-color:#F0047F"/>
			</linearGradient>
			<path class="st6" d="M924.5,497.9h-27.9c0,0-45.5-42.5-118.6-54.6C778,443.4,913,458.3,924.5,497.9z"/>
			<linearGradient id="SVGID_2_" gradientUnits="userSpaceOnUse" x1="81.175" y1="450.6667" x2="128.9753" y2="450.6667">
				<stop  offset="0" style="stop-color:#FE330A"/>
				<stop  offset="1" style="stop-color:#F0047F"/>
			</linearGradient>
			<path class="st7" d="M81.2,479.8h7.4c4.1,0,7.9-2.4,9.7-6.1c4.3-9,13.6-26.1,28-38.3c5.6-4.7,2.2-13.8-5.1-13.8h-40V479.8z"/>
			<path class="st4" d="M446.8,450.7h37c2,0,3.7-1.7,3.7-3.7l0,0c0-2-1.7-3.7-3.7-3.7h-37c-2,0-3.7,1.7-3.7,3.7l0,0
				C443.1,449,444.8,450.7,446.8,450.7z"/>
			<path class="st4" d="M283,450.7h37c2,0,3.7-1.7,3.7-3.7l0,0c0-2-1.7-3.7-3.7-3.7h-37c-2,0-3.7,1.7-3.7,3.7l0,0
				C279.3,449,281,450.7,283,450.7z"/>
			<path class="st8" d="M314.4,474.7h334c13.8,0,22.3,15.1,15.1,26.9L642,537c-4.7,7.7-14.9,9.8-22.2,4.6
				C591.2,521.2,509,479,314.4,474.7z"/>
		</g>
		<g>
			
				<ellipse transform="matrix(0.9079 -0.4192 0.4192 0.9079 -208.6295 142.7941)" class="st9" cx="220.6" cy="546.2" rx="70.8" ry="70.8"/>
			<path class="st10" d="M220.6,502.3c24.2,0,43.8,19.6,43.8,43.8S244.9,590,220.6,590s-43.8-19.6-43.8-43.8
				S196.4,502.3,220.6,502.3z M214.6,507.1c-9.5,1.5-18,6.3-24,13.3l15.2,9.4c2.5-2.2,5.5-3.9,8.8-4.9V507.1z M226.7,507.1V525
				c3.3,0.9,6.3,2.6,8.8,4.9l15.2-9.4C244.6,513.5,236.2,508.6,226.7,507.1z M257.1,561.5c2-4.7,3.1-9.9,3.1-15.3
				c0-5.5-1.1-10.7-3.2-15.5l-15.2,9.4c0.6,1.9,0.9,4,0.9,6.1c0,2.1-0.3,4-0.8,5.9L257.1,561.5z M226.7,585.2
				c9.6-1.5,18.1-6.4,24.1-13.5l-15.2-9.4c-2.5,2.3-5.6,4.1-8.9,5V585.2z M230.6,546.2c0-5.5-4.5-10-10-10c-5.5,0-10,4.5-10,10
				c0,5.5,4.5,10,10,10C226.1,556.1,230.6,551.7,230.6,546.2z M214.6,585.2v-17.9c-3.4-1-6.4-2.7-8.9-5l-15.2,9.4
				C196.6,578.8,205,583.7,214.6,585.2z M199.4,552.1c-0.5-1.9-0.8-3.9-0.8-5.9c0-2.1,0.3-4.2,0.9-6.1l-15.2-9.4
				c-2,4.8-3.2,10-3.2,15.5c0,5.4,1.1,10.6,3.1,15.3L199.4,552.1z"/>
		</g>
		<g>
			
				<ellipse transform="matrix(0.5847 -0.8112 0.8112 0.5847 -115.466 867.0139)" class="st9" cx="789.1" cy="546.3" rx="70.8" ry="70.8"/>
			<path class="st10" d="M789.1,502.4c24.2,0,43.8,19.6,43.8,43.8c0,24.2-19.6,43.8-43.8,43.8s-43.8-19.6-43.8-43.8
				C745.3,522.1,764.9,502.4,789.1,502.4z M783.1,507.2c-9.5,1.5-18,6.3-24,13.3l15.2,9.4c2.5-2.2,5.5-3.9,8.8-4.9V507.2z
				 M795.1,507.2v17.9c3.3,0.9,6.3,2.6,8.8,4.9l15.2-9.4C813.1,513.6,804.6,508.7,795.1,507.2z M825.5,561.6c2-4.7,3.1-9.9,3.1-15.3
				c0-5.5-1.1-10.7-3.2-15.5l-15.2,9.4c0.6,1.9,0.9,4,0.9,6.1c0,2.1-0.3,4-0.8,5.9L825.5,561.6z M795.1,585.3
				c9.6-1.5,18.1-6.4,24.1-13.5l-15.2-9.4c-2.5,2.3-5.6,4.1-8.9,5V585.3z M799,546.3c0-5.5-4.5-10-10-10s-10,4.5-10,10s4.5,10,10,10
				S799,551.8,799,546.3z M783.1,585.3v-17.9c-3.4-1-6.4-2.7-8.9-5l-15.2,9.4C765,578.9,773.5,583.9,783.1,585.3z M767.9,552.2
				c-0.5-1.9-0.8-3.9-0.8-5.9c0-2.1,0.3-4.2,0.9-6.1l-15.2-9.4c-2,4.8-3.2,10-3.2,15.5c0,5.4,1.1,10.6,3.1,15.3L767.9,552.2z"/>
		</g>
	</g>
	<g>
		
			<ellipse transform="matrix(3.835727e-02 -0.9993 0.9993 3.835727e-02 325.0805 1640.871)" class="st1" cx="1015.1" cy="651.5" rx="23.1" ry="114.2"/>
		<g>
			<path class="st11" d="M1006.8,406.9c-3.2,0-6-0.6-8.4-1.9c-30.4-15.1-2.2-118.6-2.2-118.6s1.4-4.7,7-7.2c2.9-1.3,6.8-2,12.4-1.1
				c16,2.7,19.1,9.3,19.7,13C1035.9,294.9,1050.3,406.7,1006.8,406.9z"/>
			<path class="st12" d="M998.3,405c-30.4-15.1-2.2-118.6-2.2-118.6s1.4-4.7,7-7.2c11.7,3.1,14.2,8.7,14.8,11.9
				C1018.5,294.7,1030.9,390.6,998.3,405z"/>
			<g>
				<path class="st12" d="M1060.8,618.8c0,0,6.9,6.4,5.6,11c-1.3,4.6-7.6,7.6-8.4,13.2c-0.8,5.6,4.1,9.5,1.1,9.5s-22.8-0.9-22.8-0.9
					s-2.2-3.9,3.2-5.1c5.4-1.2,7.4-7.7,7.1-13.8c-0.3-6.1,0.5-14.2,0.5-14.2l11.5-2.7L1060.8,618.8z"/>
				<path class="st12" d="M975.9,635.9c0,0,1.7,13.5-1.3,15c-3,1.5-39.3,1-39.3,1s0-4.6,6.2-5.6c6.2-1,17.2-4.7,19.1-13
					S975.9,635.9,975.9,635.9z"/>
				<path class="st11" d="M943.1,429.8c0,0,2.1,25.6,4.5,56.3c3.3,41.8,7.2,93.1,7.6,102.8c0.7,16.9,3.4,43.9,3.4,43.9
					s6.4,6.4,19.2,3.7c0,0,11.4-38.5,14.7-79.3c0.1-0.7,0.1-1.3,0.2-2c3-41.5,7.8-128.9,7.8-128.9L943.1,429.8z"/>
				<path class="st12" d="M943.1,429.8c0,0,2.1,25.6,4.5,56.3l44.9,71.1c0.1-0.7,0.1-1.3,0.2-2c3-41.5,7.8-128.9,7.8-128.9
					L943.1,429.8z"/>
				<path class="st11" d="M952.5,432.9c0,0,37,92.6,61.2,136.2c24.3,43.5,31.9,55.7,31.9,55.7s13.9-5.6,15.2-9.4
					c0,0-9.3-84-25.6-104.5c-9.2-11.6-20-46.3-20.5-58.5c-0.5-12.1-3.3-36.2-3.3-36.2L952.5,432.9z"/>
			</g>
			<path class="st13" d="M887.2,327.8l-7.8,0.3c-1.5,0.1-3-0.4-4.3-1.1c-2.8-1.5-8.3-3.1-12.9,3.9c0,0-2.4,4.3,0.7,5.5
				c3.1,1.2,2,0.2,6.3,2.1c3.2,1.4,6.5,1.3,8.8,0c1.9-1.2,4.4-1.2,6.6-0.7l7.1,1.8L887.2,327.8z"/>
			<path class="st14" d="M971.4,289.9c-1.6-9.7-1.7-15.4-1.7-15.4l18.7-15.1c-0.7,20.8,12.6,30.8,12.6,30.8s-25,12.3-39.4,7.7
				C961.7,297.8,965.2,293.3,971.4,289.9z"/>
			<path class="st13" d="M965.3,274.1c0,0,23.9,4,26.1-10.9c2.2-14.9,6.8-24.4-8.3-27.6c-15.1-3.2-19,2.1-20.9,6.9
				C960.2,247.2,959.2,272.7,965.3,274.1z"/>
			<linearGradient id="SVGID_3_" gradientUnits="userSpaceOnUse" x1="878.7369" y1="319.3549" x2="1009.9563" y2="319.3549">
				<stop  offset="0" style="stop-color:#F9B776"/>
				<stop  offset="1" style="stop-color:#F47960"/>
			</linearGradient>
			<path class="st15" d="M878.8,332.7c0.3-4.6,1.9-9.2,1.9-9.2s43.2-2.4,47.2-3.1c4.1-0.7,56.7-25.9,56.7-25.9l25.4,28.7
				c0,0-67.8,18.7-78.1,20.3c-17.1,2.6-52.1-4.2-52.1-4.2S878.5,336.3,878.8,332.7z"/>
			<linearGradient id="SVGID_4_" gradientUnits="userSpaceOnUse" x1="941.0547" y1="359.3777" x2="1014.2493" y2="359.3777">
				<stop  offset="0" style="stop-color:#F9B776"/>
				<stop  offset="1" style="stop-color:#F47960"/>
			</linearGradient>
			<path class="st16" d="M1014.2,420.9c0.1,0.8-0.9,1.8-2,2.5c-0.9,0.6-2,1.1-2.6,1.4c-3.2,1.4-6.3,2.7-9.4,3.8
				c-7.4,2.8-14.7,4.6-22.6,5.4c-8.4,0.8-17.8,0-25-0.7c-4-0.5-7.3-0.8-9.3-0.8h-0.3c-0.6,0-1.1-0.2-1.5-0.6
				c-0.3-0.2-0.6-12.8-0.4-29.8c0-2.4,0.1-4.8,0.1-7.4c0-0.8,0-1.7,0.1-2.5V392c0.1-8,0.3-16.4,0.7-24.7v-0.2
				c0.8-18.5,2.2-36.4,4.7-46.3c2.9-11.6,9.6-19.3,15.6-24.9l5-4.4c0.4,0.1,0.8,0.2,1.3,0.2c4.6,0.7,9.4,0.3,14.3-2.1
				c5.7-2.8,11.9-5.9,13-5.1c0.1,0.1,0.3,0.2,0.4,0.3c1.8,1.4,3.3,3.1,4.8,5.2c0.1,0.1,0.1,0.1,0.1,0.1c0.1,0,0.1,0,0.1,0
				c1.2,1.7,2.3,3.6,3.3,5.7c1.6,3.3,3,7.2,4.2,11.5c3.2,11.6,4.8,26.3,4.8,41.9c0,4-0.1,8-0.4,12.1c-0.1,1.2-0.1,2.3-0.2,3.4
				c-0.5,10.1-0.4,19.5-0.2,27.8v0.3c0.3,8.3,0.7,15.4,1.1,20.6C1014,416.6,1014.2,419.2,1014.2,420.9z"/>
			<linearGradient id="SVGID_5_" gradientUnits="userSpaceOnUse" x1="990.7242" y1="371.0031" x2="1013.8304" y2="371.0031">
				<stop  offset="0" style="stop-color:#F47960"/>
				<stop  offset="1" style="stop-color:#F9B776"/>
			</linearGradient>
			<path class="st17" d="M1013.8,413.4c-0.8-11.1-2.1-30.1-0.8-52.1c0.2-4.1,0.4-8.1,0.4-12.1c-4.9-12-9-20.7-9-20.7H992
				C992,328.6,982.9,390.9,1013.8,413.4z"/>
			<path class="st12" d="M991.4,261.7c0,0-2.4-0.4-2.1-3.8c0.4-3.4,0.4-7.8-2.4-7c-2.7,0.8-2.9,3-4,1.7c-1.1-1.3-1.1-6.7-9.3-7.1
				c-8.2-0.4-11.5,2.5-15.3,0.8c-3.8-1.7-4-7.4-4-7.4s1.1,2,2.7,2.7c0,0-6.3-8.7,1-14.6c7.3-5.9,14.8-2,19-1.8
				c9.3,0.6,15.4,1.1,18.4,7.3C998.7,238.8,997.4,255.8,991.4,261.7z"/>
			<g>
				<path class="st8" d="M1051.5,639.3c-1.9,4.5,0.2,9.6,4.7,11.6c4.5,1.9,9.8-0.2,11.7-4.7c1.9-4.5-0.2-9.6-4.7-11.6
					C1058.7,632.7,1053.4,634.8,1051.5,639.3z"/>
				<path class="st8" d="M1133.8,637.4l-12.7,4.5c-1.3,0.5-2.6,0.7-4,0.7l-71.9-0.6l-7.9-12.8L1133.8,637.4z"/>
				<g>
					<path class="st8" d="M1092.7,495.4l-20.2-49.3l0-0.1c-0.1-0.4-3.3-11-21.4-13.4l-0.1,0l-14.9-2.7c-1.9-0.5-7.5-1.3-10,0.8
						c-1.1,0.9-1.6,2.4-1.4,4.5c0.4,4.1,13.8,36.1,22.7,56.6l-2.8,1.2c-2.3-5.3-22.4-51.6-23-57.5c-0.3-3.1,0.5-5.5,2.5-7.1
						c4.2-3.5,11.9-1.6,12.7-1.4l14.7,2.7c19.5,2.5,23.5,14.2,23.9,15.5l20.1,49.1L1092.7,495.4z"/>
				</g>
				<path class="st8" d="M1054.2,480.9l-38.8,7.7c0,0-11.3,4.6-9,24.2c2,17.2,10.8,114,10.8,114s1.8,20.1,45.3,14.2L1054.2,480.9z"
					/>
				<path class="st5" d="M1032.7,507.6l10.6,108.3c0.4,4.4,2,8.4,4.4,11.8c4.5,6.3,11.8,10.3,20.1,10.3l36,0.1l0.9,0l22.5,0.1
					c2.3,0,4.5-0.3,6.5-0.8c0.5-0.1,1-0.3,1.4-0.4c7.8-2.6,13.8-8.9,16-16.6c0.9-3.3,1.2-6.8,0.6-10.5l-16.5-103.6
					c-1.8-11.1-10.9-19.5-22.2-20.6l-6.4-0.6l-1.5-0.1l0,0l-1.3-0.1l-21.2-2l-2.6-0.2l-20.5-1.9c-3.2-0.3-6.3,0-9.2,0.9
					c-0.2,0.1-0.4,0.1-0.6,0.2l-1.2,0.4C1038.6,486,1031.6,496.1,1032.7,507.6z"/>
				<path class="st18" d="M1047.8,627.7c4.5,6.3,11.8,10.3,20.1,10.3l36,0.1l0.9,0l22.5,0.1c2.3,0,4.5-0.3,6.5-0.8
					c0.5-0.1,1-0.3,1.4-0.4c7.8-2.6,16.8-11.9,16.9-21.8c0,0-76.1-0.8-92,1.6C1051.9,618.1,1049.5,623.7,1047.8,627.7z"/>
				<g>
					<g>
						<path class="st8" d="M1104,484.9c0.2,0.1,16.9,10.1,19.1,18.9c2.3,9.1,17.5,114.8,17.7,115.9c0,0.1,0.4,10.3-8.1,17.9l1.1-0.3
							c0.5-0.1,1-0.3,1.4-0.4c8-7.9,6.9-17,6.9-17.4c-0.6-4.4-15.4-106.9-17.7-116c-2-8-13.8-16-17.6-18.4l-1.5-0.1l0,0L1104,484.9z
							"/>
					</g>
					<g>
						<path class="st8" d="M1080.2,482.7c2.4,1.6,11.6,8.5,13.6,21.2c2.3,14.9,11.5,123.2,11.6,124.2l0,0.1l0,0.1
							c0,0.1,1.3,5.9-2.4,9.9l0.9,0l0.9,0c3.5-4.3,2.1-9.5,1.9-10.2c-0.3-3.3-9.3-109.5-11.6-124.3c-1.7-10.9-8.5-17.7-12.3-20.7
							L1080.2,482.7z"/>
					</g>
					<g>
						<path class="st8" d="M1048.7,482.3c0.1,0,3.5,2,6.5,5.3c3,3.3,6.2,8.5,7.4,15.8c2.3,14.9,9.6,122.8,9.7,123.9l0,0.1l0,0.1
							c0,0.1,0.3,6.7-3.3,10.6l2.3,0c2.8-3.6,2.6-10.2,2.4-11c-0.2-3.4-7.4-109.1-9.7-123.9c-2.2-13.9-11.5-20.3-13.5-21.5
							c-0.2,0.1-0.4,0.1-0.6,0.2L1048.7,482.3z"/>
					</g>
				</g>
			</g>
			<path class="st13" d="M1034.2,407.5l4.6,10.9c0.6,1.3,0.5,2.8,0,4.1c-1.1,2.9-2.1,8.6,5.3,12.3c0,0,4.5,1.9,5.4-1.3
				c0.9-3.2,0-2,1.3-6.5c1.2-3.9,0.4-7.7-2-9.7c-0.8-0.7-1.2-1.8-1.3-2.9l-0.7-7L1034.2,407.5z"/>
			<linearGradient id="SVGID_6_" gradientUnits="userSpaceOnUse" x1="980.4152" y1="352.7209" x2="1050.4844" y2="352.7209">
				<stop  offset="0" style="stop-color:#F9B776"/>
				<stop  offset="1" style="stop-color:#F47960"/>
			</linearGradient>
			<path class="st19" d="M1044.3,418.4c-4.5,0.9-9.3,0.5-9.3,0.5s-13.3-41.1-15-44.9c-1.7-3.8-39.5-48.2-39.5-48.2l15.8-39.4
				c0,0,40.9,68.3,45.1,77.9c6.9,15.9,9.2,51.4,9.2,51.4S1047.8,417.7,1044.3,418.4z"/>
			<path class="st12" d="M992.7,373.3c-5.1-6.3-10-15.2-13.2-27.7c-1.4-5.5-2.4-11.7-3-18.6c0,0-1.4-13.2,5.1-22.5
				c2.3-3.2,5.6-6.1,10.2-7.5c2.7-1,5.9-1.4,9.7-1.3c0.8,0,7.3-0.2,8.3-0.1c-1-2.1,0.4-5.1-0.8-6.8c0,0-3.2,1.2-3.3,1.2
				c-0.3,0-6.1,0-7.5,0c-1.1,0.1-2.3,0.1-3.8,0.3c-4.9,0.7-11.5,2.6-16.7,7.5c-1.6,1.5-3.1,3.3-4.4,5.4c-0.5,0.8-1,2-1.4,3.2
				c-3.1,9.6-2.7,29,3.5,47.1c4,11.6,10.3,22.7,19.6,30.3c4.7,3.9,10.9,7.1,17.3,8.8c0.6,0.2,1.2-0.2,1.3-0.8l0.5-2.5
				c0.1-0.6-0.2-1.2-0.8-1.4C1010.2,386.9,1000.5,383.1,992.7,373.3z"/>
		</g>
	</g>
	<ellipse class="st1" cx="652" cy="649.2" rx="99" ry="25"/>
	<g>
		<g>
			<g>
				<g>
					<path class="st20" d="M800.2,335l-1.9,2.6c-0.4,0.6-0.3,1.4,0.3,1.8l7.2,5.2c0.6,0.4,1.4,0.3,1.8-0.3l1.9-2.6
						c0.4-0.6,0.3-1.4-0.3-1.8l-7.2-5.2C801.4,334.3,800.6,334.4,800.2,335z M801,335.8l-1.7,2.3c-0.1,0.1-0.3,0.1-0.4,0.1
						c-0.1-0.1-0.1-0.3-0.1-0.4l1.7-2.3c0.1-0.1,0.3-0.1,0.4-0.1S801.1,335.7,801,335.8z"/>
					
						<ellipse transform="matrix(0.5827 -0.8127 0.8127 0.5827 59.2906 795.9984)" class="st21" cx="804.8" cy="340.3" rx="1.9" ry="3.6"/>
					<g>
						<g>
							<path class="st22" d="M805.5,338.9c0-0.1,0-0.2,0-0.2c-1.3-0.8-2.7-1-3.2-0.3s0.1,2,1.3,2.9c0.1,0,0.2,0,0.2,0L805.5,338.9z"
								/>
							<path class="st22" d="M804.1,341.6c0,0.1,0,0.2,0,0.2c1.3,0.8,2.7,1,3.2,0.3c0.5-0.7-0.1-2-1.3-2.9c-0.1,0-0.2,0-0.2,0
								L804.1,341.6z"/>
						</g>
					</g>
					<path class="st23" d="M806.1,340.8l-0.2-0.1c-0.2-0.1-0.4-0.1-0.6,0.1c-0.1,0.2-0.1,0.4,0.1,0.6l0.2,0.1l0,0.1l0.6,0.4l0.5-0.7
						L806.1,340.8L806.1,340.8z M805.5,341.2c-0.1-0.1-0.2-0.3-0.1-0.4c0.1-0.1,0.3-0.2,0.4-0.1l0.2,0.1l-0.4,0.5L805.5,341.2z"/>
					<path class="st23" d="M803.2,338.6c-0.1,0.2-0.1,0.4,0.1,0.6l0.2,0.1l0.1,0l0,0l-0.4,0.6l0.6,0.4l0.5-0.7l-0.6-0.4l0,0.1l0,0
						l-0.1,0l-0.2-0.1C803.2,339,803.1,338.8,803.2,338.6c0.2-0.1,0.4-0.1,0.5,0l0.2,0.2l0.1-0.1l-0.2-0.2
						C803.5,338.4,803.3,338.5,803.2,338.6z"/>
				</g>
				<g>
					<g>
						<polygon class="st24" points="799.2,344.4 798.4,344.7 797.6,344.9 799.3,350.3 800.3,350.9 800.8,349.8 800.7,349.6 
							800.4,349.4 800.6,349.1 800.5,348.9 800.2,348.8 800.4,348.4 800.3,348.3 800,348.1 800.2,347.8 799.9,347 799.6,346.8 
							799.4,346.1 799.5,345.9 799.3,345.8 799.3,345.8 799.4,345.6 799.2,345.5 799.4,345.2 						"/>
						<polygon class="st25" points="799.3,344.8 798.5,345 800.3,350.9 800.8,349.8 800.7,349.6 800.4,349.4 800.6,349.1 
							800.5,348.9 800.2,348.8 800.4,348.4 800.3,348.3 800,348.1 800.2,347.8 799.9,347 799.6,346.8 799.4,346.1 799.5,345.9 
							799.3,345.8 799.3,345.8 799.4,345.6 799.2,345.5 799.4,345.2 						"/>
					</g>
					<path class="st21" d="M799.5,338.9c-0.3-0.1-0.6-0.1-0.8-0.1c-1.3,0-2.6,0.4-3.7,1.1c-0.8,0.5-1.7,1.3-1.2,2.3
						c0.5,1,1.4,2.2,3.2,2.7c0.4,0.1,0.8,0.1,1.2,0l0.2-0.1l0.2-0.1c0.4-0.1,0.8-0.3,1-0.6c1.2-1.3,1.3-2.9,1.2-4
						C800.8,339.3,800.2,339,799.5,338.9z M798.7,339.4L797,340l-1.8,0.5c-0.1,0-0.2-0.1-0.1-0.2c0.3-0.3,0.9-0.6,1.7-0.9
						c0.8-0.2,1.5-0.3,1.9-0.2C798.8,339.2,798.9,339.4,798.7,339.4z"/>
				</g>
				<path class="st26" d="M799,339c-1.2,1-3.1,0.9-4.1-0.3c-1-1.2-0.9-3.1,0.3-4.1s3.1-0.9,4.1,0.3C800.3,336.1,800.2,338,799,339z
					 M795.4,334.8c-1.1,0.9-1.2,2.5-0.3,3.6c0.9,1.1,2.5,1.2,3.6,0.3c1.1-0.9,1.2-2.5,0.3-3.6C798.1,334.1,796.5,333.9,795.4,334.8z
					"/>
				<path class="st21" d="M795.7,339.5c0,0,0.5-0.3,1-0.4l0.7,0.2c0,0-0.7,0.2-1.1,0.4C795.8,339.8,795.7,339.5,795.7,339.5z"/>
				<path class="st20" d="M799.4,336.2l0.6-0.9l0.3,0.4c0,0-0.9,1.3-0.9,1.3S799.4,336.2,799.4,336.2z"/>
			</g>
			<linearGradient id="SVGID_7_" gradientUnits="userSpaceOnUse" x1="785.0778" y1="329.7212" x2="797.6757" y2="329.7212">
				<stop  offset="0" style="stop-color:#F0047F"/>
				<stop  offset="1" style="stop-color:#FE330A"/>
			</linearGradient>
			<path class="st27" d="M791,322.9c-1.9-1.1-6.2,4.1-5.9,6.1c0.4,2.1,6.3,2,7.8,3.5c0.6,0.6-0.2,2.8,0.4,3.4
				c0.7,0.7,2.9,1.4,3.9,0.1c0.7-0.8,1-2.8-1.3-3.9c-0.3-0.1-1.1,0.1-1.2-0.2C793.4,327.9,791.8,325.2,791,322.9"/>
		</g>
		<g>
			<path class="st28" d="M622.3,655.9l-17.5,0c0,0,0,0-0.1,0c-1.5-0.8-2.9-2-3.8-3.4c-2.7-4.3-10.2-7.2-11.4-11.1
				c-1.4-4.6,5.6-11,5.6-11l1.2-1.5l3.2-8.2l11.6,2.7c0,0,0.3,2.7,0.5,6.3c0.1,2.5,0.2,5.4,0,8c-0.4,6.1,1.7,12.7,7.1,13.9
				C622.8,652.4,622.7,654.7,622.3,655.9z"/>
			<path class="st28" d="M723.6,656.1l-39.9-0.1c-1.9-2.3-1.2-11-0.9-13.8c0.1-0.6,0.1-0.9,0.1-0.9s13.6-10.8,15.5-2.5
				c0.1,0.3,0.1,0.5,0.2,0.8c2.3,7.8,12.9,11.3,19,12.3C721.6,652.6,723,654.6,723.6,656.1z"/>
			<linearGradient id="SVGID_8_" gradientUnits="userSpaceOnUse" x1="658.4583" y1="536.5189" x2="716.2693" y2="536.5189">
				<stop  offset="0" style="stop-color:#231C62"/>
				<stop  offset="1" style="stop-color:#0E0D21"/>
			</linearGradient>
			<path class="st29" d="M716.3,434.1c0,0-2.1,25.7-4.6,56.6c-3.4,42-7.4,93.6-7.8,103.4c-0.7,17-3.5,44.1-3.5,44.1
				s-6.5,6.4-19.4,3.7c0,0-11.5-38.8-14.7-79.8c0-0.7-0.1-1.3-0.1-2c-3-41.8-7.7-129.7-7.7-129.7L716.3,434.1z"/>
			<linearGradient id="SVGID_9_" gradientUnits="userSpaceOnUse" x1="658.4583" y1="496.2825" x2="716.2693" y2="496.2825">
				<stop  offset="0" style="stop-color:#231C62"/>
				<stop  offset="1" style="stop-color:#0E0D21"/>
			</linearGradient>
			<path class="st30" d="M716.3,434.1c0,0-2.1,25.7-4.6,56.6l-45.4,71.4c0-0.7-0.1-1.3-0.1-2c-3-41.8-7.7-129.7-7.7-129.7
				L716.3,434.1z"/>
			<linearGradient id="SVGID_10_" gradientUnits="userSpaceOnUse" x1="595.6483" y1="528.4363" x2="706.8158" y2="528.4363">
				<stop  offset="0" style="stop-color:#231C62"/>
				<stop  offset="1" style="stop-color:#0E0D21"/>
			</linearGradient>
			<path class="st31" d="M706.8,437.1c0,0-37.4,93.1-62,136.9c-24.6,43.8-35.5,62.6-35.5,62.6s-12.4-2.1-13.7-5.9
				c0,0,11.1-94.8,27.5-115.4c9.3-11.6,20.2-46.6,20.8-58.8c0.5-12.2,3.4-36.4,3.4-36.4L706.8,437.1z"/>
		</g>
		<g>
			<path class="st32" d="M773.5,331.8c-0.2-0.4,7.9-9.8,14.5-13.1c2.1-1.1,4.8,0.1,5.9,1.1c2.4,2.2,4.8,12.7,3.1,12.8
				c-0.4,0-3.3-5-4.6-6.5c-0.6-0.7-2.1-1.9-3-1.9c-1.6,0-3.7,2.8-3.6,4.4c0.2,2,6.5,2.9,5.9,4.6c-0.5,1.6-4.3,0.3-5.9,0.6
				c-1.8,0.3-6.3,5-6.3,5L773.5,331.8z"/>
			<linearGradient id="SVGID_11_" gradientUnits="userSpaceOnUse" x1="674.6531" y1="344.8104" x2="780.7924" y2="344.8104">
				<stop  offset="0" style="stop-color:#FFFFFF"/>
				<stop  offset="1" style="stop-color:#CCCCCC"/>
			</linearGradient>
			<path class="st33" d="M691.1,299c0,0,30.1,52.5,41.1,62.2l40.2-29.8c0,0,5.8,1.8,8.4,7.6c0,0-24.5,49.5-48.5,51.6
				c-24,2.1-57.7-59.5-57.7-59.5L691.1,299z"/>
		</g>
		<path class="st32" d="M697.7,301.3c-14.6,4.6-39.8-7.8-39.8-7.8s13.5-10,12.8-30.9l11.3,9.1l7.6,6.2c0,0,0,3.6-0.9,10
			c-0.2,1.7-0.5,3.5-0.9,5.6C694.1,296.7,697.7,301.3,697.7,301.3z"/>
		<path class="st34" d="M689.6,277.7c0,0,0,3.6-0.9,10c-8.5-1.5-18.1-15.1-18.1-15.1c4.3-1.2,8.1-1.5,11.3-1L689.6,277.7z"/>
		<path class="st32" d="M694.1,277.4c0,0-24.1,4-26.3-11c-2.2-15-6.9-24.6,8.4-27.7c15.3-3.2,19.1,2.1,21.1,6.9
			C699.2,250.4,700.3,276,694.1,277.4z"/>
		<linearGradient id="SVGID_12_" gradientUnits="userSpaceOnUse" x1="644.467" y1="363.1779" x2="718.3887" y2="363.1779">
			<stop  offset="0" style="stop-color:#FFFFFF"/>
			<stop  offset="1" style="stop-color:#CCCCCC"/>
		</linearGradient>
		<path class="st35" d="M717.9,436.2c-0.4,0.4-1,0.6-1.5,0.6c-5.5-0.1-21.4,2.9-34.9,1.5c-11.4-1.1-21.5-4.5-32.3-9.3
			c-1.4-0.6-4.7-2.4-4.7-4c0-1.8,0.2-4.3,0.5-7.5c0.8-11.1,2.1-30.3,0.9-52.4c-0.2-4.1-0.3-8.2-0.4-12.2
			c-0.1-29.9,5.9-56.3,17.9-65.2c1-0.7,7.3,2.3,13.1,5.2c5.3,2.6,10.7,2.9,15.7,1.9l5,4.4c6.1,5.7,12.8,13.4,15.7,25.1
			c2.5,10,3.9,27.9,4.7,46.6c0.4,8.4,0.6,16.9,0.7,25l0,0.3c0.1,0.8,0.1,1.7,0.1,2.5C718.6,419.5,718.2,435.9,717.9,436.2z"/>
		<linearGradient id="SVGID_13_" gradientUnits="userSpaceOnUse" x1="644.9206" y1="374.8137" x2="668.3337" y2="374.8137">
			<stop  offset="0" style="stop-color:#FFFFFF"/>
			<stop  offset="1" style="stop-color:#CCCCCC"/>
		</linearGradient>
		<path class="st36" d="M644.9,417.5c0.8-11.1,2.1-30.3,0.9-52.4c-0.2-4.1-0.3-8.2-0.4-12.2c5-12,9.1-20.8,9.1-20.8l12.6,0
			C667.1,332.2,676.2,394.9,644.9,417.5z"/>
		<path class="st12" d="M667.7,264.9c0,0,2.5-0.4,2.1-3.8c-0.4-3.4-0.4-7.8,2.4-7c2.8,0.8,2.9,3,4,1.7c1.1-1.3,1.2-6.7,9.4-7.1
			c8.2-0.4,11.6,2.5,15.4,0.8c3.8-1.7,4-7.4,4-7.4s-1.1,2.1-2.7,2.7c0,0,6.4-8.7-1-14.7c-7.4-6-14.9-2.1-19.2-1.8
			c-9.4,0.6-15.5,1.1-18.6,7.3C660.4,241.8,661.7,259,667.7,264.9z"/>
		<g>
			<linearGradient id="SVGID_14_" gradientUnits="userSpaceOnUse" x1="643.3458" y1="423.0728" x2="643.3458" y2="288.6883">
				<stop  offset="0" style="stop-color:#FFFFFF"/>
				<stop  offset="1" style="stop-color:#CCCCCC"/>
			</linearGradient>
			<path class="st37" d="M614.1,422.5c4.5,0.9,9.4,0.5,9.4,0.5s13.5-41.3,15.2-45.1c1.7-3.8,40-48.4,40-48.4l-16.3-40.7
				c-2.8-1.6-41.9,69.2-45.2,79.4c-5.3,16.6-9.4,51.7-9.4,51.7S610.6,421.8,614.1,422.5z"/>
			<path class="st32" d="M618.5,435.1c-2.7-0.2-1.7,1.4-1.7,1.4s6.4,1.7,1.8,2.5c-5.9,1-8.7-1.6-8.7-1.6c-2.4-6.9,0.2-16.4,0.2-16.4
				l11,2c-2.1,1.8-4.6,9.3-2.1,9.6C621.6,433,623.7,435.5,618.5,435.1z"/>
		</g>
		<g>
			<path class="st38" d="M580.4,488.5l53.6,7.7c7,1,13.5-3.9,14.5-10.8l3.3-23.1c1-7-3.9-13.5-10.8-14.5l-53.6-7.7
				c-7-1-13.5,3.9-14.5,10.8l-3.3,23.1C568.6,481,573.5,487.5,580.4,488.5z"/>
			<path class="st39" d="M644,454.7L644,454.7c-1.5-3.8-4.7-6.7-8.9-7.7h0c0,0,0,0,0,0c-0.4-0.1-0.8-0.2-1.2-0.2l-10.7-1.5l0.7-5
				c0.2-1.1-0.1-2.2-0.8-3.1c-0.7-0.9-1.7-1.5-2.8-1.7l-2.8-0.4l-11.2-1.6l-2-0.3c-2.3-0.3-4.5,1.3-4.8,3.6l-0.7,5l-18.4-2.6
				c-7-1-13.6,3.9-14.6,10.9l-3.4,23.4c-1,7,3.9,13.5,10.9,14.5l53.5,7.7c0.9,0.1,1.9,0.2,2.8,0.1h0c0,0,0,0,0,0
				c1.5-0.1,2.9-0.5,4.2-1c3.9-1.7,6.9-5.4,7.6-9.9l3.4-23.4C645.1,458.9,644.8,456.7,644,454.7z M602.2,437
				c0.1-0.7,0.7-1.2,1.3-1.3c0.2,0,0.3,0,0.5,0l2.4,0.3l8.8,1.3l4.8,0.7c0.9,0.1,1.5,0.9,1.3,1.8l-0.7,5l-19.1-2.7L602.2,437z"/>
		</g>
		<g>
			<polygon class="st40" points="614.6,458.4 614.1,461.9 609.2,465.9 603.7,465.1 608.2,461.3 596.8,459.7 597.3,455.8 			"/>
			<polygon points="612.2,475 611.6,478.8 593.9,476.2 594.5,472.7 599.3,468.7 604.9,469.5 600.3,473.2 			"/>
		</g>
		<g>
			<path class="st40" d="M703.9,323.2c0,1,0,2,0,3c-1.2,1.3-2.5,2.7-3.7,4.1c-1.6,0.1-3.2,0.2-4.8,0.4c1.2-1.3,2.3-2.7,3.4-4
				c-3.3,0.2-6.6,0.6-9.9,0.6c0-1.1,0.1-2.2,0.1-3.3C694,324,699,323.1,703.9,323.2z"/>
			<path d="M703.7,337.4c0,1.1,0,2.2,0,3.3c-5.1,0-10.3,0.9-15.4,0.8c0-1,0.1-2,0.1-3c1.2-1.3,2.5-2.6,3.7-4
				c1.6-0.1,3.2-0.2,4.8-0.3c-1.2,1.3-2.3,2.7-3.5,4C696.8,337.8,700.3,337.4,703.7,337.4z"/>
		</g>
	</g>
</g>
</svg>
